{
.formatVersion = 3;
axes = (
{
name = Weight;
tag = wght;
}
);
classes = (
{
code = "zero one.pnum two three four five six seven eight nine";
name = lnum;
},
{
code = "zero.os one.os two.os three.os four.os five.os six.os seven.os eight.os nine.os";
name = lnum_onum_tnum;
},
{
code = "zero two three four five six seven eight nine one.pnum";
name = onum;
},
{
code = "zero.os two.os three.os four.os five.os six.os seven.os eight.os nine.os one.os";
name = onum2;
},
{
code = "zero one two three four five six seven eight nine";
name = onum_tnum;
},
{
code = "I Igrave Iacute Icircumflex Idieresis Itilde Imacron Ibreve Iogonek Idotaccent IJ Iotatonos Iota Iotadieresis afii10055 afii10056 uni04C0 uni04CF uni1EC8 uni1ECA";
name = salt_ss01_ss03;
},
{
code = "I.alt Igrave.alt Iacute.alt Icircumflex.alt Idieresis.alt Itilde.alt Imacron.alt Ibreve.alt Iogonek.alt Idotaccent.alt IJ.alt Iotatonos.alt Iota.alt Iotadieresis.alt afii10055.alt afii10056.alt uni04C0.alt uni04CF.alt uni1EC8.alt uni1ECA.alt";
name = salt_ss01_ss032;
}
);
familyName = Geom;
customParameters = (
{
name = glyphOrder;
value = (
.notdef,
null,
nonmarkingreturn,
space,
exclam,
quotedbl,
numbersign,
dollar,
percent,
ampersand,
quotesingle,
parenleft,
parenright,
asterisk,
plus,
comma,
hyphen,
period,
slash,
zero,
one,
two,
three,
four,
five,
six,
seven,
eight,
nine,
colon,
semicolon,
less,
equal,
greater,
question,
at,
A,
B,
C,
D,
E,
F,
G,
H,
J,
K,
L,
M,
N,
O,
P,
Q,
R,
S,
T,
U,
V,
W,
X,
Y,
Z,
bracketleft,
backslash,
bracketright,
asciicircum,
underscore,
grave,
a,
b,
c,
d,
e,
f,
g,
h,
i,
j,
k,
l,
m,
n,
o,
p,
q,
r,
s,
t,
u,
v,
w,
x,
y,
z,
braceleft,
bar,
braceright,
asciitilde,
nonbreakingspace,
exclamdown,
cent,
sterling,
currency,
yen,
brokenbar,
section,
dieresis,
copyright,
ordfeminine,
guillemotleft,
logicalnot,
uni00AD,
registered,
degree,
plusminus,
twosuperior,
threesuperior,
acute,
mu,
paragraph,
periodcentered,
cedilla,
onesuperior,
ordmasculine,
guillemotright,
onequarter,
onehalf,
threequarters,

glyphs = (
{
color = 5;
glyphname = .notdef;
layers = (
{
layerId = "4E03E7F0-ECBD-4EC7-A096-1B73C4225036";
shapes = (
{
closed = 1;
nodes = (
(42,0,l),
(571,0,l),
(571,720,l),
(42,720,l)
);
},
{
closed = 1;
nodes = (
(307,421,l),
(144,663,l),
(468,663,l)
);
},
{
closed = 1;
nodes = (
(346,360,l),
(501,593,l),
(501,128,l)
);
},
{
closed = 1;
nodes = (
(144,57,l),
(307,300,l),
(468,57,l)
);
},
{
closed = 1;
nodes = (
(112,594,l),
(267,360,l),
(112,128,l)
);
}
);
width = 600;
},
{
layerId = "DB4FB8A3-CCB4-4756-A88C-1F7F91E8FFEA";
shapes = (
{
closed = 1;
nodes = (
(2,0,l),
(528,0,l),
(528,720,l),
(2,720,l)
);
},
{
closed = 1;
nodes = (
(265,419,l),
(100,663,l),
(429,663,l)
);
},
{
closed = 1;
nodes = (
(303,360,l),
(462,598,l),
(462,124,l)
);
},
{
closed = 1;
nodes = (
(100,57,l),
(265,303,l),
(429,57,l)
);
},
{
closed = 1;
nodes = (
(68,599,l),
(227,360,l),
(68,124,l)
);
}
);
width = 529;
},
{
layerId = "2D64E6AB-4944-48EA-A6F4-9D71FBB0136F";
shapes = (
{
closed = 1;
nodes = (
(-6,0,l),
(519,0,l),
(519,720,l),
(-6,720,l)
);
},
{
closed = 1;
nodes = (
(256,419,l),
(91,663,l),
(421,663,l)
);
},
{
closed = 1;
nodes = (
(294,360,l),
(454,599,l),
(454,123,l)
);
},
{
closed = 1;
nodes = (
(91,57,l),
(256,303,l),
(421,57,l)
);
},
{
closed = 1;
nodes = (
(59,600,l),
(219,360,l),
(59,123,l)
);
}
);
width = 515;
}
);
},
{
color = 5;
glyphname = exclam;
layers = (
{
layerId = "4E03E7F0-ECBD-4EC7-A096-1B73C4225036";
shapes = (
{
closed = 1;
nodes = (
(62,700,l),
(62,615,l),
(120,228,l),
(220,228,l),
(278,615,l),
(278,700,l)
);
},
{
closed = 1;
nodes = (
(62,20,o),
(109,-13,o),
(169,-13,cs),
(229,-13,o),
(277,20,o),
(277,84,cs),
(277,148,o),
(229,180,o),
(169,180,cs),
(109,180,o),
(62,148,o),
(62,84,cs)
);
}
);
width = 341;
},
{
layerId = "DB4FB8A3-CCB4-4756-A88C-1F7F91E8FFEA";
shapes = (
{
closed = 1;
nodes = (
(90,704,l),
(93,620,l),
(118,207,l),
(180,207,l),
(204,620,l),
(207,704,l)
);
},
{
closed = 1;
nodes = (
(81,15,o),
(112,-11,o),
(149,-11,cs),
(187,-11,o),
(216,15,o),
(216,56,cs),
(216,92,o),
(187,121,o),
(149,121,cs),
(112,121,o),
(81,92,o),
(81,56,cs)
);
}
);
width = 299;
},
{
layerId = "2D64E6AB-4944-48EA-A6F4-9D71FBB0136F";
shapes = (
{
closed = 1;
nodes = (
(95,705,l),
(99,621,l),
(117,203,l),
(172,203,l),
(189,621,l),
(193,705,l)
);
},
{
closed = 1;
nodes = (
(85,14,o),
(112,-10,o),
(145,-10,cs),
(178,-10,o),
(204,14,o),
(204,50,cs),
(204,81,o),
(178,109,o),
(145,109,cs),
(113,109,o),
(85,81,o),
(85,50,cs)
);
}
);
width = 290;
}
);
unicode = 33;
},
{
color = 5;
glyphname = quotedbl;
layers = (
{
layerId = "4E03E7F0-ECBD-4EC7-A096-1B73C4225036";
shapes = (
{
closed = 1;
nodes = (
(188,341,l),
(315,697,l),
(315,699,l),
(315,700,l),
(111,700,l),
(89,341,l)
);
},
{
closed = 1;
nodes = (
(345,341,l),
(445,341,l),
(572,697,l),
(572,699,l),
(572,700,l),
(368,700,l)
);
}
);
width = 660;
},
{
layerId = "DB4FB8A3-CCB4-4756-A88C-1F7F91E8FFEA";
shapes = (
{
closed = 1;
nodes = (
(136,426,l),
(199,662,l),
(209,707,l),
(209,707,l),
(99,707,l),
(74,426,l)
);
},
{
closed = 1;
nodes = (
(266,426,l),
(328,426,l),
(391,662,l),
(401,707,l),
(401,707,l),
(291,707,l)
);
}
);
width = 474;
},
{
layerId = "2D64E6AB-4944-48EA-A6F4-9D71FBB0136F";
shapes = (
{
closed = 1;
nodes = (
(126,443,l),
(176,655,l),
(188,708,l),
(188,708,l),
(97,708,l),
(71,443,l)
);
},
{
closed = 1;
nodes = (
(250,443,l),
(305,443,l),
(355,655,l),
(367,708,l),
(367,708,l),
(276,708,l)
);
}
);
width = 437;
}
);
unicode = 34;
},
{
color = 5;
glyphname = numbersign;
layers = (
{
layerId = "4E03E7F0-ECBD-4EC7-A096-1B73C4225036";
shapes = (
{
closed = 1;
nodes = (
(88,0,l),
(233,0,l),
(256,135,l),
(383,135,l),
(359,0,l),
(504,0,l),
(528,135,l),
(647,135,l),
(647,296,l),
(555,296,l),
(574,408,l),
(680,408,l),
(680,569,l),
(602,569,l),
(624,700,l),
(479,700,l),
(457,569,l),
(330,569,l),
(353,700,l),
(208,700,l),
(186,569,l),
(66,569,l),
(66,408,l),
(158,408,l),
(139,296,l),
(33,296,l),
(33,135,l),
(111,135,l)
);
},
{
closed = 1;
nodes = (
(433,412,l),
(413,292,l),
(279,292,l),
(300,412,l)
);
}
);
width = 712;
},
{
layerId = "DB4FB8A3-CCB4-4756-A88C-1F7F91E8FFEA";
shapes = (
{
closed = 1;
nodes = (
(96,0,l),
(181,0,l),
(209,184,l),
(366,184,l),
(339,0,l),
(424,0,l),
(451,184,l),
(569,184,l),
(569,271,l),
(465,271,l),
(492,440,l),
(602,440,l),
(602,527,l),
(506,527,l),
(532,705,l),
(447,705,l),
(421,527,l),
(264,527,l),
(291,705,l),
(206,705,l),
(179,527,l),
(58,527,l),
(58,440,l),
(166,440,l),
(139,271,l),
(25,271,l),
(25,185,l),
(125,185,l)
);
},
{
closed = 1;
nodes = (
(408,440,l),
(381,270,l),
(222,270,l),
(249,440,l)
);
}
);
width = 625;
},
{
layerId = "2D64E6AB-4944-48EA-A6F4-9D71FBB0136F";
shapes = (
{
closed = 1;
nodes = (
(98,0,l),
(171,0,l),
(200,194,l),
(363,194,l),
(335,0,l),
(408,0,l),
(436,194,l),
(553,194,l),
(553,266,l),
(447,266,l),
(476,446,l),
(586,446,l),
(586,518,l),
(487,518,l),
(513,706,l),
(441,706,l),
(414,518,l),
(251,518,l),
(278,706,l),
(206,706,l),
(177,518,l),
(56,518,l),
(56,446,l),
(167,446,l),
(139,266,l),
(23,266,l),
(23,195,l),
(128,195,l)
);
},
{
closed = 1;
nodes = (
(403,446,l),
(374,266,l),
(211,266,l),
(239,446,l)
);
}
);
width = 608;
}
);
unicode = 35;
},
{
color = 5;
glyphname = dollar;
layers = (
{
layerId = "4E03E7F0-ECBD-4EC7-A096-1B73C4225036";
shapes = (
{
closed = 1;
nodes = (
(278,-98,l),
(382,-98,l),
(382,0,l),
(523,13,o),
(618,89,o),
(618,212,cs),
(618,335,o),
(538,393,o),
(379,430,c),
(379,555,l),
(423,547,o),
(460,530,o),
(492,491,c),
(589,599,l),
(541,652,o),
(467,689,o),
(384,698,c),
(384,758,l),
(280,758,l),
(280,701,l),
(128,690,o),
(41,607,o),
(41,490,cs),
(41,366,o),
(124,309,o),
(284,272,c),
(284,145,l),
(228,152,o),
(168,186,o),
(129,234,c),
(18,115,l),
(94,40,o),
(189,2,o),
(278,2,c)
);
},
{
closed = 1;
nodes = (
(445,172,o),
(425,151,o),
(378,146,c),
(378,256,l),
(430,240,o),
(445,222,o),
(445,199,cs)
);
},
{
closed = 1;
nodes = (
(217,530,o),
(236,551,o),
(285,555,c),
(285,447,l),
(230,462,o),
(217,482,o),
(217,505,cs)
);
}
);
width = 646;
},
{
layerId = "DB4FB8A3-CCB4-4756-A88C-1F7F91E8FFEA";
shapes = (
{
closed = 1;
nodes = (
(258,-96,l),
(330,-96,l),
(330,-3,l),
(450,10,o),
(536,87,o),
(536,195,cs),
(536,292,o),
(471,349,o),
(328,396,c),
(328,624,l),
(376,619,o),
(418,594,o),
(443,559,c),
(502,620,l),
(470,661,o),
(417,701,o),
(330,709,c),
(330,774,l),
(258,774,l),
(258,709,l),
(142,698,o),
(57,625,o),
(57,519,cs),
(57,414,o),
(132,356,o),
(259,314,c),
(259,78,l),
(187,83,o),
(130,120,o),
(87,165,c),
(29,101,l),
(84,42,o),
(163,-3,o),
(258,-3,c)
);
},
{
closed = 1;
nodes = (
(438,130,o),
(404,90,o),
(329,79,c),
(329,294,l),
(420,265,o),
(438,220,o),
(438,182,cs)
);
},
{
closed = 1;
nodes = (
(155,581,o),
(190,619,o),
(259,626,c),
(259,418,l),
(193,446,o),
(155,475,o),
(155,529,cs)
);
}
);
width = 578;
},
{
layerId = "2D64E6AB-4944-48EA-A6F4-9D71FBB0136F";
shapes = (
{
closed = 1;
nodes = (
(254,-95,l),
(319,-95,l),
(319,-4,l),
(435,9,o),
(519,86,o),
(519,192,cs),
(519,283,o),
(457,340,o),
(318,389,c),
(318,638,l),
(366,633,o),
(409,607,o),
(433,572,c),
(484,624,l),
(456,663,o),
(407,703,o),
(319,711,c),
(319,777,l),
(254,777,l),
(254,710,l),
(145,699,o),
(60,628,o),
(60,525,cs),
(60,423,o),
(134,365,o),
(254,322,c),
(254,65,l),
(179,69,o),
(122,107,o),
(79,151,c),
(31,98,l),
(82,42,o),
(158,-4,o),
(254,-4,c)
);
},
{
closed = 1;
nodes = (
(437,122,o),
(400,78,o),
(319,66,c),
(319,302,l),
(418,270,o),
(437,219,o),
(437,179,cs)
);
},
{
closed = 1;
nodes = (
(142,591,o),
(181,632,o),
(254,640,c),
(254,412,l),
(186,443,o),
(142,473,o),
(142,534,cs)
);
}
);
width = 564;
}
);
unicode = 36;
},
{
color = 5;
glyphname = percent;
layers = (
{
layerId = "4E03E7F0-ECBD-4EC7-A096-1B73C4225036";
shapes = (
{
closed = 1;
nodes = (
(399,624,o),
(327,710,o),
(219,710,cs),
(110,710,o),
(38,625,o),
(38,522,cs),
(38,419,o),
(110,333,o),
(218,333,cs),
(326,333,o),
(399,419,o),
(399,523,cs)
);
},
{
closed = 1;
nodes = (
(277,478,o),
(254,443,o),
(219,443,cs),
(186,443,o),
(160,478,o),
(160,523,cs),
(160,567,o),
(183,600,o),
(218,600,cs),
(253,600,o),
(277,566,o),
(277,522,cs)
);
},
{
closed = 1;
nodes = (
(867,284,o),
(795,367,o),
(687,367,cs),
(578,367,o),
(506,282,o),
(506,179,cs),
(506,77,o),
(578,-10,o),
(686,-10,cs),
(794,-10,o),
(867,79,o),
(867,180,cs)
);
},
{
closed = 1;
nodes = (
(745,135,o),
(722,100,o),
(687,100,cs),
(654,100,o),
(628,136,o),
(628,180,cs),
(628,225,o),
(650,257,o),
(686,257,cs),
(721,257,o),
(745,224,o),
(745,179,cs)
);
},
{
closed = 1;
nodes = (
(790,700,l),
(655,700,l),
(115,0,l),
(250,0,l)
);
}
);
width = 904;
},
{
layerId = "DB4FB8A3-CCB4-4756-A88C-1F7F91E8FFEA";
shapes = (
{
closed = 1;
nodes = (
(379,641,o),
(313,721,o),
(212,721,cs),
(113,721,o),
(43,640,o),
(43,540,cs),
(43,437,o),
(111,356,o),
(211,356,cs),
(311,356,o),
(379,439,o),
(379,541,cs)
);
},
{
closed = 1;
nodes = (
(303,472,o),
(270,425,o),
(212,425,cs),
(156,425,o),
(119,471,o),
(119,540,cs),
(119,605,o),
(155,653,o),
(211,653,cs),
(263,653,o),
(303,607,o),
(303,536,cs)
);
},
{
closed = 1;
nodes = (
(806,272,o),
(739,351,o),
(639,351,cs),
(541,351,o),
(471,271,o),
(471,170,cs),
(471,70,o),
(536,-11,o),
(638,-11,cs),
(738,-11,o),
(806,71,o),
(806,171,cs)
);
},
{
closed = 1;
nodes = (
(730,106,o),
(695,58,o),
(639,58,cs),
(587,58,o),
(547,100,o),
(547,170,cs),
(547,238,o),
(582,283,o),
(638,283,cs),
(693,283,o),
(730,237,o),
(730,170,cs)
);
},
{
closed = 1;
nodes = (
(707,708,l),
(629,719,l),
(138,-3,l),
(215,-16,l)
);
}
);
width = 849;
},
{
layerId = "2D64E6AB-4944-48EA-A6F4-9D71FBB0136F";
shapes = (
{
closed = 1;
nodes = (
(375,644,o),
(310,723,o),
(210,723,cs),
(114,723,o),
(44,643,o),
(44,543,cs),
(44,441,o),
(111,361,o),
(209,361,cs),
(308,361,o),
(375,443,o),
(375,544,cs)
);
},
{
closed = 1;
nodes = (
(308,471,o),
(273,421,o),
(210,421,cs),
(150,421,o),
(111,470,o),
(111,543,cs),
(111,612,o),
(149,663,o),
(209,663,cs),
(265,663,o),
(308,615,o),
(308,539,cs)
);
},
{
closed = 1;
nodes = (
(794,269,o),
(728,348,o),
(629,348,cs),
(534,348,o),
(464,269,o),
(464,168,cs),
(464,69,o),
(528,-11,o),
(628,-11,cs),
(727,-11,o),
(794,69,o),
(794,169,cs)
);
},
{
closed = 1;
nodes = (
(727,100,o),
(690,49,o),
(629,49,cs),
(573,49,o),
(531,93,o),
(531,168,cs),
(531,240,o),
(568,288,o),
(628,288,cs),
(687,288,o),
(727,240,o),
(727,168,cs)
);
},
{
closed = 1;
nodes = (
(690,709,l),
(624,723,l),
(142,-4,l),
(208,-19,l)
);
}
);
width = 838;
}
);
unicode = 37;
},
{
color = 5;
glyphname = ampersand;
layers = (
{
layerId = "4E03E7F0-ECBD-4EC7-A096-1B73C4225036";
shapes = (
{
closed = 1;
nodes = (
(401,161,l),
(374,142,o),
(346,131,o),
(318,131,cs),
(270,131,o),
(236,159,o),
(236,200,cs),
(236,231,o),
(251,257,o),
(286,278,c)
);
},
{
closed = 1;
nodes = (
(573,385,l),
(552,345,o),
(530,307,o),
(507,274,c),
(429,355,l),
(512,394,o),
(566,452,o),
(566,537,cs),
(566,641,o),
(486,719,o),
(358,719,cs),
(221,719,o),
(138,630,o),
(138,529,cs),
(138,482,o),
(152,435,o),
(184,388,c),
(88,345,o),
(42,280,o),
(42,192,cs),
(42,63,o),
(149,-12,o),
(292,-12,cs),
(373,-12,o),
(440,14,o),
(500,59,c),
(560,-5,l),
(735,34,l),
(609,173,l),
(642,218,o),
(679,288,o),
(708,341,c)
);
},
{
closed = 1;
nodes = (
(390,586,o),
(412,565,o),
(412,530,cs),
(412,495,o),
(389,467,o),
(338,442,c),
(314,473,o),
(302,495,o),
(302,522,cs),
(302,561,o),
(325,586,o),
(358,586,cs)
);
}
);
width = 748;
},
{
layerId = "DB4FB8A3-CCB4-4756-A88C-1F7F91E8FFEA";
shapes = (
{
closed = 1;
nodes = (
(438,152,l),
(397,105,o),
(349,69,o),
(288,69,cs),
(210,69,o),
(158,126,o),
(158,197,cs),
(158,262,o),
(198,307,o),
(270,340,c)
);
},
{
closed = 1;
nodes = (
(579,373,l),
(555,320,o),
(530,275,o),
(499,227,c),
(357,383,l),
(449,422,o),
(511,475,o),
(511,563,cs),
(511,649,o),
(439,719,o),
(335,719,cs),
(229,719,o),
(153,652,o),
(153,556,cs),
(153,501,o),
(179,453,o),
(218,403,c),
(113,363,o),
(53,293,o),
(53,192,cs),
(53,67,o),
(152,-11,o),
(280,-11,cs),
(367,-11,o),
(433,25,o),
(494,86,c),
(582,-5,l),
(688,16,l),
(556,161,l),
(595,217,o),
(631,281,o),
(662,346,c)
);
},
{
closed = 1;
nodes = (
(382,640,o),
(419,608,o),
(419,558,cs),
(419,506,o),
(372,464,o),
(307,439,c),
(270,483,o),
(247,518,o),
(247,555,cs),
(247,606,o),
(284,640,o),
(334,640,cs)
);
}
);
width = 695;
},
{
layerId = "2D64E6AB-4944-48EA-A6F4-9D71FBB0136F";
shapes = (
{
closed = 1;
nodes = (
(445,150,l),
(402,97,o),
(349,57,o),
(282,57,cs),
(198,57,o),
(142,119,o),
(142,196,cs),
(142,268,o),
(187,317,o),
(267,352,c)
);
},
{
closed = 1;
nodes = (
(580,371,l),
(556,315,o),
(530,268,o),
(497,217,c),
(343,388,l),
(436,427,o),
(500,479,o),
(500,568,cs),
(500,651,o),
(430,719,o),
(330,719,cs),
(231,719,o),
(156,656,o),
(156,561,cs),
(156,505,o),
(184,457,o),
(225,406,c),
(118,366,o),
(55,296,o),
(55,192,cs),
(55,68,o),
(152,-11,o),
(277,-11,cs),
(366,-11,o),
(432,27,o),
(493,91,c),
(586,-5,l),
(678,12,l),
(545,158,l),
(585,217,o),
(621,280,o),
(653,347,c)
);
},
{
closed = 1;
nodes = (
(380,651,o),
(420,616,o),
(420,563,cs),
(420,508,o),
(368,463,o),
(301,438,c),
(261,485,o),
(236,523,o),
(236,562,cs),
(236,615,o),
(276,651,o),
(329,651,cs)
);
}
);
width = 684;
}
);
unicode = 38;
},
{
color = 5;
glyphname = quotesingle;
layers = (
{
layerId = "4E03E7F0-ECBD-4EC7-A096-1B73C4225036";
shapes = (
{
closed = 1;
nodes = (
(89,341,l),
(192,341,l),
(319,697,l),
(319,699,l),
(319,700,l),
(111,700,l)
);
}
);
width = 408;
},
{
layerId = "DB4FB8A3-CCB4-4756-A88C-1F7F91E8FFEA";
shapes = (
{
closed = 1;
nodes = (
(74,426,l),
(137,426,l),
(200,662,l),
(210,707,l),
(210,707,l),
(99,707,l)
);
}
);
width = 284;
},
{
layerId = "2D64E6AB-4944-48EA-A6F4-9D71FBB0136F";
shapes = (
{
closed = 1;
nodes = (
(71,443,l),
(126,443,l),
(176,655,l),
(188,708,l),
(188,708,l),
(96,708,l)
);
}
);
width = 259;
}
);
unicode = 39;
},
{
color = 5;
glyphname = parenleft;
layers = (
{
layerId = "4E03E7F0-ECBD-4EC7-A096-1B73C4225036";
shapes = (
{
closed = 1;
nodes = (
(256,418,o),
(312,508,o),
(441,597,c),
(346,706,l),
(181,613,o),
(70,491,o),
(70,287,cs),
(70,83,o),
(171,-42,o),
(342,-130,c),
(441,-23,l),
(312,66,o),
(256,156,o),
(256,287,cs)
);
}
);
width = 474;
},
{
layerId = "DB4FB8A3-CCB4-4756-A88C-1F7F91E8FFEA";
shapes = (
{
closed = 1;
nodes = (
(174,439,o),
(235,556,o),
(361,671,c),
(309,732,l),
(159,610,o),
(75,469,o),
(75,285,cs),
(75,98,o),
(163,-48,o),
(310,-158,c),
(360,-99,l),
(235,17,o),
(174,132,o),
(174,285,cs)
);
}
);
width = 409;
},
{
layerId = "2D64E6AB-4944-48EA-A6F4-9D71FBB0136F";
shapes = (
{
closed = 1;
nodes = (
(158,443,o),
(220,565,o),
(345,686,c),
(301,737,l),
(154,609,o),
(76,464,o),
(76,284,cs),
(76,101,o),
(161,-49,o),
(303,-164,c),
(344,-114,l),
(219,7,o),
(158,127,o),
(158,284,cs)
);
}
);
width = 396;
}
);
unicode = 40;
},
{
color = 5;
glyphname = parenright;
layers = (
{
layerId = "4E03E7F0-ECBD-4EC7-A096-1B73C4225036";
shapes = (
{
closed = 1;
nodes = (
(219,156,o),
(163,66,o),
(34,-23,c),
(133,-130,l),
(308,-40,o),
(405,84,o),
(405,287,cs),
(405,489,o),
(304,613,o),
(129,706,c),
(34,597,l),
(163,508,o),
(219,418,o),
(219,287,cs)
);
}
);
width = 474;
},
{
layerId = "DB4FB8A3-CCB4-4756-A88C-1F7F91E8FFEA";
shapes = (
{
closed = 1;
nodes = (
(237,135,o),
(180,17,o),
(49,-99,c),
(101,-158,l),
(249,-43,o),
(336,100,o),
(336,285,cs),
(336,467,o),
(253,607,o),
(102,732,c),
(48,671,l),
(181,556,o),
(237,436,o),
(237,285,cs)
);
}
);
width = 411;
},
{
layerId = "2D64E6AB-4944-48EA-A6F4-9D71FBB0136F";
shapes = (
{
closed = 1;
nodes = (
(240,131,o),
(183,7,o),
(52,-114,c),
(95,-164,l),
(237,-43,o),
(322,103,o),
(322,284,cs),
(322,462,o),
(243,606,o),
(96,737,c),
(51,686,l),
(184,565,o),
(240,439,o),
(240,284,cs)
);
}
);
width = 398;
}
);
unicode = 41;
},
{
color = 5;
glyphname = asterisk;
layers = (
{
layerId = "4E03E7F0-ECBD-4EC7-A096-1B73C4225036";
shapes = (
{
closed = 1;
nodes = (
(144,554,l),
(18,510,l),
(42,435,l),
(169,478,l),
(169,340,l),
(251,340,l),
(251,476,l),
(375,435,l),
(400,510,l),
(277,552,l),
(352,663,l),
(286,710,l),
(209,602,l),
(132,710,l),
(66,663,l)
);
}
);
width = 417;
},
{
layerId = "DB4FB8A3-CCB4-4756-A88C-1F7F91E8FFEA";
shapes = (
{
closed = 1;
nodes = (
(131,599,l),
(26,563,l),
(47,502,l),
(151,537,l),
(151,423,l),
(215,423,l),
(215,536,l),
(318,502,l),
(338,563,l),
(236,598,l),
(300,688,l),
(247,723,l),
(183,637,l),
(118,723,l),
(65,686,l)
);
}
);
width = 364;
},
{
layerId = "2D64E6AB-4944-48EA-A6F4-9D71FBB0136F";
shapes = (
{
closed = 1;
nodes = (
(128,608,l),
(28,573,l),
(48,515,l),
(147,549,l),
(147,440,l),
(208,440,l),
(208,548,l),
(306,515,l),
(325,573,l),
(228,607,l),
(289,693,l),
(239,725,l),
(178,644,l),
(115,725,l),
(65,690,l)
);
}
);
width = 353;
}
);
unicode = 42;
},
{
color = 5;
glyphname = plus;
layers = (
{
layerId = "4E03E7F0-ECBD-4EC7-A096-1B73C4225036";
shapes = (
{
closed = 1;
nodes = (
(424,608,l),
(250,608,l),
(250,436,l),
(81,436,l),
(81,268,l),
(250,268,l),
(250,96,l),
(424,96,l),
(424,268,l),
(593,268,l),
(593,436,l),
(424,436,l)
);
}
);
width = 674;
},
{
layerId = "DB4FB8A3-CCB4-4756-A88C-1F7F91E8FFEA";
shapes = (
{
closed = 1;
nodes = (
(346,592,l),
(253,592,l),
(253,391,l),
(53,391,l),
(53,301,l),
(253,301,l),
(253,99,l),
(346,99,l),
(346,301,l),
(547,301,l),
(547,391,l),
(346,391,l)
);
}
);
width = 600;
},
{
layerId = "2D64E6AB-4944-48EA-A6F4-9D71FBB0136F";
shapes = (
{
closed = 1;
nodes = (
(330,589,l),
(253,589,l),
(253,382,l),
(47,382,l),
(47,308,l),
(253,308,l),
(253,100,l),
(330,100,l),
(330,308,l),
(538,308,l),
(538,382,l),
(330,382,l)
);
}
);
width = 585;
}
);
unicode = 43;
},
{
color = 5;
glyphname = comma;
layers = (
{
layerId = "4E03E7F0-ECBD-4EC7-A096-1B73C4225036";
shapes = (
{
closed = 1;
nodes = (
(240,197,l),
(69,197,l),
(7,-164,l),
(137,-164,l)
);
}
);
width = 280;
},
{
layerId = "DB4FB8A3-CCB4-4756-A88C-1F7F91E8FFEA";
shapes = (
{
closed = 1;
nodes = (
(188,133,l),
(77,133,l),
(30,-143,l),
(110,-143,l)
);
}
);
width = 257;
},
{
layerId = "2D64E6AB-4944-48EA-A6F4-9D71FBB0136F";
shapes = (
{
closed = 1;
nodes = (
(178,120,l),
(79,120,l),
(35,-139,l),
(104,-139,l)
);
}
);
width = 252;
}
);
unicode = 44;
},
{
color = 5;
glyphname = hyphen;
layers = (
{
layerId = "4E03E7F0-ECBD-4EC7-A096-1B73C4225036";
shapes = (
{
closed = 1;
nodes = (
(350,356,l),
(22,356,l),
(22,189,l),
(350,189,l)
);
}
);
width = 371;
},
{
layerId = "DB4FB8A3-CCB4-4756-A88C-1F7F91E8FFEA";
shapes = (
{
closed = 1;
nodes = (
(310,319,l),
(30,319,l),
(30,227,l),
(310,227,l)
);
}
);
width = 339;
},
{
layerId = "2D64E6AB-4944-48EA-A6F4-9D71FBB0136F";
shapes = (
{
closed = 1;
nodes = (
(302,311,l),
(31,311,l),
(31,234,l),
(302,234,l)
);
}
);
width = 333;
}
);
unicode = 45;
},
{
color = 5;
glyphname = period;
layers = (
{
layerId = "4E03E7F0-ECBD-4EC7-A096-1B73C4225036";
shapes = (
{
closed = 1;
nodes = (
(62,25,o),
(111,-13,o),
(174,-13,cs),
(238,-13,o),
(287,25,o),
(287,97,cs),
(287,169,o),
(238,206,o),
(174,206,cs),
(111,206,o),
(62,169,o),
(62,97,cs)
);
}
);
width = 350;
},
{
layerId = "DB4FB8A3-CCB4-4756-A88C-1F7F91E8FFEA";
shapes = (
{
closed = 1;
nodes = (
(81,19,o),
(112,-11,o),
(150,-11,cs),
(187,-11,o),
(218,19,o),
(218,58,cs),
(218,97,o),
(187,126,o),
(150,126,cs),
(112,126,o),
(81,97,o),
(81,58,cs)
);
}
);
width = 300;
},
{
layerId = "2D64E6AB-4944-48EA-A6F4-9D71FBB0136F";
shapes = (
{
closed = 1;
nodes = (
(85,18,o),
(112,-10,o),
(145,-10,cs),
(177,-10,o),
(204,18,o),
(204,50,cs),
(204,83,o),
(177,110,o),
(145,110,cs),
(112,110,o),
(85,83,o),
(85,50,cs)
);
}
);
width = 290;
}
);
unicode = 46;
},
{
color = 5;
glyphname = slash;
layers = (
{
layerId = "4E03E7F0-ECBD-4EC7-A096-1B73C4225036";
shapes = (
{
closed = 1;
nodes = (
(596,798,l),
(442,798,l),
(-1,-128,l),
(153,-128,l)
);
}
);
width = 595;
},
{
layerId = "DB4FB8A3-CCB4-4756-A88C-1F7F91E8FFEA";
shapes = (
{
closed = 1;
nodes = (
(516,773,l),
(433,786,l),
(2,-86,l),
(84,-96,l)
);
}
);
width = 518;
},
{
layerId = "2D64E6AB-4944-48EA-A6F4-9D71FBB0136F";
shapes = (
{
closed = 1;
nodes = (
(500,768,l),
(431,783,l),
(2,-77,l),
(70,-90,l)
);
}
);
width = 502;
}
);
unicode = 47;
},
{
color = 5;
glyphname = zero;
layers = (
{
layerId = "4E03E7F0-ECBD-4EC7-A096-1B73C4225036";
shapes = (
{
closed = 1;
nodes = (
(438,542,o),
(491,461,o),
(491,350,cs),
(491,239,o),
(441,158,o),
(363,158,cs),
(286,158,o),
(233,240,o),
(233,352,cs),
(233,464,o),
(284,542,o),
(361,542,cs)
);
},
{
closed = 1;
nodes = (
(164,714,o),
(38,548,o),
(38,350,cs),
(38,152,o),
(161,-14,o),
(361,-14,cs),
(561,-14,o),
(686,155,o),
(686,352,cs),
(686,550,o),
(562,714,o),
(363,714,cs)
);
}
);
width = 723;
},
{
layerId = "DB4FB8A3-CCB4-4756-A88C-1F7F91E8FFEA";
shapes = (
{
closed = 1;
nodes = (
(426,626,o),
(489,514,o),
(489,352,cs),
(489,193,o),
(428,78,o),
(320,78,cs),
(209,78,o),
(148,188,o),
(148,356,cs),
(148,512,o),
(210,626,o),
(318,626,cs)
);
},
{
closed = 1;
nodes = (
(141,718,o),
(43,564,o),
(43,353,cs),
(43,134,o),
(140,-14,o),
(318,-14,cs),
(498,-14,o),
(594,142,o),
(594,352,cs),
(594,568,o),
(496,718,o),
(319,718,cs)
);
}
);
width = 636;
},
{
layerId = "2D64E6AB-4944-48EA-A6F4-9D71FBB0136F";
shapes = (
{
closed = 1;
nodes = (
(424,643,o),
(489,524,o),
(489,352,cs),
(489,184,o),
(425,62,o),
(311,62,cs),
(194,62,o),
(131,178,o),
(131,357,cs),
(131,522,o),
(195,643,o),
(309,643,cs)
);
},
{
closed = 1;
nodes = (
(136,719,o),
(44,567,o),
(44,354,cs),
(44,130,o),
(136,-14,o),
(309,-14,cs),
(485,-14,o),
(576,139,o),
(576,352,cs),
(576,571,o),
(483,719,o),
(310,719,cs)
);
}
);
width = 619;
}
);
unicode = 48;
},
{
color = 5;
glyphname = one;
layers = (
{
layerId = "4E03E7F0-ECBD-4EC7-A096-1B73C4225036";
shapes = (
{
closed = 1;
nodes = (
(360,705,l),
(14,705,l),
(14,524,l),
(169,524,l),
(169,0,l),
(360,0,l)
);
}
);
width = 435;
},
{
layerId = "DB4FB8A3-CCB4-4756-A88C-1F7F91E8FFEA";
shapes = (
{
closed = 1;
nodes = (
(227,708,l),
(9,708,l),
(9,612,l),
(125,612,l),
(125,0,l),
(227,0,l)
);
}
);
width = 330;
},
{
layerId = "2D64E6AB-4944-48EA-A6F4-9D71FBB0136F";
shapes = (
{
closed = 1;
nodes = (
(200,708,l),
(8,708,l),
(8,630,l),
(116,630,l),
(116,0,l),
(200,0,l)
);
}
);
width = 309;
}
);
unicode = 49;
},
{
color = 5;
glyphname = two;
layers = (
{
layerId = "4E03E7F0-ECBD-4EC7-A096-1B73C4225036";
shapes = (
{
closed = 1;
nodes = (
(133,712,o),
(4,622,o),
(4,453,c),
(181,453,l),
(181,517,o),
(229,543,o),
(274,543,cs),
(320,543,o),
(352,516,o),
(352,472,cs),
(352,437,o),
(332,389,o),
(280,328,cs),
(0,0,l),
(554,0,l),
(554,158,l),
(366,158,l),
(429,242,ls),
(506,343,o),
(547,406,o),
(547,489,cs),
(547,621,o),
(442,712,o),
(279,712,cs)
);
}
);
width = 595;
},
{
layerId = "DB4FB8A3-CCB4-4756-A88C-1F7F91E8FFEA";
shapes = (
{
closed = 1;
nodes = (
(149,717,o),
(60,650,o),
(40,503,c),
(147,503,l),
(158,577,o),
(205,626,o),
(283,626,cs),
(368,626,o),
(400,577,o),
(400,525,cs),
(400,473,o),
(366,410,o),
(288,313,c),
(29,0,l),
(519,0,l),
(519,90,l),
(224,90,l),
(367,262,ls),
(464,378,o),
(506,449,o),
(506,522,cs),
(506,634,o),
(412,717,o),
(283,717,cs)
);
}
);
width = 586;
},
{
layerId = "2D64E6AB-4944-48EA-A6F4-9D71FBB0136F";
shapes = (
{
closed = 1;
nodes = (
(152,718,o),
(71,655,o),
(47,513,c),
(140,513,l),
(153,589,o),
(200,642,o),
(285,642,cs),
(377,642,o),
(409,589,o),
(409,536,cs),
(409,480,o),
(373,414,o),
(289,310,cs),
(35,0,l),
(512,0,l),
(512,76,l),
(196,76,l),
(355,266,ls),
(456,385,o),
(498,458,o),
(498,528,cs),
(498,636,o),
(406,718,o),
(284,718,cs)
);
}
);
width = 584;
}
);
unicode = 50;
},
{
color = 5;
glyphname = three;
layers = (
{
layerId = "4E03E7F0-ECBD-4EC7-A096-1B73C4225036";
shapes = (
{
closed = 1;
nodes = (
(587,561,l),
(587,700,l),
(81,700,l),
(81,543,l),
(349,543,l),
(188,398,l),
(216,297,l),
(231,297,o),
(285,297,o),
(298,297,cs),
(371,297,o),
(412,270,o),
(412,225,cs),
(412,182,o),
(376,152,o),
(317,152,cs),
(266,152,o),
(213,175,o),
(168,219,c),
(33,110,l),
(101,34,o),
(201,-14,o),
(328,-14,cs),
(493,-14,o),
(601,80,o),
(601,221,cs),
(601,340,o),
(520,397,o),
(420,418,c)
);
}
);
width = 642;
},
{
layerId = "DB4FB8A3-CCB4-4756-A88C-1F7F91E8FFEA";
shapes = (
{
closed = 1;
nodes = (
(521,630,l),
(521,715,l),
(94,715,l),
(94,626,l),
(393,626,l),
(190,412,l),
(204,358,l),
(226,362,o),
(255,364,o),
(277,364,cs),
(373,364,o),
(445,323,o),
(445,222,cs),
(445,133,o),
(383,78,o),
(300,78,cs),
(217,78,o),
(165,124,o),
(131,208,c),
(51,148,l),
(93,52,o),
(179,-13,o),
(301,-13,cs),
(444,-13,o),
(548,91,o),
(548,224,cs),
(548,357,o),
(454,432,o),
(331,438,c)
);
}
);
width = 615;
},
{
layerId = "2D64E6AB-4944-48EA-A6F4-9D71FBB0136F";
shapes = (
{
closed = 1;
nodes = (
(508,644,l),
(508,718,l),
(96,718,l),
(96,642,l),
(402,642,l),
(190,415,l),
(201,370,l),
(225,375,o),
(249,377,o),
(273,377,cs),
(373,377,o),
(452,334,o),
(452,221,cs),
(452,123,o),
(384,63,o),
(296,63,cs),
(207,63,o),
(155,114,o),
(124,206,c),
(55,156,l),
(91,56,o),
(175,-13,o),
(295,-13,cs),
(434,-13,o),
(537,93,o),
(537,225,cs),
(537,360,o),
(441,439,o),
(313,442,c)
);
}
);
width = 609;
}
);
unicode = 51;
},
{
color = 5;
glyphname = four;
layers = (
{
layerId = "4E03E7F0-ECBD-4EC7-A096-1B73C4225036";
shapes = (
{
closed = 1;
nodes = (
(385,705,l),
(22,274,l),
(54,136,l),
(393,136,l),
(393,0,l),
(581,0,l),
(581,136,l),
(670,136,l),
(670,281,l),
(581,281,l),
(581,705,l)
);
},
{
closed = 1;
nodes = (
(393,281,l),
(226,281,l),
(393,481,l)
);
}
);
width = 695;
},
{
layerId = "DB4FB8A3-CCB4-4756-A88C-1F7F91E8FFEA";
shapes = (
{
closed = 1;
nodes = (
(363,711,l),
(15,237,l),
(33,150,l),
(401,150,l),
(401,0,l),
(501,0,l),
(501,150,l),
(598,150,l),
(598,235,l),
(501,235,l),
(501,711,l)
);
},
{
closed = 1;
nodes = (
(401,235,l),
(129,235,l),
(401,609,l)
);
}
);
width = 632;
},
{
layerId = "2D64E6AB-4944-48EA-A6F4-9D71FBB0136F";
shapes = (
{
closed = 1;
nodes = (
(358,712,l),
(13,229,l),
(29,153,l),
(403,153,l),
(403,0,l),
(485,0,l),
(485,153,l),
(583,153,l),
(583,226,l),
(485,226,l),
(485,712,l)
);
},
{
closed = 1;
nodes = (
(403,226,l),
(110,226,l),
(403,635,l)
);
}
);
width = 619;
}
);
unicode = 52;
},
{
color = 5;
glyphname = five;
layers = (
{
layerId = "4E03E7F0-ECBD-4EC7-A096-1B73C4225036";
shapes = (
{
closed = 1;
nodes = (
(194,281,l),
(227,301,o),
(263,316,o),
(306,316,cs),
(367,316,o),
(409,286,o),
(409,235,cs),
(409,184,o),
(370,151,o),
(306,151,cs),
(246,151,o),
(193,179,o),
(136,227,c),
(25,97,l),
(98,29,o),
(184,-14,o),
(309,-14,cs),
(480,-14,o),
(598,81,o),
(598,237,cs),
(598,389,o),
(483,459,o),
(358,459,cs),
(311,459,o),
(278,449,o),
(246,434,c),
(252,540,l),
(567,540,l),
(567,700,l),
(99,700,l),
(79,345,l)
);
}
);
width = 635;
},
{
layerId = "DB4FB8A3-CCB4-4756-A88C-1F7F91E8FFEA";
shapes = (
{
closed = 1;
nodes = (
(146,339,l),
(178,352,o),
(210,360,o),
(246,360,cs),
(340,360,o),
(412,303,o),
(412,221,cs),
(412,136,o),
(353,77,o),
(255,77,cs),
(189,77,o),
(133,106,o),
(83,154,c),
(23,85,l),
(89,24,o),
(155,-13,o),
(256,-13,cs),
(411,-13,o),
(514,81,o),
(514,225,cs),
(514,363,o),
(405,447,o),
(273,447,cs),
(234,447,o),
(203,438,o),
(165,426,c),
(185,615,l),
(484,615,l),
(490,704,l),
(102,704,l),
(72,375,l)
);
}
);
width = 574;
},
{
layerId = "2D64E6AB-4944-48EA-A6F4-9D71FBB0136F";
shapes = (
{
closed = 1;
nodes = (
(136,350,l),
(168,362,o),
(199,369,o),
(234,369,cs),
(335,369,o),
(412,306,o),
(412,218,cs),
(412,126,o),
(349,62,o),
(245,62,cs),
(178,62,o),
(121,91,o),
(72,139,c),
(23,83,l),
(87,23,o),
(149,-13,o),
(245,-13,cs),
(397,-13,o),
(497,81,o),
(497,222,cs),
(497,358,o),
(389,444,o),
(256,444,cs),
(219,444,o),
(188,436,o),
(149,424,c),
(171,630,l),
(467,630,l),
(474,705,l),
(103,705,l),
(71,381,l)
);
}
);
width = 562;
}
);
unicode = 53;
},
{
color = 5;
glyphname = six;
layers = (
{
layerId = "4E03E7F0-ECBD-4EC7-A096-1B73C4225036";
shapes = (
{
closed = 1;
nodes = (
(292,706,l),
(164,515,ls),
(63,363,o),
(34,297,o),
(34,222,cs),
(34,84,o),
(148,-14,o),
(333,-14,cs),
(493,-14,o),
(615,83,o),
(615,240,cs),
(615,380,o),
(537,458,o),
(414,458,cs),
(345,458,o),
(320,441,o),
(285,414,c),
(495,706,l)
);
},
{
closed = 1;
nodes = (
(230,280,o),
(266,319,o),
(327,319,cs),
(388,319,o),
(426,280,o),
(426,229,cs),
(426,177,o),
(390,137,o),
(329,137,cs),
(268,137,o),
(230,179,o),
(230,230,cs)
);
}
);
width = 649;
},
{
layerId = "DB4FB8A3-CCB4-4756-A88C-1F7F91E8FFEA";
shapes = (
{
closed = 1;
nodes = (
(313,706,l),
(149,458,ls),
(80,354,o),
(47,295,o),
(47,224,cs),
(47,77,o),
(158,-14,o),
(302,-14,cs),
(443,-14,o),
(551,82,o),
(551,219,cs),
(551,352,o),
(455,433,o),
(332,433,cs),
(287,433,o),
(257,429,o),
(219,402,c),
(426,706,l)
);
},
{
closed = 1;
nodes = (
(151,290,o),
(210,353,o),
(300,353,cs),
(388,353,o),
(448,295,o),
(448,216,cs),
(448,131,o),
(388,71,o),
(301,71,cs),
(216,71,o),
(151,134,o),
(151,213,cs)
);
}
);
width = 600;
},
{
layerId = "2D64E6AB-4944-48EA-A6F4-9D71FBB0136F";
shapes = (
{
closed = 1;
nodes = (
(317,706,l),
(146,447,ls),
(83,352,o),
(49,295,o),
(49,224,cs),
(49,75,o),
(160,-14,o),
(296,-14,cs),
(433,-14,o),
(538,82,o),
(538,215,cs),
(538,346,o),
(438,428,o),
(315,428,cs),
(275,428,o),
(244,426,o),
(206,399,c),
(412,706,l)
);
},
{
closed = 1;
nodes = (
(135,292,o),
(199,360,o),
(295,360,cs),
(388,360,o),
(452,298,o),
(452,213,cs),
(452,122,o),
(387,58,o),
(295,58,cs),
(206,58,o),
(135,125,o),
(135,209,cs)
);
}
);
width = 590;
}
);
unicode = 54;
},
{
color = 5;
glyphname = seven;
layers = (
{
layerId = "4E03E7F0-ECBD-4EC7-A096-1B73C4225036";
shapes = (
{
closed = 1;
nodes = (
(568,554,l),
(568,700,l),
(29,700,l),
(29,537,l),
(353,537,l),
(45,0,l),
(259,0,l)
);
}
);
width = 558;
},
{
layerId = "DB4FB8A3-CCB4-4756-A88C-1F7F91E8FFEA";
shapes = (
{
closed = 1;
nodes = (
(526,617,l),
(526,704,l),
(37,704,l),
(37,615,l),
(416,615,l),
(78,0,l),
(191,0,l)
);
}
);
width = 521;
},
{
layerId = "2D64E6AB-4944-48EA-A6F4-9D71FBB0136F";
shapes = (
{
closed = 1;
nodes = (
(517,629,l),
(517,705,l),
(38,705,l),
(38,630,l),
(428,630,l),
(84,0,l),
(177,0,l)
);
}
);
width = 513;
}
);
unicode = 55;
},
{
color = 5;
glyphname = eight;
layers = (
{
layerId = "4E03E7F0-ECBD-4EC7-A096-1B73C4225036";
shapes = (
{
closed = 1;
nodes = (
(593,628,o),
(486,712,o),
(329,712,cs),
(172,712,o),
(65,628,o),
(65,516,cs),
(65,440,o),
(106,394,o),
(161,363,c),
(85,331,o),
(41,274,o),
(41,195,cs),
(41,72,o),
(161,-12,o),
(329,-12,cs),
(497,-12,o),
(617,71,o),
(617,196,cs),
(617,272,o),
(569,330,o),
(497,363,c),
(552,394,o),
(593,440,o),
(593,516,cs)
);
},
{
closed = 1;
nodes = (
(243,534,o),
(276,567,o),
(329,567,cs),
(382,567,o),
(415,533,o),
(415,493,cs),
(415,453,o),
(381,416,o),
(329,416,cs),
(277,416,o),
(243,454,o),
(243,494,cs)
);
},
{
closed = 1;
nodes = (
(228,259,o),
(270,290,o),
(329,290,cs),
(388,290,o),
(430,259,o),
(430,214,cs),
(430,172,o),
(394,133,o),
(329,133,cs),
(264,133,o),
(228,172,o),
(228,214,cs)
);
}
);
width = 658;
},
{
layerId = "DB4FB8A3-CCB4-4756-A88C-1F7F91E8FFEA";
shapes = (
{
closed = 1;
nodes = (
(550,638,o),
(445,717,o),
(321,717,cs),
(195,717,o),
(93,638,o),
(93,529,cs),
(93,456,o),
(133,401,o),
(201,369,c),
(116,333,o),
(67,274,o),
(67,191,cs),
(67,75,o),
(176,-12,o),
(321,-12,cs),
(465,-12,o),
(575,69,o),
(575,193,cs),
(575,275,o),
(525,335,o),
(440,368,c),
(506,402,o),
(550,453,o),
(550,526,cs)
);
},
{
closed = 1;
nodes = (
(192,585,o),
(248,633,o),
(321,633,cs),
(395,633,o),
(451,585,o),
(451,521,cs),
(451,453,o),
(394,405,o),
(321,405,cs),
(250,405,o),
(192,454,o),
(192,520,cs)
);
},
{
closed = 1;
nodes = (
(170,272,o),
(233,324,o),
(321,324,cs),
(409,324,o),
(473,272,o),
(473,199,cs),
(473,129,o),
(412,72,o),
(321,72,cs),
(228,72,o),
(170,129,o),
(170,199,cs)
);
}
);
width = 642;
},
{
layerId = "2D64E6AB-4944-48EA-A6F4-9D71FBB0136F";
shapes = (
{
closed = 1;
nodes = (
(541,640,o),
(437,718,o),
(319,718,cs),
(199,718,o),
(99,640,o),
(99,531,cs),
(99,459,o),
(138,402,o),
(209,370,c),
(122,333,o),
(72,274,o),
(72,190,cs),
(72,75,o),
(179,-12,o),
(319,-12,cs),
(459,-12,o),
(567,69,o),
(567,192,cs),
(567,275,o),
(516,336,o),
(429,369,c),
(497,404,o),
(541,455,o),
(541,528,cs)
);
},
{
closed = 1;
nodes = (
(182,595,o),
(242,646,o),
(319,646,cs),
(397,646,o),
(458,595,o),
(458,526,cs),
(458,453,o),
(396,403,o),
(319,403,cs),
(244,403,o),
(182,454,o),
(182,525,cs)
);
},
{
closed = 1;
nodes = (
(158,274,o),
(226,331,o),
(319,331,cs),
(413,331,o),
(481,275,o),
(481,196,cs),
(481,120,o),
(415,60,o),
(319,60,cs),
(221,60,o),
(158,120,o),
(158,196,cs)
);
}
);
width = 639;
}
);
unicode = 56;
},
{
color = 5;
glyphname = nine;
layers = (
{
layerId = "4E03E7F0-ECBD-4EC7-A096-1B73C4225036";
shapes = (
{
closed = 1;
nodes = (
(357,0,l),
(535,277,ls),
(599,378,o),
(615,433,o),
(615,484,cs),
(615,622,o),
(503,720,o),
(312,720,cs),
(159,720,o),
(34,624,o),
(34,468,cs),
(34,328,o),
(112,248,o),
(235,248,cs),
(295,248,o),
(327,264,o),
(364,292,c),
(154,0,l)
);
},
{
closed = 1;
nodes = (
(419,427,o),
(383,387,o),
(322,387,cs),
(261,387,o),
(223,429,o),
(223,479,cs),
(223,530,o),
(259,569,o),
(320,569,cs),
(381,569,o),
(419,529,o),
(419,478,cs)
);
}
);
width = 649;
},
{
layerId = "DB4FB8A3-CCB4-4756-A88C-1F7F91E8FFEA";
shapes = (
{
closed = 1;
nodes = (
(284,-2,l),
(455,253,ls),
(506,327,o),
(550,398,o),
(550,480,cs),
(550,626,o),
(442,720,o),
(294,720,cs),
(155,720,o),
(47,622,o),
(47,486,cs),
(47,356,o),
(145,268,o),
(268,268,cs),
(313,268,o),
(341,277,o),
(377,304,c),
(172,-2,l)
);
},
{
closed = 1;
nodes = (
(446,415,o),
(384,352,o),
(297,352,cs),
(210,352,o),
(150,412,o),
(150,492,cs),
(150,571,o),
(209,634,o),
(296,634,cs),
(379,634,o),
(446,571,o),
(446,492,cs)
);
}
);
width = 597;
},
{
layerId = "2D64E6AB-4944-48EA-A6F4-9D71FBB0136F";
shapes = (
{
closed = 1;
nodes = (
(269,-2,l),
(439,248,ls),
(487,317,o),
(537,391,o),
(537,479,cs),
(537,627,o),
(430,720,o),
(290,720,cs),
(154,720,o),
(49,621,o),
(49,490,cs),
(49,361,o),
(152,272,o),
(275,272,cs),
(316,272,o),
(344,279,o),
(380,306,c),
(176,-2,l)
);
},
{
closed = 1;
nodes = (
(451,413,o),
(384,345,o),
(292,345,cs),
(200,345,o),
(135,408,o),
(135,494,cs),
(135,579,o),
(199,647,o),
(291,647,cs),
(379,647,o),
(451,579,o),
(451,495,cs)
);
}
);
width = 586;
}
);
unicode = 57;
},
{
color = 5;
glyphname = colon;
layers = (
{
layerId = "4E03E7F0-ECBD-4EC7-A096-1B73C4225036";
shapes = (
{
closed = 1;
nodes = (
(62,25,o),
(111,-13,o),
(174,-13,cs),
(238,-13,o),
(287,25,o),
(287,97,cs),
(287,169,o),
(238,206,o),
(174,206,cs),
(111,206,o),
(62,169,o),
(62,97,cs)
);
},
{
closed = 1;
nodes = (
(62,371,o),
(111,333,o),
(174,333,cs),
(238,333,o),
(287,371,o),
(287,443,cs),
(287,515,o),
(238,552,o),
(174,552,cs),
(111,552,o),
(62,515,o),
(62,443,cs)
);
}
);
width = 350;
},
{
layerId = "DB4FB8A3-CCB4-4756-A88C-1F7F91E8FFEA";
shapes = (
{
closed = 1;
nodes = (
(81,19,o),
(109,-11,o),
(151,-11,cs),
(187,-11,o),
(219,19,o),
(219,59,cs),
(219,98,o),
(187,127,o),
(151,127,cs),
(109,127,o),
(81,98,o),
(81,59,cs)
);
},
{
closed = 1;
nodes = (
(81,392,o),
(109,364,o),
(151,364,cs),
(187,364,o),
(219,392,o),
(219,433,cs),
(219,473,o),
(187,501,o),
(151,501,cs),
(109,501,o),
(81,473,o),
(81,433,cs)
);
}
);
width = 301;
},
{
layerId = "2D64E6AB-4944-48EA-A6F4-9D71FBB0136F";
shapes = (
{
closed = 1;
nodes = (
(85,18,o),
(109,-10,o),
(146,-10,cs),
(177,-10,o),
(205,18,o),
(205,51,cs),
(205,84,o),
(177,111,o),
(146,111,cs),
(109,111,o),
(85,84,o),
(85,51,cs)
);
},
{
closed = 1;
nodes = (
(85,396,o),
(109,370,o),
(146,370,cs),
(177,370,o),
(205,396,o),
(205,431,cs),
(205,464,o),
(177,491,o),
(146,491,cs),
(109,491,o),
(85,464,o),
(85,431,cs)
);
}
);
width = 291;
}
);
unicode = 58;
},
{
color = 5;
glyphname = semicolon;
layers = (
{
layerId = "4E03E7F0-ECBD-4EC7-A096-1B73C4225036";
shapes = (
{
closed = 1;
nodes = (
(31,371,o),
(80,333,o),
(143,333,cs),
(207,333,o),
(256,371,o),
(256,443,cs),
(256,515,o),
(207,552,o),
(143,552,cs),
(80,552,o),
(31,515,o),
(31,443,cs)
);
},
{
closed = 1;
nodes = (
(240,197,l),
(69,197,l),
(7,-164,l),
(137,-164,l)
);
}
);
width = 297;
},
{
layerId = "DB4FB8A3-CCB4-4756-A88C-1F7F91E8FFEA";
shapes = (
{
closed = 1;
nodes = (
(58,392,o),
(87,364,o),
(127,364,cs),
(164,364,o),
(196,392,o),
(196,433,cs),
(196,473,o),
(164,501,o),
(127,501,cs),
(87,501,o),
(58,473,o),
(58,433,cs)
);
},
{
closed = 1;
nodes = (
(189,133,l),
(77,133,l),
(30,-143,l),
(110,-143,l)
);
}
);
width = 261;
},
{
layerId = "2D64E6AB-4944-48EA-A6F4-9D71FBB0136F";
shapes = (
{
closed = 1;
nodes = (
(63,396,o),
(88,370,o),
(124,370,cs),
(155,370,o),
(184,396,o),
(184,431,cs),
(184,464,o),
(155,491,o),
(124,491,cs),
(88,491,o),
(63,464,o),
(63,431,cs)
);
},
{
closed = 1;
nodes = (
(179,120,l),
(78,120,l),
(35,-139,l),
(105,-139,l)
);
}
);
width = 254;
}
);
unicode = 59;
},
{
color = 5;
glyphname = less;
layers = (
{
layerId = "4E03E7F0-ECBD-4EC7-A096-1B73C4225036";
shapes = (
{
closed = 1;
nodes = (
(582,638,l),
(85,440,l),
(85,263,l),
(582,65,l),
(582,243,l),
(255,352,l),
(582,461,l)
);
}
);
width = 666;
},
{
layerId = "DB4FB8A3-CCB4-4756-A88C-1F7F91E8FFEA";
shapes = (
{
closed = 1;
nodes = (
(544,611,l),
(63,388,l),
(63,300,l),
(544,77,l),
(544,172,l),
(167,345,l),
(544,515,l)
);
}
);
width = 606;
},
{
layerId = "2D64E6AB-4944-48EA-A6F4-9D71FBB0136F";
shapes = (
{
closed = 1;
nodes = (
(536,606,l),
(58,378,l),
(58,307,l),
(536,79,l),
(536,158,l),
(149,343,l),
(536,526,l)
);
}
);
width = 594;
}
);
unicode = 60;
},
{
color = 5;
glyphname = equal;
layers = (
{
layerId = "4E03E7F0-ECBD-4EC7-A096-1B73C4225036";
shapes = (
{
closed = 1;
nodes = (
(81,570,l),
(81,403,l),
(572,403,l),
(572,570,l)
);
},
{
closed = 1;
nodes = (
(81,301,l),
(81,134,l),
(572,134,l),
(572,301,l)
);
}
);
width = 653;
},
{
layerId = "DB4FB8A3-CCB4-4756-A88C-1F7F91E8FFEA";
shapes = (
{
closed = 1;
nodes = (
(53,523,l),
(53,432,l),
(530,432,l),
(530,523,l)
);
},
{
closed = 1;
nodes = (
(53,276,l),
(53,186,l),
(530,186,l),
(530,276,l)
);
}
);
width = 582;
},
{
layerId = "2D64E6AB-4944-48EA-A6F4-9D71FBB0136F";
shapes = (
{
closed = 1;
nodes = (
(47,513,l),
(47,438,l),
(521,438,l),
(521,513,l)
);
},
{
closed = 1;
nodes = (
(47,271,l),
(47,196,l),
(521,196,l),
(521,271,l)
);
}
);
width = 568;
}
);
unicode = 61;
},
{
color = 5;
glyphname = greater;
layers = (
{
layerId = "4E03E7F0-ECBD-4EC7-A096-1B73C4225036";
shapes = (
{
closed = 1;
nodes = (
(85,460,l),
(412,351,l),
(85,242,l),
(85,65,l),
(582,263,l),
(582,440,l),
(85,638,l)
);
}
);
width = 667;
},
{
layerId = "DB4FB8A3-CCB4-4756-A88C-1F7F91E8FFEA";
shapes = (
{
closed = 1;
nodes = (
(63,514,l),
(439,344,l),
(63,174,l),
(63,78,l),
(543,299,l),
(543,389,l),
(63,611,l)
);
}
);
width = 605;
},
{
layerId = "2D64E6AB-4944-48EA-A6F4-9D71FBB0136F";
shapes = (
{
closed = 1;
nodes = (
(58,525,l),
(444,342,l),
(58,160,l),
(58,80,l),
(535,306,l),
(535,379,l),
(58,606,l)
);
}
);
width = 593;
}
);
unicode = 62;
},
{
color = 5;
glyphname = question;
layers = (
{
layerId = "4E03E7F0-ECBD-4EC7-A096-1B73C4225036";
shapes = (
{
closed = 1;
nodes = (
(254,547,o),
(296,531,o),
(296,494,cs),
(296,465,o),
(270,437,o),
(243,417,c),
(200,382,o),
(156,342,o),
(156,261,cs),
(156,218,l),
(330,218,l),
(330,249,ls),
(330,287,o),
(341,298,o),
(374,325,c),
(440,375,o),
(487,416,o),
(487,506,cs),
(487,637,o),
(374,709,o),
(251,709,cs),
(167,709,o),
(89,680,o),
(37,613,c),
(37,455,l),
(78,493,o),
(143,547,o),
(216,547,cs)
);
},
{
closed = 1;
nodes = (
(143,20,o),
(190,-13,o),
(250,-13,cs),
(310,-13,o),
(358,20,o),
(358,84,cs),
(358,148,o),
(310,180,o),
(250,180,cs),
(190,180,o),
(143,148,o),
(143,84,cs)
);
}
);
width = 524;
},
{
layerId = "DB4FB8A3-CCB4-4756-A88C-1F7F91E8FFEA";
shapes = (
{
closed = 1;
nodes = (
(268,625,o),
(304,582,o),
(304,536,cs),
(304,491,o),
(273,460,o),
(237,427,cs),
(193,386,o),
(144,339,o),
(144,254,cs),
(144,195,l),
(242,195,l),
(242,227,ls),
(242,292,o),
(263,323,o),
(311,366,cs),
(364,412,o),
(405,465,o),
(405,544,cs),
(405,648,o),
(328,716,o),
(218,716,cs),
(147,716,o),
(86,688,o),
(51,643,c),
(51,536,l),
(98,600,o),
(152,625,o),
(204,625,cs)
);
},
{
closed = 1;
nodes = (
(131,15,o),
(162,-10,o),
(198,-10,cs),
(236,-10,o),
(267,15,o),
(267,56,cs),
(267,92,o),
(236,121,o),
(198,121,cs),
(162,121,o),
(131,92,o),
(131,56,cs)
);
}
);
width = 456;
},
{
layerId = "2D64E6AB-4944-48EA-A6F4-9D71FBB0136F";
shapes = (
{
closed = 1;
nodes = (
(271,641,o),
(306,592,o),
(306,544,cs),
(306,496,o),
(273,464,o),
(236,429,cs),
(191,387,o),
(142,338,o),
(142,252,cs),
(142,190,l),
(224,190,l),
(224,222,ls),
(224,293,o),
(247,328,o),
(298,374,cs),
(349,419,o),
(388,475,o),
(388,551,cs),
(388,650,o),
(319,717,o),
(211,717,cs),
(143,717,o),
(85,689,o),
(54,649,c),
(54,552,l),
(102,621,o),
(154,641,o),
(201,641,cs)
);
},
{
closed = 1;
nodes = (
(128,14,o),
(156,-9,o),
(188,-9,cs),
(221,-9,o),
(249,14,o),
(249,50,cs),
(249,81,o),
(221,109,o),
(188,109,cs),
(156,109,o),
(128,81,o),
(128,50,cs)
);
}
);
width = 442;
}
);
unicode = 63;
},
{
color = 5;
glyphname = at;
layers = (
{
layerId = "4E03E7F0-ECBD-4EC7-A096-1B73C4225036";
shapes = (
{
closed = 1;
nodes = (
(513,385,o),
(543,356,o),
(543,309,cs),
(543,245,o),
(500,194,o),
(447,194,cs),
(404,194,o),
(374,221,o),
(374,272,cs),
(374,335,o),
(417,385,o),
(470,385,cs)
);
},
{
closed = 1;
nodes = (
(728,-55,l),
(652,-99,o),
(579,-112,o),
(483,-112,cs),
(245,-112,o),
(89,52,o),
(89,275,cs),
(89,496,o),
(248,667,o),
(480,667,cs),
(708,667,o),
(859,517,o),
(859,325,cs),
(859,192,o),
(816,122,o),
(751,122,cs),
(696,122,o),
(682,174,o),
(690,225,c),
(736,483,l),
(581,507,l),
(569,446,l),
(542,487,o),
(500,520,o),
(435,520,cs),
(316,520,o),
(214,403,o),
(214,260,cs),
(214,138,o),
(293,59,o),
(397,59,cs),
(460,59,o),
(505,89,o),
(544,133,c),
(568,92,o),
(614,57,o),
(698,57,cs),
(807,57,o),
(911,144,o),
(911,325,cs),
(911,537,o),
(728,714,o),
(480,714,cs),
(228,714,o),
(37,516,o),
(37,275,cs),
(37,32,o),
(225,-162,o),
(483,-162,cs),
(587,-162,o),
(671,-134,o),
(748,-87,c)
);
}
);
width = 948;
},
{
layerId = "DB4FB8A3-CCB4-4756-A88C-1F7F91E8FFEA";
shapes = (
{
closed = 1;
nodes = (
(521,445,o),
(560,399,o),
(560,334,cs),
(560,254,o),
(500,178,o),
(424,178,cs),
(362,178,o),
(323,226,o),
(323,295,cs),
(323,377,o),
(382,445,o),
(458,445,cs)
);
},
{
closed = 1;
nodes = (
(721,13,l),
(645,-36,o),
(572,-60,o),
(479,-60,cs),
(249,-60,o),
(101,98,o),
(101,305,cs),
(101,513,o),
(255,673,o),
(464,673,cs),
(666,673,o),
(814,529,o),
(814,343,cs),
(814,227,o),
(761,152,o),
(698,152,cs),
(655,152,o),
(635,188,o),
(637,237,c),
(675,501,l),
(591,510,l),
(581,446,l),
(555,490,o),
(516,523,o),
(448,523,cs),
(330,523,o),
(232,417,o),
(232,290,cs),
(232,179,o),
(307,102,o),
(408,102,cs),
(475,102,o),
(523,137,o),
(557,184,c),
(577,130,o),
(612,100,o),
(676,100,cs),
(780,100,o),
(864,191,o),
(864,352,cs),
(864,556,o),
(687,718,o),
(465,718,cs),
(230,718,o),
(49,534,o),
(49,303,cs),
(49,74,o),
(225,-105,o),
(471,-105,cs),
(575,-105,o),
(664,-75,o),
(745,-21,c)
);
}
);
width = 913;
},
{
layerId = "2D64E6AB-4944-48EA-A6F4-9D71FBB0136F";
shapes = (
{
closed = 1;
nodes = (
(523,457,o),
(563,407,o),
(563,339,cs),
(563,256,o),
(500,175,o),
(419,175,cs),
(354,175,o),
(313,227,o),
(313,299,cs),
(313,385,o),
(375,457,o),
(455,457,cs)
);
},
{
closed = 1;
nodes = (
(720,26,l),
(643,-23,o),
(570,-49,o),
(478,-49,cs),
(250,-49,o),
(103,107,o),
(103,311,cs),
(103,516,o),
(256,674,o),
(461,674,cs),
(657,674,o),
(805,531,o),
(805,346,cs),
(805,234,o),
(750,158,o),
(687,158,cs),
(647,158,o),
(626,191,o),
(626,239,c),
(663,505,l),
(593,511,l),
(583,446,l),
(558,490,o),
(519,524,o),
(451,524,cs),
(333,524,o),
(235,420,o),
(235,296,cs),
(235,187,o),
(310,111,o),
(410,111,cs),
(478,111,o),
(527,147,o),
(560,194,c),
(579,138,o),
(611,109,o),
(671,109,cs),
(774,109,o),
(854,200,o),
(854,357,cs),
(854,560,o),
(679,719,o),
(462,719,cs),
(230,719,o),
(51,537,o),
(51,309,cs),
(51,82,o),
(225,-93,o),
(469,-93,cs),
(573,-93,o),
(663,-63,o),
(744,-8,c)
);
}
);
width = 906;
}
);
unicode = 64;
},
{
color = 5;
glyphname = A;
layers = (
{
layerId = "4E03E7F0-ECBD-4EC7-A096-1B73C4225036";
shapes = (
{
closed = 1;
nodes = (
(516,125,l),
(567,0,l),
(775,0,l),
(477,705,l),
(290,705,l),
(-8,0,l),
(196,0,l),
(246,125,l)
);
},
{
closed = 1;
nodes = (
(382,475,l),
(460,276,l),
(303,276,l)
);
}
);
width = 767;
},
{
layerId = "DB4FB8A3-CCB4-4756-A88C-1F7F91E8FFEA";
shapes = (
{
closed = 1;
nodes = (
(507,185,l),
(585,0,l),
(698,0,l),
(390,705,l),
(301,705,l),
(-6,0,l),
(104,0,l),
(184,185,l)
);
},
{
closed = 1;
nodes = (
(345,584,l),
(471,273,l),
(220,273,l)
);
}
);
width = 692;
},
{
layerId = "2D64E6AB-4944-48EA-A6F4-9D71FBB0136F";
shapes = (
{
closed = 1;
nodes = (
(505,197,l),
(589,0,l),
(682,0,l),
(373,705,l),
(303,705,l),
(-5,0,l),
(86,0,l),
(171,197,l)
);
},
{
closed = 1;
nodes = (
(338,606,l),
(473,272,l),
(203,272,l)
);
}
);
width = 677;
}
);
unicode = 65;
},
{
color = 5;
glyphname = B;
layers = (
{
layerId = "4E03E7F0-ECBD-4EC7-A096-1B73C4225036";
shapes = (
{
closed = 1;
nodes = (
(58,0,l),
(417,0,ls),
(586,0,o),
(684,75,o),
(684,195,cs),
(684,289,o),
(630,340,o),
(545,366,c),
(608,393,o),
(653,443,o),
(653,524,cs),
(653,635,o),
(562,700,o),
(415,700,cs),
(58,700,l)
);
},
{
closed = 1;
nodes = (
(247,544,l),
(372,544,ls),
(429,544,o),
(459,523,o),
(459,484,cs),
(459,443,o),
(427,421,o),
(368,421,cs),
(247,421,l)
);
},
{
closed = 1;
nodes = (
(247,285,l),
(394,285,ls),
(458,285,o),
(490,260,o),
(490,222,cs),
(490,181,o),
(455,156,o),
(396,156,cs),
(247,156,l)
);
}
);
width = 718;
},
{
layerId = "DB4FB8A3-CCB4-4756-A88C-1F7F91E8FFEA";
shapes = (
{
closed = 1;
nodes = (
(76,0,l),
(327,0,ls),
(524,0,o),
(607,87,o),
(607,194,cs),
(607,281,o),
(557,348,o),
(445,366,c),
(512,391,o),
(548,451,o),
(548,527,cs),
(548,656,o),
(431,704,o),
(303,704,cs),
(76,704,l)
);
},
{
closed = 1;
nodes = (
(178,617,l),
(305,617,ls),
(391,617,o),
(446,583,o),
(446,510,cs),
(446,447,o),
(401,400,o),
(304,400,cs),
(178,400,l)
);
},
{
closed = 1;
nodes = (
(178,316,l),
(307,316,ls),
(451,316,o),
(504,275,o),
(504,202,cs),
(504,129,o),
(452,88,o),
(335,88,cs),
(178,88,l)
);
}
);
width = 651;
},
{
layerId = "2D64E6AB-4944-48EA-A6F4-9D71FBB0136F";
shapes = (
{
closed = 1;
nodes = (
(80,0,l),
(309,0,ls),
(512,0,o),
(591,89,o),
(591,194,cs),
(591,279,o),
(542,350,o),
(425,366,c),
(493,391,o),
(527,452,o),
(527,527,cs),
(527,660,o),
(405,705,o),
(281,705,cs),
(80,705,l)
);
},
{
closed = 1;
nodes = (
(164,631,l),
(291,631,ls),
(383,631,o),
(443,595,o),
(443,515,cs),
(443,448,o),
(396,396,o),
(291,396,cs),
(164,396,l)
);
},
{
closed = 1;
nodes = (
(164,322,l),
(290,322,ls),
(450,322,o),
(507,278,o),
(507,198,cs),
(507,118,o),
(451,74,o),
(323,74,cs),
(164,74,l)
);
}
);
width = 637;
}
);
unicode = 66;
},
{
color = 5;
glyphname = C;
layers = (
{
layerId = "4E03E7F0-ECBD-4EC7-A096-1B73C4225036";
shapes = (
{
closed = 1;
nodes = (
(622,248,l),
(561,192,o),
(498,163,o),
(424,163,cs),
(305,163,o),
(237,245,o),
(237,352,cs),
(237,454,o),
(306,537,o),
(424,537,cs),
(503,537,o),
(572,502,o),
(617,455,c),
(617,652,l),
(562,691,o),
(494,714,o),
(406,714,cs),
(194,714,o),
(37,554,o),
(37,350,cs),
(37,141,o),
(198,-14,o),
(398,-14,cs),
(486,-14,o),
(557,9,o),
(622,54,c)
);
}
);
width = 665;
},
{
layerId = "DB4FB8A3-CCB4-4756-A88C-1F7F91E8FFEA";
shapes = (
{
closed = 1;
nodes = (
(643,187,l),
(577,129,o),
(510,80,o),
(412,80,cs),
(259,80,o),
(155,201,o),
(155,352,cs),
(155,502,o),
(259,625,o),
(412,625,cs),
(516,625,o),
(580,587,o),
(630,532,c),
(630,645,l),
(574,688,o),
(507,718,o),
(414,718,cs),
(203,718,o),
(49,557,o),
(49,351,cs),
(49,144,o),
(206,-14,o),
(410,-14,cs),
(508,-14,o),
(579,21,o),
(643,74,c)
);
}
);
width = 699;
},
{
layerId = "2D64E6AB-4944-48EA-A6F4-9D71FBB0136F";
shapes = (
{
closed = 1;
nodes = (
(647,175,l),
(580,116,o),
(512,63,o),
(410,63,cs),
(250,63,o),
(138,192,o),
(138,352,cs),
(138,512,o),
(250,643,o),
(410,643,cs),
(519,643,o),
(582,604,o),
(633,547,c),
(633,643,l),
(576,687,o),
(510,719,o),
(415,719,cs),
(205,719,o),
(51,558,o),
(51,351,cs),
(51,144,o),
(207,-14,o),
(412,-14,cs),
(512,-14,o),
(583,23,o),
(647,78,c)
);
}
);
width = 706;
}
);
unicode = 67;
},
{
color = 5;
glyphname = D;
layers = (
{
layerId = "4E03E7F0-ECBD-4EC7-A096-1B73C4225036";
shapes = (
{
closed = 1;
nodes = (
(58,0,l),
(324,0,ls),
(576,0,o),
(723,152,o),
(723,354,cs),
(723,557,o),
(579,700,o),
(328,700,cs),
(58,700,l)
);
},
{
closed = 1;
nodes = (
(252,528,l),
(331,528,ls),
(446,528,o),
(524,463,o),
(524,351,cs),
(524,238,o),
(447,172,o),
(331,172,cs),
(252,172,l)
);
}
);
width = 761;
},
{
layerId = "DB4FB8A3-CCB4-4756-A88C-1F7F91E8FFEA";
shapes = (
{
closed = 1;
nodes = (
(76,0,l),
(304,0,ls),
(535,0,o),
(685,147,o),
(685,353,cs),
(685,565,o),
(526,704,o),
(306,704,cs),
(76,704,l)
);
},
{
closed = 1;
nodes = (
(180,611,l),
(342,611,ls),
(493,611,o),
(577,479,o),
(577,351,cs),
(577,199,o),
(478,92,o),
(302,92,cs),
(180,92,l)
);
}
);
width = 734;
},
{
layerId = "2D64E6AB-4944-48EA-A6F4-9D71FBB0136F";
shapes = (
{
closed = 1;
nodes = (
(80,0,l),
(300,0,ls),
(527,0,o),
(677,146,o),
(677,353,cs),
(677,566,o),
(515,705,o),
(301,705,cs),
(80,705,l)
);
},
{
closed = 1;
nodes = (
(165,628,l),
(344,628,ls),
(502,628,o),
(587,482,o),
(587,351,cs),
(587,191,o),
(484,76,o),
(296,76,cs),
(165,76,l)
);
}
);
width = 729;
}
);
unicode = 68;
},
{
color = 5;
glyphname = E;
layers = (
{
layerId = "4E03E7F0-ECBD-4EC7-A096-1B73C4225036";
shapes = (
{
closed = 1;
nodes = (
(250,276,l),
(586,276,l),
(586,429,l),
(250,429,l),
(250,535,l),
(621,535,l),
(621,700,l),
(58,700,l),
(58,0,l),
(626,0,l),
(626,165,l),
(250,165,l)
);
}
);
width = 675;
},
{
layerId = "DB4FB8A3-CCB4-4756-A88C-1F7F91E8FFEA";
shapes = (
{
closed = 1;
nodes = (
(180,314,l),
(524,314,l),
(524,402,l),
(180,402,l),
(180,613,l),
(554,613,l),
(554,704,l),
(76,704,l),
(76,0,l),
(564,0,l),
(564,91,l),
(180,91,l)
);
}
);
width = 628;
},
{
layerId = "2D64E6AB-4944-48EA-A6F4-9D71FBB0136F";
shapes = (
{
closed = 1;
nodes = (
(166,321,l),
(511,321,l),
(511,397,l),
(166,397,l),
(166,629,l),
(540,629,l),
(540,705,l),
(80,705,l),
(80,0,l),
(551,0,l),
(551,76,l),
(166,76,l)
);
}
);
width = 618;
}
);
unicode = 69;
},
{
color = 5;
glyphname = F;
layers = (
{
layerId = "4E03E7F0-ECBD-4EC7-A096-1B73C4225036";
shapes = (
{
closed = 1;
nodes = (
(252,250,l),
(583,250,l),
(583,411,l),
(252,411,l),
(252,530,l),
(618,530,l),
(618,700,l),
(58,700,l),
(58,0,l),
(252,0,l)
);
}
);
width = 659;
},
{
layerId = "DB4FB8A3-CCB4-4756-A88C-1F7F91E8FFEA";
shapes = (
{
closed = 1;
nodes = (
(180,303,l),
(519,303,l),
(519,393,l),
(180,393,l),
(180,613,l),
(551,613,l),
(551,704,l),
(76,704,l),
(76,-2,l),
(180,-2,l)
);
}
);
width = 601;
},
{
layerId = "2D64E6AB-4944-48EA-A6F4-9D71FBB0136F";
shapes = (
{
closed = 1;
nodes = (
(165,313,l),
(506,313,l),
(506,389,l),
(165,389,l),
(165,629,l),
(537,629,l),
(537,705,l),
(80,705,l),
(80,-2,l),
(165,-2,l)
);
}
);
width = 589;
}
);
unicode = 70;
},
{
color = 5;
glyphname = G;
layers = (
{
layerId = "4E03E7F0-ECBD-4EC7-A096-1B73C4225036";
shapes = (
{
closed = 1;
nodes = (
(538,267,l),
(538,183,o),
(462,153,o),
(408,153,cs),
(314,153,o),
(236,234,o),
(236,349,cs),
(236,456,o),
(314,541,o),
(425,541,cs),
(490,541,o),
(553,518,o),
(604,475,c),
(604,680,l),
(555,701,o),
(482,714,o),
(414,714,cs),
(197,714,o),
(37,554,o),
(37,350,cs),
(37,138,o),
(200,-14,o),
(398,-14,cs),
(553,-14,o),
(722,68,o),
(722,369,cs),
(722,409,l),
(400,409,l),
(400,267,l)
);
}
);
width = 759;
},
{
layerId = "DB4FB8A3-CCB4-4756-A88C-1F7F91E8FFEA";
shapes = (
{
closed = 1;
nodes = (
(673,312,l),
(673,168,o),
(561,77,o),
(422,77,cs),
(269,77,o),
(153,195,o),
(153,352,cs),
(153,501,o),
(282,626,o),
(437,626,cs),
(528,626,o),
(602,590,o),
(653,540,c),
(653,653,l),
(585,699,o),
(507,718,o),
(430,718,cs),
(218,718,o),
(49,557,o),
(49,352,cs),
(49,147,o),
(205,-16,o),
(416,-16,cs),
(648,-16,o),
(770,147,o),
(770,372,cs),
(770,401,l),
(474,401,l),
(474,312,l)
);
}
);
width = 819;
},
{
layerId = "2D64E6AB-4944-48EA-A6F4-9D71FBB0136F";
shapes = (
{
closed = 1;
nodes = (
(700,321,l),
(700,165,o),
(581,62,o),
(425,62,cs),
(260,62,o),
(136,187,o),
(136,352,cs),
(136,510,o),
(276,643,o),
(439,643,cs),
(536,643,o),
(612,604,o),
(663,553,c),
(663,647,l),
(591,699,o),
(512,719,o),
(433,719,cs),
(222,719,o),
(51,557,o),
(51,352,cs),
(51,149,o),
(206,-16,o),
(419,-16,cs),
(667,-16,o),
(780,163,o),
(780,373,cs),
(780,399,l),
(489,399,l),
(489,321,l)
);
}
);
width = 831;
}
);
unicode = 71;
},
{
color = 5;
glyphname = H;
layers = (
{
layerId = "4E03E7F0-ECBD-4EC7-A096-1B73C4225036";
shapes = (
{
closed = 1;
nodes = (
(58,0,l),
(252,0,l),
(252,266,l),
(501,266,l),
(501,0,l),
(695,0,l),
(695,700,l),
(501,700,l),
(501,438,l),
(252,438,l),
(252,700,l),
(58,700,l)
);
}
);
width = 754;
},
{
layerId = "DB4FB8A3-CCB4-4756-A88C-1F7F91E8FFEA";
shapes = (
{
closed = 1;
nodes = (
(76,0,l),
(179,0,l),
(179,311,l),
(539,311,l),
(539,0,l),
(641,0,l),
(641,705,l),
(539,705,l),
(539,405,l),
(179,405,l),
(179,705,l),
(76,705,l)
);
}
);
width = 717;
},
{
layerId = "2D64E6AB-4944-48EA-A6F4-9D71FBB0136F";
shapes = (
{
closed = 1;
nodes = (
(80,0,l),
(164,0,l),
(164,320,l),
(546,320,l),
(546,0,l),
(630,0,l),
(630,706,l),
(546,706,l),
(546,398,l),
(164,398,l),
(164,706,l),
(80,706,l)
);
}
);
width = 709;
}
);
unicode = 72;
},
{
color = 5;
glyphname = J;
layers = (
{
layerId = "4E03E7F0-ECBD-4EC7-A096-1B73C4225036";
shapes = (
{
closed = 1;
nodes = (
(0,41,l),
(46,9,o),
(97,-12,o),
(154,-12,c),
(321,-12,o),
(422,96,o),
(422,256,c),
(422,700,l),
(229,700,l),
(229,257,ls),
(229,192,o),
(190,159,o),
(139,159,cs),
(82,159,o),
(39,198,o),
(0,235,c)
);
}
);
width = 475;
},
{
layerId = "DB4FB8A3-CCB4-4756-A88C-1F7F91E8FFEA";
shapes = (
{
closed = 1;
nodes = (
(0,25,l),
(34,2,o),
(76,-11,o),
(117,-11,cs),
(243,-11,o),
(317,69,o),
(317,217,cs),
(317,704,l),
(213,704,l),
(213,215,ls),
(213,117,o),
(178,81,o),
(117,81,cs),
(72,81,o),
(36,101,o),
(0,124,c)
);
}
);
width = 386;
},
{
layerId = "2D64E6AB-4944-48EA-A6F4-9D71FBB0136F";
shapes = (
{
closed = 1;
nodes = (
(0,22,l),
(32,1,o),
(72,-11,o),
(110,-11,c),
(227,-11,o),
(296,64,o),
(296,209,c),
(296,705,l),
(210,705,l),
(210,207,ls),
(210,102,o),
(176,65,o),
(112,65,cs),
(70,65,o),
(35,81,o),
(0,102,c)
);
}
);
width = 368;
}
);
unicode = 74;
},
{
color = 5;
glyphname = K;
layers = (
{
layerId = "4E03E7F0-ECBD-4EC7-A096-1B73C4225036";
shapes = (
{
closed = 1;
nodes = (
(252,700,l),
(58,700,l),
(58,0,l),
(252,0,l),
(252,368,l),
(499,0,l),
(732,0,l),
(458,399,l),
(723,700,l),
(493,700,l),
(252,416,l)
);
}
);
width = 724;
},
{
layerId = "DB4FB8A3-CCB4-4756-A88C-1F7F91E8FFEA";
shapes = (
{
closed = 1;
nodes = (
(179,704,l),
(76,704,l),
(76,0,l),
(179,0,l),
(179,336,l),
(466,0,l),
(595,0,l),
(273,379,l),
(570,704,l),
(441,704,l),
(179,410,l)
);
}
);
width = 593;
},
{
layerId = "2D64E6AB-4944-48EA-A6F4-9D71FBB0136F";
shapes = (
{
closed = 1;
nodes = (
(164,705,l),
(80,705,l),
(80,0,l),
(164,0,l),
(164,330,l),
(459,0,l),
(567,0,l),
(236,375,l),
(539,705,l),
(431,705,l),
(164,409,l)
);
}
);
width = 567;
}
);
unicode = 75;
},
{
color = 5;
glyphname = L;
layers = (
{
layerId = "4E03E7F0-ECBD-4EC7-A096-1B73C4225036";
shapes = (
{
closed = 1;
nodes = (
(252,700,l),
(58,700,l),
(58,0,l),
(591,0,l),
(591,170,l),
(252,170,l)
);
}
);
width = 607;
},
{
layerId = "DB4FB8A3-CCB4-4756-A88C-1F7F91E8FFEA";
shapes = (
{
closed = 1;
nodes = (
(180,704,l),
(76,704,l),
(76,0,l),
(524,0,l),
(524,92,l),
(180,92,l)
);
}
);
width = 540;
},
{
layerId = "2D64E6AB-4944-48EA-A6F4-9D71FBB0136F";
shapes = (
{
closed = 1;
nodes = (
(165,705,l),
(80,705,l),
(80,0,l),
(510,0,l),
(510,76,l),
(165,76,l)
);
}
);
width = 526;
}
);
unicode = 76;
},
{
color = 5;
glyphname = M;
layers = (
{
layerId = "4E03E7F0-ECBD-4EC7-A096-1B73C4225036";
shapes = (
{
closed = 1;
nodes = (
(388,128,l),
(569,402,l),
(569,0,l),
(762,0,l),
(762,700,l),
(557,700,l),
(390,429,l),
(223,700,l),
(18,700,l),
(18,0,l),
(208,0,l),
(208,400,l)
);
}
);
width = 780;
},
{
layerId = "DB4FB8A3-CCB4-4756-A88C-1F7F91E8FFEA";
shapes = (
{
closed = 1;
nodes = (
(386,149,l),
(643,538,l),
(643,0,l),
(745,0,l),
(745,700,l),
(643,700,l),
(386,304,l),
(129,700,l),
(26,700,l),
(26,0,l),
(128,0,l),
(128,538,l)
);
}
);
width = 773;
},
{
layerId = "2D64E6AB-4944-48EA-A6F4-9D71FBB0136F";
shapes = (
{
closed = 1;
nodes = (
(385,153,l),
(658,565,l),
(658,0,l),
(742,0,l),
(742,700,l),
(660,700,l),
(385,279,l),
(110,700,l),
(28,700,l),
(28,0,l),
(112,0,l),
(112,565,l)
);
}
);
width = 771;
}
);
unicode = 77;
},
{
color = 5;
glyphname = N;
layers = (
{
layerId = "4E03E7F0-ECBD-4EC7-A096-1B73C4225036";
shapes = (
{
closed = 1;
nodes = (
(239,700,l),
(58,700,l),
(58,0,l),
(250,0,l),
(250,384,l),
(549,0,l),
(719,0,l),
(719,700,l),
(527,700,l),
(527,330,l)
);
}
);
width = 778;
},
{
layerId = "DB4FB8A3-CCB4-4756-A88C-1F7F91E8FFEA";
shapes = (
{
closed = 1;
nodes = (
(177,700,l),
(76,700,l),
(76,0,l),
(177,0,l),
(177,545,l),
(577,0,l),
(675,0,l),
(675,704,l),
(575,704,l),
(575,160,l)
);
}
);
width = 751;
},
{
layerId = "2D64E6AB-4944-48EA-A6F4-9D71FBB0136F";
shapes = (
{
closed = 1;
nodes = (
(165,700,l),
(80,700,l),
(80,0,l),
(162,0,l),
(162,577,l),
(582,0,l),
(666,0,l),
(666,705,l),
(584,705,l),
(584,126,l)
);
}
);
width = 746;
}
);
unicode = 78;
},
{
color = 5;
glyphname = O;
layers = (
{
layerId = "4E03E7F0-ECBD-4EC7-A096-1B73C4225036";
shapes = (
{
closed = 1;
nodes = (
(791,552,o),
(630,714,o),
(414,714,cs),
(198,714,o),
(37,551,o),
(37,350,cs),
(37,149,o),
(197,-14,o),
(413,-14,cs),
(628,-14,o),
(791,151,o),
(791,352,cs)
);
},
{
closed = 1;
nodes = (
(592,250,o),
(521,161,o),
(414,161,cs),
(309,161,o),
(236,251,o),
(236,352,cs),
(236,453,o),
(307,539,o),
(413,539,cs),
(520,539,o),
(592,450,o),
(592,350,cs)
);
}
);
width = 828;
},
{
layerId = "DB4FB8A3-CCB4-4756-A88C-1F7F91E8FFEA";
shapes = (
{
closed = 1;
nodes = (
(784,553,o),
(630,718,o),
(418,718,cs),
(205,718,o),
(49,554,o),
(49,351,cs),
(49,148,o),
(203,-14,o),
(416,-14,cs),
(628,-14,o),
(784,151,o),
(784,354,cs)
);
},
{
closed = 1;
nodes = (
(678,201,o),
(569,79,o),
(417,79,cs),
(262,79,o),
(154,200,o),
(154,354,cs),
(154,504,o),
(262,625,o),
(417,625,cs),
(569,625,o),
(678,502,o),
(678,350,cs)
);
}
);
width = 832;
},
{
layerId = "2D64E6AB-4944-48EA-A6F4-9D71FBB0136F";
shapes = (
{
closed = 1;
nodes = (
(782,553,o),
(630,719,o),
(419,719,cs),
(206,719,o),
(51,555,o),
(51,351,cs),
(51,148,o),
(204,-14,o),
(417,-14,cs),
(628,-14,o),
(782,151,o),
(782,354,cs)
);
},
{
closed = 1;
nodes = (
(695,191,o),
(579,63,o),
(418,63,cs),
(253,63,o),
(138,190,o),
(138,354,cs),
(138,514,o),
(253,642,o),
(418,642,cs),
(579,642,o),
(695,512,o),
(695,350,cs)
);
}
);
width = 833;
}
);
unicode = 79;
},
{
color = 5;
glyphname = P;
layers = (
{
layerId = "4E03E7F0-ECBD-4EC7-A096-1B73C4225036";
shapes = (
{
closed = 1;
nodes = (
(58,0,l),
(252,0,l),
(252,200,l),
(348,200,ls),
(522,200,o),
(649,289,o),
(649,454,cs),
(649,610,o),
(535,700,o),
(358,700,cs),
(58,700,l)
);
},
{
closed = 1;
nodes = (
(252,537,l),
(343,537,ls),
(414,537,o),
(455,505,o),
(455,445,cs),
(455,389,o),
(413,352,o),
(344,352,cs),
(252,352,l)
);
}
);
width = 672;
},
{
layerId = "DB4FB8A3-CCB4-4756-A88C-1F7F91E8FFEA";
shapes = (
{
closed = 1;
nodes = (
(76,-2,l),
(180,-2,l),
(180,266,l),
(308,266,ls),
(457,266,o),
(573,347,o),
(573,490,cs),
(573,625,o),
(470,704,o),
(316,704,cs),
(76,704,l)
);
},
{
closed = 1;
nodes = (
(180,614,l),
(307,614,ls),
(410,614,o),
(469,571,o),
(469,485,cs),
(469,403,o),
(408,355,o),
(306,355,cs),
(180,355,l)
);
}
);
width = 602;
},
{
layerId = "2D64E6AB-4944-48EA-A6F4-9D71FBB0136F";
shapes = (
{
closed = 1;
nodes = (
(80,-2,l),
(166,-2,l),
(166,279,l),
(300,279,ls),
(444,279,o),
(558,358,o),
(558,497,cs),
(558,628,o),
(457,705,o),
(307,705,cs),
(80,705,l)
);
},
{
closed = 1;
nodes = (
(166,629,l),
(300,629,ls),
(409,629,o),
(472,584,o),
(472,493,cs),
(472,406,o),
(407,355,o),
(298,355,cs),
(166,355,l)
);
}
);
width = 588;
}
);
unicode = 80;
},
{
color = 5;
glyphname = Q;
layers = (
{
layerId = "4E03E7F0-ECBD-4EC7-A096-1B73C4225036";
shapes = (
{
closed = 1;
nodes = (
(847,-148,l),
(847,52,l),
(737,163,l),
(776,220,o),
(791,275,o),
(791,350,cs),
(791,553,o),
(630,714,o),
(414,714,cs),
(198,714,o),
(37,551,o),
(37,350,cs),
(37,147,o),
(197,-14,o),
(413,-14,cs),
(497,-14,o),
(590,13,o),
(635,55,c)
);
},
{
closed = 1;
nodes = (
(592,247,o),
(521,161,o),
(414,161,cs),
(309,161,o),
(236,250,o),
(236,350,cs),
(236,453,o),
(307,539,o),
(413,539,cs),
(520,539,o),
(592,450,o),
(592,350,cs)
);
}
);
width = 884;
},
{
layerId = "DB4FB8A3-CCB4-4756-A88C-1F7F91E8FFEA";
shapes = (
{
closed = 1;
nodes = (
(791,-91,l),
(791,34,l),
(695,114,l),
(751,178,o),
(784,258,o),
(784,353,cs),
(784,553,o),
(630,718,o),
(418,718,cs),
(205,718,o),
(49,554,o),
(49,350,cs),
(49,149,o),
(203,-14,o),
(416,-14,cs),
(496,-14,o),
(561,10,o),
(621,46,c)
);
},
{
closed = 1;
nodes = (
(678,200,o),
(569,79,o),
(417,79,cs),
(262,79,o),
(154,200,o),
(154,353,cs),
(154,504,o),
(262,625,o),
(417,625,cs),
(569,625,o),
(678,502,o),
(678,350,cs)
);
}
);
width = 837;
},
{
layerId = "2D64E6AB-4944-48EA-A6F4-9D71FBB0136F";
shapes = (
{
closed = 1;
nodes = (
(780,-79,l),
(780,30,l),
(686,104,l),
(746,169,o),
(782,254,o),
(782,354,cs),
(782,553,o),
(630,719,o),
(419,719,cs),
(206,719,o),
(51,554,o),
(51,350,cs),
(51,149,o),
(204,-14,o),
(417,-14,cs),
(496,-14,o),
(555,9,o),
(618,44,c)
);
},
{
closed = 1;
nodes = (
(695,191,o),
(579,63,o),
(418,63,cs),
(253,63,o),
(138,190,o),
(138,354,cs),
(138,514,o),
(253,642,o),
(418,642,cs),
(579,642,o),
(695,512,o),
(695,350,cs)
);
}
);
width = 828;
}
);
unicode = 81;
},
{
color = 5;
glyphname = R;
layers = (
{
layerId = "4E03E7F0-ECBD-4EC7-A096-1B73C4225036";
shapes = (
{
closed = 1;
nodes = (
(253,0,l),
(253,212,l),
(338,212,l),
(478,0,l),
(702,0,l),
(535,244,l),
(623,281,o),
(679,353,o),
(679,461,cs),
(679,605,o),
(584,700,o),
(389,700,cs),
(58,700,l),
(58,0,l)
);
},
{
closed = 1;
nodes = (
(253,364,l),
(253,532,l),
(379,532,ls),
(444,532,o),
(484,505,o),
(484,449,cs),
(484,398,o),
(446,364,o),
(380,364,cs)
);
}
);
width = 695;
},
{
layerId = "DB4FB8A3-CCB4-4756-A88C-1F7F91E8FFEA";
shapes = (
{
closed = 1;
nodes = (
(181,0,l),
(181,285,l),
(270,285,l),
(476,0,l),
(599,0,l),
(380,294,l),
(492,317,o),
(566,388,o),
(566,496,cs),
(566,620,o),
(467,704,o),
(314,704,cs),
(76,704,l),
(76,0,l)
);
},
{
closed = 1;
nodes = (
(181,367,l),
(181,613,l),
(304,613,ls),
(404,613,o),
(462,575,o),
(462,492,cs),
(462,403,o),
(389,367,o),
(290,367,cs)
);
}
);
width = 604;
},
{
layerId = "2D64E6AB-4944-48EA-A6F4-9D71FBB0136F";
shapes = (
{
closed = 1;
nodes = (
(166,0,l),
(166,299,l),
(256,299,l),
(475,0,l),
(578,0,l),
(349,304,l),
(466,324,o),
(543,395,o),
(543,503,cs),
(543,623,o),
(443,705,o),
(299,705,cs),
(80,705,l),
(80,0,l)
);
},
{
closed = 1;
nodes = (
(166,368,l),
(166,629,l),
(289,629,ls),
(396,629,o),
(457,589,o),
(457,500,cs),
(457,404,o),
(377,368,o),
(272,368,cs)
);
}
);
width = 586;
}
);
unicode = 82;
},
{
color = 5;
glyphname = S;
layers = (
{
layerId = "4E03E7F0-ECBD-4EC7-A096-1B73C4225036";
shapes = (
{
closed = 1;
nodes = (
(230,149,o),
(104,206,o),
(18,278,c),
(18,104,l),
(106,24,o),
(229,-12,o),
(346,-12,cs),
(502,-12,o),
(611,59,o),
(627,181,c),
(651,482,o),
(247,399,o),
(247,506,cs),
(247,530,o),
(273,556,o),
(337,556,cs),
(428,556,o),
(539,503,o),
(610,442,c),
(610,619,l),
(534,680,o),
(442,712,o),
(322,712,cs),
(181,712,o),
(51,640,o),
(51,488,cs),
(51,231,o),
(433,302,o),
(433,197,cs),
(433,152,o),
(376,149,o),
(343,149,cs)
);
}
);
width = 657;
},
{
layerId = "DB4FB8A3-CCB4-4756-A88C-1F7F91E8FFEA";
shapes = (
{
closed = 1;
nodes = (
(194,77,o),
(107,107,o),
(29,183,c),
(29,77,l),
(97,12,o),
(177,-12,o),
(266,-12,cs),
(391,-12,o),
(512,42,o),
(515,179,cs),
(519,415,o),
(151,403,o),
(151,544,cs),
(151,598,o),
(202,629,o),
(276,629,cs),
(336,629,o),
(407,606,o),
(463,539,c),
(463,654,l),
(412,698,o),
(347,717,o),
(273,717,cs),
(155,717,o),
(47,655,o),
(47,543,cs),
(47,320,o),
(411,329,o),
(411,175,cs),
(411,100,o),
(333,77,o),
(271,77,cs)
);
}
);
width = 557;
},
{
layerId = "2D64E6AB-4944-48EA-A6F4-9D71FBB0136F";
shapes = (
{
closed = 1;
nodes = (
(187,63,o),
(108,87,o),
(31,164,c),
(31,71,l),
(95,10,o),
(167,-12,o),
(250,-12,cs),
(369,-12,o),
(492,38,o),
(492,178,cs),
(492,402,o),
(132,404,o),
(132,552,cs),
(132,611,o),
(188,643,o),
(264,643,cs),
(317,643,o),
(381,627,o),
(434,558,c),
(434,661,l),
(387,701,o),
(328,718,o),
(263,718,cs),
(150,718,o),
(46,658,o),
(46,554,cs),
(46,338,o),
(406,334,o),
(406,170,cs),
(406,90,o),
(324,63,o),
(256,63,cs)
);
}
);
width = 537;
}
);
unicode = 83;
},
{
color = 5;
glyphname = T;
layers = (
{
layerId = "4E03E7F0-ECBD-4EC7-A096-1B73C4225036";
shapes = (
{
closed = 1;
nodes = (
(415,530,l),
(625,530,l),
(625,700,l),
(11,700,l),
(11,530,l),
(221,530,l),
(221,0,l),
(415,0,l)
);
}
);
width = 637;
},
{
layerId = "DB4FB8A3-CCB4-4756-A88C-1F7F91E8FFEA";
shapes = (
{
closed = 1;
nodes = (
(321,613,l),
(531,613,l),
(531,704,l),
(9,704,l),
(9,613,l),
(219,613,l),
(219,0,l),
(321,0,l)
);
}
);
width = 540;
},
{
layerId = "2D64E6AB-4944-48EA-A6F4-9D71FBB0136F";
shapes = (
{
closed = 1;
nodes = (
(302,629,l),
(512,629,l),
(512,705,l),
(8,705,l),
(8,629,l),
(218,629,l),
(218,0,l),
(302,0,l)
);
}
);
width = 520;
}
);
unicode = 84;
},
{
color = 5;
glyphname = U;
layers = (
{
layerId = "4E03E7F0-ECBD-4EC7-A096-1B73C4225036";
shapes = (
{
closed = 1;
nodes = (
(575,-13,o),
(704,86,o),
(704,312,cs),
(704,700,l),
(507,700,l),
(507,306,ls),
(507,207,o),
(457,162,o),
(378,162,cs),
(299,162,o),
(249,210,o),
(249,311,cs),
(249,700,l),
(52,700,l),
(52,307,ls),
(52,87,o),
(176,-13,o),
(376,-13,cs)
);
}
);
width = 758;
},
{
layerId = "DB4FB8A3-CCB4-4756-A88C-1F7F91E8FFEA";
shapes = (
{
closed = 1;
nodes = (
(543,-15,o),
(642,98,o),
(642,291,cs),
(642,705,l),
(540,705,l),
(540,289,ls),
(540,148,o),
(473,80,o),
(356,80,cs),
(232,80,o),
(171,159,o),
(171,292,cs),
(171,705,l),
(68,705,l),
(68,288,ls),
(68,102,o),
(169,-15,o),
(356,-15,cs)
);
}
);
width = 711;
},
{
layerId = "2D64E6AB-4944-48EA-A6F4-9D71FBB0136F";
shapes = (
{
closed = 1;
nodes = (
(536,-15,o),
(630,100,o),
(630,287,cs),
(630,706,l),
(546,706,l),
(546,285,ls),
(546,136,o),
(476,63,o),
(351,63,cs),
(219,63,o),
(155,149,o),
(155,288,cs),
(155,706,l),
(71,706,l),
(71,284,ls),
(71,105,o),
(168,-15,o),
(352,-15,cs)
);
}
);
width = 702;
}
);
unicode = 85;
},
{
color = 5;
glyphname = V;
layers = (
{
layerId = "4E03E7F0-ECBD-4EC7-A096-1B73C4225036";
shapes = (
{
closed = 1;
nodes = (
(-8,700,l),
(276,-5,l),
(456,-5,l),
(740,700,l),
(527,700,l),
(368,257,l),
(209,700,l)
);
}
);
width = 733;
},
{
layerId = "DB4FB8A3-CCB4-4756-A88C-1F7F91E8FFEA";
shapes = (
{
closed = 1;
nodes = (
(-5,704,l),
(274,-1,l),
(388,-1,l),
(664,704,l),
(552,704,l),
(332,116,l),
(110,704,l)
);
}
);
width = 661;
},
{
layerId = "2D64E6AB-4944-48EA-A6F4-9D71FBB0136F";
shapes = (
{
closed = 1;
nodes = (
(-4,705,l),
(273,0,l),
(374,0,l),
(649,705,l),
(557,705,l),
(325,88,l),
(90,705,l)
);
}
);
width = 646;
}
);
unicode = 86;
},
{
color = 5;
glyphname = W;
layers = (
{
layerId = "4E03E7F0-ECBD-4EC7-A096-1B73C4225036";
shapes = (
{
closed = 1;
nodes = (
(202,700,l),
(-3,700,l),
(231,-5,l),
(400,-5,l),
(540,398,l),
(681,-5,l),
(850,-5,l),
(1084,700,l),
(883,700,l),
(761,295,l),
(626,702,l),
(459,702,l),
(324,295,l)
);
}
);
width = 1081;
},
{
layerId = "DB4FB8A3-CCB4-4756-A88C-1F7F91E8FFEA";
shapes = (
{
closed = 1;
nodes = (
(113,704,l),
(3,704,l),
(239,-1,l),
(336,-1,l),
(503,551,l),
(676,-1,l),
(771,-1,l),
(1005,704,l),
(898,704,l),
(724,154,l),
(554,705,l),
(458,705,l),
(292,154,l)
);
}
);
width = 1008;
},
{
layerId = "2D64E6AB-4944-48EA-A6F4-9D71FBB0136F";
shapes = (
{
closed = 1;
nodes = (
(95,705,l),
(4,705,l),
(241,0,l),
(323,0,l),
(496,582,l),
(675,0,l),
(755,0,l),
(989,705,l),
(901,705,l),
(717,126,l),
(539,706,l),
(458,706,l),
(285,126,l)
);
}
);
width = 993;
}
);
unicode = 87;
},
{
color = 5;
glyphname = X;
layers = (
{
layerId = "4E03E7F0-ECBD-4EC7-A096-1B73C4225036";
shapes = (
{
closed = 1;
nodes = (
(10,700,l),
(240,356,l),
(0,0,l),
(218,0,l),
(353,211,l),
(487,0,l),
(710,0,l),
(470,358,l),
(700,700,l),
(482,700,l),
(357,503,l),
(233,700,l)
);
}
);
width = 710;
},
{
layerId = "DB4FB8A3-CCB4-4756-A88C-1F7F91E8FFEA";
shapes = (
{
closed = 1;
nodes = (
(20,704,l),
(261,360,l),
(8,0,l),
(127,0,l),
(320,282,l),
(514,0,l),
(632,0,l),
(381,362,l),
(619,704,l),
(503,704,l),
(323,439,l),
(140,704,l)
);
}
);
width = 641;
},
{
layerId = "2D64E6AB-4944-48EA-A6F4-9D71FBB0136F";
shapes = (
{
closed = 1;
nodes = (
(22,705,l),
(265,361,l),
(10,0,l),
(109,0,l),
(313,296,l),
(519,0,l),
(616,0,l),
(363,363,l),
(603,705,l),
(507,705,l),
(316,426,l),
(121,705,l)
);
}
);
width = 627;
}
);
unicode = 88;
},
{
color = 5;
glyphname = Y;
layers = (
{
layerId = "4E03E7F0-ECBD-4EC7-A096-1B73C4225036";
shapes = (
{
closed = 1;
nodes = (
(454,265,l),
(720,700,l),
(503,700,l),
(358,445,l),
(214,700,l),
(-7,700,l),
(259,262,l),
(259,0,l),
(454,0,l)
);
}
);
width = 713;
},
{
layerId = "DB4FB8A3-CCB4-4756-A88C-1F7F91E8FFEA";
shapes = (
{
closed = 1;
nodes = (
(370,278,l),
(639,704,l),
(524,704,l),
(321,373,l),
(117,704,l),
(-3,704,l),
(267,277,l),
(267,0,l),
(370,0,l)
);
}
);
width = 636;
},
{
layerId = "2D64E6AB-4944-48EA-A6F4-9D71FBB0136F";
shapes = (
{
closed = 1;
nodes = (
(353,281,l),
(623,705,l),
(528,705,l),
(314,358,l),
(98,705,l),
(-2,705,l),
(269,280,l),
(269,0,l),
(353,0,l)
);
}
);
width = 621;
}
);
unicode = 89;
},
{
color = 5;
glyphname = Z;
layers = (
{
layerId = "4E03E7F0-ECBD-4EC7-A096-1B73C4225036";
shapes = (
{
closed = 1;
nodes = (
(615,559,l),
(615,700,l),
(8,700,l),
(8,536,l),
(347,536,l),
(-4,141,l),
(-4,0,l),
(615,0,l),
(615,164,l),
(264,164,l)
);
}
);
width = 624;
},
{
layerId = "DB4FB8A3-CCB4-4756-A88C-1F7F91E8FFEA";
shapes = (
{
closed = 1;
nodes = (
(617,620,l),
(617,704,l),
(36,704,l),
(36,614,l),
(486,614,l),
(11,84,l),
(11,0,l),
(599,0,l),
(599,90,l),
(147,90,l)
);
}
);
width = 639;
},
{
layerId = "2D64E6AB-4944-48EA-A6F4-9D71FBB0136F";
shapes = (
{
closed = 1;
nodes = (
(617,632,l),
(617,705,l),
(42,705,l),
(42,630,l),
(514,630,l),
(14,72,l),
(14,0,l),
(596,0,l),
(596,75,l),
(124,75,l)
);
}
);
width = 642;
}
);
unicode = 90;
},
{
color = 5;
glyphname = bracketleft;
layers = (
{
layerId = "4E03E7F0-ECBD-4EC7-A096-1B73C4225036";
shapes = (
{
closed = 1;
nodes = (
(411,700,l),
(65,700,l),
(65,-130,l),
(411,-130,l),
(411,-1,l),
(235,-1,l),
(235,571,l),
(411,571,l)
);
}
);
width = 459;
},
{
layerId = "DB4FB8A3-CCB4-4756-A88C-1F7F91E8FFEA";
shapes = (
{
closed = 1;
nodes = (
(338,722,l),
(80,722,l),
(80,-153,l),
(338,-153,l),
(338,-77,l),
(173,-77,l),
(173,645,l),
(338,645,l)
);
}
);
width = 391;
},
{
layerId = "2D64E6AB-4944-48EA-A6F4-9D71FBB0136F";
shapes = (
{
closed = 1;
nodes = (
(323,726,l),
(83,726,l),
(83,-158,l),
(323,-158,l),
(323,-92,l),
(160,-92,l),
(160,660,l),
(323,660,l)
);
}
);
width = 377;
}
);
unicode = 91;
},
{
color = 5;
glyphname = backslash;
layers = (
{
layerId = "4E03E7F0-ECBD-4EC7-A096-1B73C4225036";
shapes = (
{
closed = 1;
nodes = (
(431,-128,l),
(573,-103,l),
(142,798,l),
(-1,776,l)
);
}
);
width = 572;
},
{
layerId = "DB4FB8A3-CCB4-4756-A88C-1F7F91E8FFEA";
shapes = (
{
closed = 1;
nodes = (
(416,-119,l),
(501,-110,l),
(85,784,l),
(2,774,l)
);
}
);
width = 502;
},
{
layerId = "2D64E6AB-4944-48EA-A6F4-9D71FBB0136F";
shapes = (
{
closed = 1;
nodes = (
(413,-117,l),
(486,-111,l),
(74,781,l),
(2,773,l)
);
}
);
width = 488;
}
);
unicode = 92;
},
{
color = 5;
glyphname = bracketright;
layers = (
{
layerId = "4E03E7F0-ECBD-4EC7-A096-1B73C4225036";
shapes = (
{
closed = 1;
nodes = (
(50,-130,l),
(396,-130,l),
(396,700,l),
(50,700,l),
(50,571,l),
(226,571,l),
(226,-1,l),
(50,-1,l)
);
}
);
width = 460;
},
{
layerId = "DB4FB8A3-CCB4-4756-A88C-1F7F91E8FFEA";
shapes = (
{
closed = 1;
nodes = (
(53,-154,l),
(313,-154,l),
(313,722,l),
(53,722,l),
(53,644,l),
(219,644,l),
(219,-77,l),
(53,-77,l)
);
}
);
width = 393;
},
{
layerId = "2D64E6AB-4944-48EA-A6F4-9D71FBB0136F";
shapes = (
{
closed = 1;
nodes = (
(54,-159,l),
(296,-159,l),
(296,726,l),
(54,726,l),
(54,659,l),
(217,659,l),
(217,-92,l),
(54,-92,l)
);
}
);
width = 380;
}
);
unicode = 93;
},
{
color = 5;
glyphname = asciicircum;
layers = (
{
layerId = "4E03E7F0-ECBD-4EC7-A096-1B73C4225036";
shapes = (
{
closed = 1;
nodes = (
(22,493,l),
(153,493,l),
(229,590,l),
(305,493,l),
(438,493,l),
(294,699,l),
(166,699,l)
);
}
);
width = 459;
},
{
layerId = "DB4FB8A3-CCB4-4756-A88C-1F7F91E8FFEA";
shapes = (
{
closed = 1;
nodes = (
(31,431,l),
(114,431,l),
(244,633,l),
(374,431,l),
(460,431,l),
(285,705,l),
(204,705,l)
);
}
);
width = 491;
},
{
layerId = "2D64E6AB-4944-48EA-A6F4-9D71FBB0136F";
shapes = (
{
closed = 1;
nodes = (
(33,418,l),
(106,418,l),
(247,642,l),
(388,418,l),
(464,418,l),
(283,706,l),
(211,706,l)
);
}
);
width = 497;
}
);
unicode = 94;
},
{
color = 5;
glyphname = underscore;
layers = (
{
layerId = "4E03E7F0-ECBD-4EC7-A096-1B73C4225036";
shapes = (
{
closed = 1;
nodes = (
(0,-160,l),
(604,-160,l),
(604,-44,l),
(0,-44,l)
);
}
);
width = 604;
},
{
layerId = "DB4FB8A3-CCB4-4756-A88C-1F7F91E8FFEA";
shapes = (
{
closed = 1;
nodes = (
(0,-149,l),
(568,-149,l),
(568,-76,l),
(0,-76,l)
);
}
);
width = 568;
},
{
layerId = "2D64E6AB-4944-48EA-A6F4-9D71FBB0136F";
shapes = (
{
closed = 1;
nodes = (
(0,-147,l),
(561,-147,l),
(561,-82,l),
(0,-82,l)
);
}
);
width = 561;
}
);
unicode = 95;
},
{
color = 5;
glyphname = grave;
layers = (
{
layerId = "4E03E7F0-ECBD-4EC7-A096-1B73C4225036";
shapes = (
{
closed = 1;
nodes = (
(131,616,l),
(265,616,l),
(161,801,l),
(-16,744,l)
);
}
);
width = 269;
},
{
layerId = "DB4FB8A3-CCB4-4756-A88C-1F7F91E8FFEA";
shapes = (
{
closed = 1;
nodes = (
(147,616,l),
(222,616,l),
(125,771,l),
(17,745,l)
);
}
);
width = 242;
},
{
layerId = "2D64E6AB-4944-48EA-A6F4-9D71FBB0136F";
shapes = (
{
closed = 1;
nodes = (
(150,616,l),
(213,616,l),
(118,765,l),
(24,745,l)
);
}
);
width = 237;
}
);
unicode = 96;
},
{
color = 5;
glyphname = a;
layers = (
{
layerId = "4E03E7F0-ECBD-4EC7-A096-1B73C4225036";
shapes = (
{
closed = 1;
nodes = (
(373,139,l),
(346,116,o),
(317,107,o),
(286,107,cs),
(247,107,o),
(214,133,o),
(214,170,cs),
(214,206,o),
(246,235,o),
(302,235,cs),
(329,235,o),
(356,229,o),
(373,221,c)
);
},
{
closed = 1;
nodes = (
(558,-12,l),
(558,311,ls),
(558,466,o),
(478,549,o),
(290,549,cs),
(202,549,o),
(139,532,o),
(76,507,c),
(76,373,l),
(136,396,o),
(187,404,o),
(240,404,cs),
(329,404,o),
(373,378,o),
(373,315,cs),
(373,306,l),
(342,317,o),
(293,327,o),
(241,327,cs),
(116,327,o),
(29,269,o),
(29,157,cs),
(29,49,o),
(109,-12,o),
(214,-12,cs),
(285,-12,o),
(335,15,o),
(372,56,c)
);
}
);
width = 611;
},
{
layerId = "DB4FB8A3-CCB4-4756-A88C-1F7F91E8FFEA";
shapes = (
{
closed = 1;
nodes = (
(394,125,l),
(362,88,o),
(318,65,o),
(259,65,cs),
(192,65,o),
(133,97,o),
(133,163,cs),
(133,233,o),
(202,261,o),
(265,261,cs),
(323,261,o),
(364,244,o),
(394,227,c)
);
},
{
closed = 1;
nodes = (
(493,-2,l),
(493,309,ls),
(493,437,o),
(391,502,o),
(263,502,cs),
(185,502,o),
(117,480,o),
(69,460,c),
(69,372,l),
(128,406,o),
(190,419,o),
(252,419,cs),
(337,419,o),
(394,391,o),
(394,318,cs),
(394,300,l),
(353,323,o),
(301,332,o),
(245,332,cs),
(141,332,o),
(34,292,o),
(34,169,cs),
(34,53,o),
(135,-11,o),
(232,-11,cs),
(299,-11,o),
(348,10,o),
(392,50,c)
);
}
);
width = 559;
},
{
layerId = "2D64E6AB-4944-48EA-A6F4-9D71FBB0136F";
shapes = (
{
closed = 1;
nodes = (
(398,122,l),
(365,82,o),
(318,57,o),
(253,57,cs),
(181,57,o),
(117,90,o),
(117,161,cs),
(117,238,o),
(193,266,o),
(258,266,cs),
(322,266,o),
(365,247,o),
(398,228,c)
);
},
{
closed = 1;
nodes = (
(480,0,l),
(480,308,ls),
(480,431,o),
(373,492,o),
(257,492,cs),
(182,492,o),
(112,470,o),
(67,450,c),
(67,372,l),
(126,408,o),
(190,422,o),
(254,422,cs),
(338,422,o),
(398,394,o),
(398,318,cs),
(398,299,l),
(355,324,o),
(303,333,o),
(246,333,cs),
(146,333,o),
(35,296,o),
(35,171,cs),
(35,54,o),
(140,-11,o),
(235,-11,cs),
(302,-11,o),
(351,9,o),
(396,49,c)
);
}
);
width = 548;
}
);
unicode = 97;
},
{
color = 5;
glyphname = b;
layers = (
{
layerId = "4E03E7F0-ECBD-4EC7-A096-1B73C4225036";
shapes = (
{
closed = 1;
nodes = (
(535,-12,o),
(646,95,o),
(646,271,cs),
(646,446,o),
(534,553,o),
(406,553,cs),
(325,553,o),
(279,514,o),
(242,469,c),
(242,730,l),
(52,730,l),
(52,-12,l),
(242,66,l),
(277,25,o),
(324,-12,o),
(407,-12,cs)
);
},
{
closed = 1;
nodes = (
(459,197,o),
(410,147,o),
(348,147,cs),
(287,147,o),
(239,198,o),
(239,270,cs),
(239,343,o),
(287,394,o),
(348,394,cs),
(410,394,o),
(459,343,o),
(459,272,cs)
);
}
);
width = 675;
},
{
layerId = "DB4FB8A3-CCB4-4756-A88C-1F7F91E8FFEA";
shapes = (
{
closed = 1;
nodes = (
(477,-10,o),
(584,92,o),
(584,246,cs),
(584,402,o),
(477,504,o),
(347,504,cs),
(267,504,o),
(207,464,o),
(165,407,c),
(165,732,l),
(65,732,l),
(65,-1,l),
(172,70,l),
(209,24,o),
(266,-10,o),
(345,-10,cs)
);
},
{
closed = 1;
nodes = (
(485,145,o),
(416,74,o),
(323,74,cs),
(235,74,o),
(162,148,o),
(162,246,cs),
(162,346,o),
(235,417,o),
(323,417,cs),
(419,417,o),
(485,342,o),
(485,245,cs)
);
}
);
width = 618;
},
{
layerId = "2D64E6AB-4944-48EA-A6F4-9D71FBB0136F";
shapes = (
{
closed = 1;
nodes = (
(465,-10,o),
(572,91,o),
(572,241,cs),
(572,393,o),
(466,494,o),
(335,494,cs),
(255,494,o),
(192,454,o),
(149,394,c),
(149,732,l),
(67,732,l),
(67,1,l),
(158,71,l),
(195,24,o),
(254,-10,o),
(333,-10,cs)
);
},
{
closed = 1;
nodes = (
(490,134,o),
(417,59,o),
(318,59,cs),
(224,59,o),
(146,138,o),
(146,241,cs),
(146,346,o),
(224,422,o),
(318,422,cs),
(421,422,o),
(490,342,o),
(490,240,cs)
);
}
);
width = 606;
}
);
unicode = 98;
},
{
color = 5;
glyphname = c;
layers = (
{
layerId = "4E03E7F0-ECBD-4EC7-A096-1B73C4225036";
shapes = (
{
closed = 1;
nodes = (
(432,537,l),
(401,548,o),
(357,552,o),
(320,552,cs),
(149,552,o),
(30,422,o),
(30,270,cs),
(30,115,o),
(155,-13,o),
(318,-13,cs),
(358,-13,o),
(404,-6,o),
(437,6,c),
(437,183,l),
(404,156,o),
(369,147,o),
(338,147,cs),
(269,147,o),
(215,201,o),
(215,270,cs),
(215,338,o),
(264,392,o),
(335,392,cs),
(374,392,o),
(403,378,o),
(432,355,c)
);
}
);
width = 473;
},
{
layerId = "DB4FB8A3-CCB4-4756-A88C-1F7F91E8FFEA";
shapes = (
{
closed = 1;
nodes = (
(422,466,l),
(387,491,o),
(336,502,o),
(290,502,cs),
(137,502,o),
(34,386,o),
(34,245,cs),
(34,102,o),
(142,-10,o),
(284,-10,cs),
(341,-10,o),
(389,8,o),
(427,30,c),
(427,135,l),
(392,98,o),
(347,75,o),
(295,75,cs),
(204,75,o),
(134,155,o),
(134,250,cs),
(134,346,o),
(200,418,o),
(292,418,cs),
(342,418,o),
(386,396,o),
(422,358,c)
);
}
);
width = 471;
},
{
layerId = "2D64E6AB-4944-48EA-A6F4-9D71FBB0136F";
shapes = (
{
closed = 1;
nodes = (
(420,452,l),
(384,479,o),
(332,492,o),
(284,492,cs),
(135,492,o),
(35,379,o),
(35,240,cs),
(35,99,o),
(139,-9,o),
(277,-9,cs),
(337,-9,o),
(386,11,o),
(425,35,c),
(425,125,l),
(389,86,o),
(342,60,o),
(286,60,cs),
(191,60,o),
(118,146,o),
(118,246,cs),
(118,347,o),
(187,423,o),
(283,423,cs),
(336,423,o),
(383,399,o),
(420,359,c)
);
}
);
width = 470;
}
);
unicode = 99;
},
{
color = 5;
glyphname = d;
layers = (
{
layerId = "4E03E7F0-ECBD-4EC7-A096-1B73C4225036";
shapes = (
{
closed = 1;
nodes = (
(623,-12,l),
(623,730,l),
(433,730,l),
(433,475,l),
(397,516,o),
(349,553,o),
(268,553,cs),
(140,553,o),
(29,446,o),
(29,270,cs),
(29,95,o),
(141,-12,o),
(269,-12,cs),
(349,-12,o),
(396,27,o),
(433,72,c)
);
},
{
closed = 1;
nodes = (
(216,344,o),
(267,394,o),
(326,394,cs),
(387,394,o),
(436,343,o),
(436,272,cs),
(436,197,o),
(387,147,o),
(326,147,cs),
(267,147,o),
(216,198,o),
(216,270,cs)
);
}
);
width = 675;
},
{
layerId = "DB4FB8A3-CCB4-4756-A88C-1F7F91E8FFEA";
shapes = (
{
closed = 1;
nodes = (
(552,-1,l),
(552,732,l),
(452,732,l),
(452,411,l),
(412,467,o),
(352,504,o),
(271,504,cs),
(143,504,o),
(34,403,o),
(34,246,cs),
(34,89,o),
(143,-10,o),
(273,-10,cs),
(352,-10,o),
(401,25,o),
(444,76,c)
);
},
{
closed = 1;
nodes = (
(134,350,o),
(205,419,o),
(291,419,cs),
(378,419,o),
(455,346,o),
(455,247,cs),
(455,147,o),
(380,75,o),
(291,75,cs),
(202,75,o),
(134,146,o),
(134,247,cs)
);
}
);
width = 618;
},
{
layerId = "2D64E6AB-4944-48EA-A6F4-9D71FBB0136F";
shapes = (
{
closed = 1;
nodes = (
(538,1,l),
(538,732,l),
(456,732,l),
(456,398,l),
(415,457,o),
(352,494,o),
(271,494,cs),
(143,494,o),
(35,394,o),
(35,241,cs),
(35,88,o),
(143,-10,o),
(274,-10,cs),
(353,-10,o),
(402,24,o),
(446,77,c)
);
},
{
closed = 1;
nodes = (
(118,351,o),
(192,424,o),
(284,424,cs),
(376,424,o),
(459,347,o),
(459,242,cs),
(459,137,o),
(379,60,o),
(284,60,cs),
(189,60,o),
(118,135,o),
(118,242,cs)
);
}
);
width = 606;
}
);
unicode = 100;
},
{
color = 5;
glyphname = e;
layers = (
{
layerId = "4E03E7F0-ECBD-4EC7-A096-1B73C4225036";
shapes = (
{
closed = 1;
nodes = (
(279,121,o),
(249,128,o),
(225,148,c),
(580,240,l),
(580,401,o),
(488,548,o),
(312,548,cs),
(148,548,o),
(30,429,o),
(30,269,cs),
(30,104,o),
(145,-17,o),
(312,-17,cs),
(371,-17,o),
(458,-3,o),
(527,42,c),
(527,190,l),
(476,144,o),
(381,121,o),
(315,121,cs)
);
},
{
closed = 1;
nodes = (
(210,275,ls),
(210,334,o),
(232,407,o),
(301,407,cs),
(348,407,o),
(382,375,o),
(394,319,c),
(210,272,l)
);
}
);
width = 609;
},
{
layerId = "DB4FB8A3-CCB4-4756-A88C-1F7F91E8FFEA";
shapes = (
{
closed = 1;
nodes = (
(215,69,o),
(164,111,o),
(141,171,c),
(513,262,l),
(499,392,o),
(418,504,o),
(274,504,cs),
(130,504,o),
(34,390,o),
(34,244,cs),
(34,94,o),
(143,-12,o),
(290,-12,cs),
(359,-12,o),
(422,10,o),
(467,44,c),
(467,142,l),
(428,103,o),
(368,69,o),
(294,69,cs)
);
},
{
closed = 1;
nodes = (
(131,252,l),
(131,337,o),
(180,422,o),
(274,422,cs),
(346,422,o),
(396,377,o),
(412,317,c),
(134,245,l)
);
}
);
width = 546;
},
{
layerId = "2D64E6AB-4944-48EA-A6F4-9D71FBB0136F";
shapes = (
{
closed = 1;
nodes = (
(202,59,o),
(147,107,o),
(124,175,c),
(499,266,l),
(483,390,o),
(404,495,o),
(266,495,cs),
(126,495,o),
(35,382,o),
(35,239,cs),
(35,92,o),
(142,-11,o),
(285,-11,cs),
(356,-11,o),
(415,12,o),
(455,44,c),
(455,132,l),
(418,95,o),
(365,59,o),
(290,59,cs)
);
},
{
closed = 1;
nodes = (
(115,247,l),
(115,338,o),
(169,425,o),
(269,425,cs),
(345,425,o),
(399,377,o),
(416,316,c),
(119,240,l)
);
}
);
width = 533;
}
);
unicode = 101;
},
{
color = 5;
glyphname = f;
layers = (
{
layerId = "4E03E7F0-ECBD-4EC7-A096-1B73C4225036";
shapes = (
{
closed = 1;
nodes = (
(401,722,l),
(370,731,o),
(334,737,o),
(285,737,cs),
(164,737,o),
(90,681,o),
(90,550,cs),
(90,535,l),
(7,389,l),
(90,389,l),
(90,0,l),
(279,0,l),
(279,389,l),
(400,389,l),
(400,535,l),
(246,535,l),
(246,548,ls),
(246,583,o),
(289,599,o),
(324,599,cs),
(347,599,o),
(378,595,o),
(401,588,c)
);
}
);
width = 399;
},
{
layerId = "DB4FB8A3-CCB4-4756-A88C-1F7F91E8FFEA";
shapes = (
{
closed = 1;
nodes = (
(339,725,l),
(320,731,o),
(297,736,o),
(268,736,cs),
(169,736,o),
(107,684,o),
(107,556,cs),
(107,493,l),
(11,409,l),
(107,409,l),
(107,0,l),
(204,0,l),
(204,409,l),
(325,409,l),
(325,491,l),
(199,491,l),
(199,552,ls),
(199,621,o),
(225,657,o),
(283,657,cs),
(301,657,o),
(321,653,o),
(339,646,c)
);
}
);
width = 335;
},
{
layerId = "2D64E6AB-4944-48EA-A6F4-9D71FBB0136F";
shapes = (
{
closed = 1;
nodes = (
(326,726,l),
(310,731,o),
(289,736,o),
(265,736,cs),
(170,736,o),
(110,685,o),
(110,557,cs),
(110,484,l),
(12,413,l),
(110,413,l),
(110,0,l),
(189,0,l),
(189,413,l),
(310,413,l),
(310,482,l),
(189,482,l),
(189,553,ls),
(189,628,o),
(212,668,o),
(275,668,cs),
(292,668,o),
(309,665,o),
(326,658,c)
);
}
);
width = 322;
}
);
unicode = 102;
},
{
color = 5;
glyphname = g;
layers = (
{
layerId = "4E03E7F0-ECBD-4EC7-A096-1B73C4225036";
shapes = (
{
closed = 1;
nodes = (
(222,360,o),
(267,405,o),
(332,405,cs),
(396,405,o),
(442,361,o),
(442,302,cs),
(442,241,o),
(396,196,o),
(332,196,cs),
(267,196,o),
(222,240,o),
(222,299,cs)
);
},
{
closed = 1;
nodes = (
(199,-25,o),
(105,16,o),
(50,50,c),
(50,-100,l),
(129,-140,o),
(192,-162,o),
(288,-162,cs),
(485,-162,o),
(629,-66,o),
(629,131,cs),
(629,541,l),
(439,477,l),
(398,520,o),
(351,553,o),
(275,553,cs),
(144,553,o),
(35,457,o),
(35,301,cs),
(35,145,o),
(143,48,o),
(274,48,cs),
(355,48,o),
(403,85,o),
(442,130,c),
(442,109,ls),
(442,21,o),
(383,-25,o),
(286,-25,cs)
);
}
);
width = 680;
},
{
layerId = "DB4FB8A3-CCB4-4756-A88C-1F7F91E8FFEA";
shapes = (
{
closed = 1;
nodes = (
(140,358,o),
(205,421,o),
(296,421,cs),
(387,421,o),
(458,355,o),
(458,263,cs),
(458,173,o),
(386,107,o),
(297,107,cs),
(206,107,o),
(140,173,o),
(140,265,cs)
);
},
{
closed = 1;
nodes = (
(199,-108,o),
(131,-82,o),
(75,-39,c),
(75,-139,l),
(128,-168,o),
(195,-189,o),
(276,-189,cs),
(441,-189,o),
(557,-101,o),
(557,69,cs),
(557,492,l),
(448,423,l),
(407,471,o),
(354,504,o),
(274,504,cs),
(146,504,o),
(38,407,o),
(38,261,cs),
(38,122,o),
(141,24,o),
(274,24,cs),
(355,24,o),
(412,61,o),
(458,118,c),
(458,64,ls),
(458,-57,o),
(393,-108,o),
(276,-108,cs)
);
}
);
width = 623;
},
{
layerId = "2D64E6AB-4944-48EA-A6F4-9D71FBB0136F";
shapes = (
{
closed = 1;
nodes = (
(123,357,o),
(193,424,o),
(289,424,cs),
(385,424,o),
(461,354,o),
(461,255,cs),
(461,159,o),
(384,89,o),
(290,89,cs),
(194,89,o),
(123,159,o),
(123,258,cs)
);
},
{
closed = 1;
nodes = (
(199,-124,o),
(136,-102,o),
(80,-57,c),
(80,-147,l),
(128,-174,o),
(196,-194,o),
(274,-194,cs),
(432,-194,o),
(542,-108,o),
(542,56,cs),
(542,482,l),
(450,412,l),
(409,461,o),
(354,494,o),
(274,494,cs),
(146,494,o),
(39,397,o),
(39,253,cs),
(39,117,o),
(141,19,o),
(274,19,cs),
(355,19,o),
(414,56,o),
(461,115,c),
(461,55,ls),
(461,-73,o),
(395,-124,o),
(274,-124,cs)
);
}
);
width = 611;
}
);
unicode = 103;
},
{
color = 5;
glyphname = h;
layers = (
{
layerId = "4E03E7F0-ECBD-4EC7-A096-1B73C4225036";
shapes = (
{
closed = 1;
nodes = (
(326,553,o),
(276,512,o),
(241,467,c),
(241,730,l),
(51,730,l),
(51,0,l),
(241,0,l),
(241,293,ls),
(241,352,o),
(278,384,o),
(321,384,cs),
(364,384,o),
(397,353,o),
(397,293,cs),
(397,0,l),
(587,0,l),
(587,354,ls),
(587,477,o),
(511,553,o),
(403,553,cs)
);
}
);
width = 635;
},
{
layerId = "DB4FB8A3-CCB4-4756-A88C-1F7F91E8FFEA";
shapes = (
{
closed = 1;
nodes = (
(251,503,o),
(193,468,o),
(158,425,c),
(158,732,l),
(64,732,l),
(64,0,l),
(164,0,l),
(164,282,ls),
(164,366,o),
(226,407,o),
(294,407,cs),
(363,407,o),
(399,366,o),
(399,282,cs),
(399,0,l),
(499,0,l),
(499,312,ls),
(499,443,o),
(431,503,o),
(325,503,cs)
);
}
);
width = 558;
},
{
layerId = "2D64E6AB-4944-48EA-A6F4-9D71FBB0136F";
shapes = (
{
closed = 1;
nodes = (
(236,493,o),
(176,459,o),
(141,416,c),
(141,732,l),
(67,732,l),
(67,0,l),
(149,0,l),
(149,280,ls),
(149,369,o),
(216,412,o),
(288,412,cs),
(363,412,o),
(399,368,o),
(399,280,cs),
(399,0,l),
(481,0,l),
(481,303,ls),
(481,436,o),
(415,493,o),
(309,493,cs)
);
}
);
width = 542;
}
);
unicode = 104;
},
{
color = 5;
glyphname = i;
layers = (
{
layerId = "4E03E7F0-ECBD-4EC7-A096-1B73C4225036";
shapes = (
{
closed = 1;
nodes = (
(241,541,l),
(51,541,l),
(51,0,l),
(241,0,l)
);
},
{
closed = 1;
nodes = (
(38,620,o),
(85,587,o),
(145,587,cs),
(205,587,o),
(253,620,o),
(253,684,cs),
(253,748,o),
(205,780,o),
(145,780,cs),
(85,780,o),
(38,748,o),
(38,684,cs)
);
}
);
width = 291;
},
{
layerId = "DB4FB8A3-CCB4-4756-A88C-1F7F91E8FFEA";
shapes = (
{
closed = 1;
nodes = (
(169,492,l),
(70,492,l),
(70,0,l),
(169,0,l)
);
},
{
closed = 1;
nodes = (
(51,608,o),
(82,580,o),
(118,580,cs),
(158,580,o),
(187,608,o),
(187,645,cs),
(187,686,o),
(158,712,o),
(118,712,cs),
(82,712,o),
(51,686,o),
(51,645,cs)
);
}
);
width = 239;
},
{
layerId = "2D64E6AB-4944-48EA-A6F4-9D71FBB0136F";
shapes = (
{
closed = 1;
nodes = (
(155,482,l),
(74,482,l),
(74,0,l),
(155,0,l)
);
},
{
closed = 1;
nodes = (
(53,606,o),
(81,578,o),
(113,578,cs),
(148,578,o),
(174,606,o),
(174,637,cs),
(174,673,o),
(148,698,o),
(113,698,cs),
(81,698,o),
(53,673,o),
(53,637,cs)
);
}
);
width = 229;
}
);
unicode = 105;
},
{
color = 5;
glyphname = j;
layers = (
{
layerId = "4E03E7F0-ECBD-4EC7-A096-1B73C4225036";
shapes = (
{
closed = 1;
nodes = (
(38,-156,l),
(61,-160,o),
(85,-163,o),
(116,-163,cs),
(239,-163,o),
(309,-113,o),
(309,24,cs),
(309,541,l),
(119,541,l),
(119,32,ls),
(119,-15,o),
(100,-31,o),
(76,-31,cs),
(64,-31,o),
(53,-28,o),
(38,-23,c)
);
},
{
closed = 1;
nodes = (
(106,620,o),
(153,587,o),
(213,587,cs),
(273,587,o),
(321,620,o),
(321,684,cs),
(321,748,o),
(273,780,o),
(213,780,cs),
(153,780,o),
(106,748,o),
(106,684,cs)
);
}
);
width = 359;
},
{
layerId = "DB4FB8A3-CCB4-4756-A88C-1F7F91E8FFEA";
shapes = (
{
closed = 1;
nodes = (
(51,-182,l),
(67,-186,o),
(83,-189,o),
(105,-189,cs),
(210,-189,o),
(232,-121,o),
(232,-27,cs),
(232,492,l),
(133,492,l),
(133,-46,ls),
(133,-81,o),
(124,-109,o),
(84,-109,cs),
(73,-109,o),
(62,-107,o),
(51,-103,c)
);
},
{
closed = 1;
nodes = (
(111,608,o),
(141,580,o),
(179,580,cs),
(215,580,o),
(247,608,o),
(247,645,cs),
(247,686,o),
(215,712,o),
(179,712,cs),
(141,712,o),
(111,686,o),
(111,645,cs)
);
}
);
width = 299;
},
{
layerId = "2D64E6AB-4944-48EA-A6F4-9D71FBB0136F";
shapes = (
{
closed = 1;
nodes = (
(53,-187,l),
(68,-191,o),
(83,-194,o),
(103,-194,cs),
(204,-194,o),
(217,-122,o),
(217,-37,cs),
(217,482,l),
(136,482,l),
(136,-62,ls),
(136,-94,o),
(129,-125,o),
(86,-125,cs),
(75,-125,o),
(64,-123,o),
(53,-119,c)
);
},
{
closed = 1;
nodes = (
(112,606,o),
(139,578,o),
(172,578,cs),
(203,578,o),
(232,606,o),
(232,637,cs),
(232,673,o),
(203,698,o),
(172,698,cs),
(139,698,o),
(112,673,o),
(112,637,cs)
);
}
);
width = 287;
}
);
unicode = 106;
},
{
color = 5;
glyphname = k;
layers = (
{
layerId = "4E03E7F0-ECBD-4EC7-A096-1B73C4225036";
shapes = (
{
closed = 1;
nodes = (
(241,730,l),
(51,730,l),
(51,0,l),
(241,0,l),
(241,283,l),
(399,0,l),
(608,0,l),
(415,324,l),
(603,541,l),
(388,541,l),
(241,360,l)
);
}
);
width = 608;
},
{
layerId = "DB4FB8A3-CCB4-4756-A88C-1F7F91E8FFEA";
shapes = (
{
closed = 1;
nodes = (
(164,732,l),
(64,732,l),
(64,0,l),
(164,0,l),
(164,227,l),
(355,0,l),
(474,0,l),
(252,266,l),
(466,492,l),
(342,492,l),
(164,294,l)
);
}
);
width = 474;
},
{
layerId = "2D64E6AB-4944-48EA-A6F4-9D71FBB0136F";
shapes = (
{
closed = 1;
nodes = (
(149,732,l),
(67,732,l),
(67,0,l),
(149,0,l),
(149,216,l),
(346,0,l),
(447,0,l),
(219,254,l),
(438,482,l),
(333,482,l),
(149,281,l)
);
}
);
width = 447;
}
);
unicode = 107;
},
{
color = 5;
glyphname = l;
layers = (
{
layerId = "4E03E7F0-ECBD-4EC7-A096-1B73C4225036";
shapes = (
{
closed = 1;
nodes = (
(241,730,l),
(51,730,l),
(51,0,l),
(241,0,l)
);
}
);
width = 293;
},
{
layerId = "DB4FB8A3-CCB4-4756-A88C-1F7F91E8FFEA";
shapes = (
{
closed = 1;
nodes = (
(164,732,l),
(64,732,l),
(64,0,l),
(164,0,l)
);
}
);
width = 230;
},
{
layerId = "2D64E6AB-4944-48EA-A6F4-9D71FBB0136F";
shapes = (
{
closed = 1;
nodes = (
(148,732,l),
(67,732,l),
(67,0,l),
(148,0,l)
);
}
);
width = 217;
}
);
unicode = 108;
},
{
color = 5;
glyphname = m;
layers = (
{
layerId = "4E03E7F0-ECBD-4EC7-A096-1B73C4225036";
shapes = (
{
closed = 1;
nodes = (
(924,0,l),
(924,355,ls),
(924,462,o),
(855,553,o),
(740,553,cs),
(660,553,o),
(605,520,o),
(558,465,c),
(529,525,o),
(468,553,o),
(404,553,cs),
(336,553,o),
(284,520,o),
(241,467,c),
(51,541,l),
(51,0,l),
(241,0,l),
(241,294,ls),
(241,353,o),
(275,384,o),
(318,384,cs),
(361,384,o),
(392,353,o),
(392,294,cs),
(392,0,l),
(582,0,l),
(582,294,ls),
(582,341,o),
(609,384,o),
(660,384,cs),
(703,384,o),
(734,354,o),
(734,294,cs),
(734,0,l)
);
}
);
width = 971;
},
{
layerId = "DB4FB8A3-CCB4-4756-A88C-1F7F91E8FFEA";
shapes = (
{
closed = 1;
nodes = (
(801,0,l),
(801,313,ls),
(801,420,o),
(746,503,o),
(631,503,cs),
(558,503,o),
(497,471,o),
(463,414,c),
(436,477,o),
(380,503,o),
(315,503,cs),
(256,503,o),
(198,480,o),
(162,431,c),
(64,491,l),
(64,0,l),
(164,0,l),
(164,282,ls),
(164,355,o),
(206,415,o),
(280,415,cs),
(354,415,o),
(382,358,o),
(382,282,cs),
(382,0,l),
(482,0,l),
(482,282,ls),
(482,353,o),
(522,415,o),
(598,415,cs),
(662,415,o),
(701,375,o),
(701,282,cs),
(701,0,l)
);
}
);
width = 859;
},
{
layerId = "2D64E6AB-4944-48EA-A6F4-9D71FBB0136F";
shapes = (
{
closed = 1;
nodes = (
(776,0,l),
(776,304,ls),
(776,411,o),
(724,493,o),
(609,493,cs),
(538,493,o),
(475,461,o),
(444,404,c),
(417,467,o),
(362,493,o),
(297,493,cs),
(240,493,o),
(181,472,o),
(146,424,c),
(67,481,l),
(67,0,l),
(149,0,l),
(149,279,ls),
(149,355,o),
(192,421,o),
(272,421,cs),
(353,421,o),
(380,359,o),
(380,279,cs),
(380,0,l),
(462,0,l),
(462,279,ls),
(462,355,o),
(505,421,o),
(586,421,cs),
(654,421,o),
(694,379,o),
(694,279,cs),
(694,0,l)
);
}
);
width = 836;
}
);
unicode = 109;
},
{
color = 5;
glyphname = n;
layers = (
{
layerId = "4E03E7F0-ECBD-4EC7-A096-1B73C4225036";
shapes = (
{
closed = 1;
nodes = (
(326,553,o),
(276,510,o),
(241,465,c),
(51,541,l),
(51,0,l),
(241,0,l),
(241,293,ls),
(241,352,o),
(278,384,o),
(321,384,cs),
(364,384,o),
(397,352,o),
(397,293,cs),
(397,0,l),
(587,0,l),
(587,354,ls),
(587,477,o),
(508,553,o),
(403,553,cs)
);
}
);
width = 635;
},
{
layerId = "DB4FB8A3-CCB4-4756-A88C-1F7F91E8FFEA";
shapes = (
{
closed = 1;
nodes = (
(253,503,o),
(202,472,o),
(166,428,c),
(64,492,l),
(64,0,l),
(164,0,l),
(164,282,ls),
(164,384,o),
(235,415,o),
(288,415,cs),
(342,415,o),
(399,382,o),
(399,282,cs),
(399,0,l),
(499,0,l),
(499,312,ls),
(499,436,o),
(429,503,o),
(323,503,cs)
);
}
);
width = 558;
},
{
layerId = "2D64E6AB-4944-48EA-A6F4-9D71FBB0136F";
shapes = (
{
closed = 1;
nodes = (
(238,493,o),
(187,464,o),
(151,421,c),
(67,482,l),
(67,0,l),
(149,0,l),
(149,280,ls),
(149,390,o),
(226,421,o),
(281,421,cs),
(338,421,o),
(399,388,o),
(399,280,cs),
(399,0,l),
(481,0,l),
(481,303,ls),
(481,428,o),
(413,493,o),
(307,493,cs)
);
}
);
width = 542;
}
);
unicode = 110;
},
{
color = 5;
glyphname = o;
layers = (
{
layerId = "4E03E7F0-ECBD-4EC7-A096-1B73C4225036";
shapes = (
{
closed = 1;
nodes = (
(628,427,o),
(503,553,o),
(330,553,cs),
(157,553,o),
(30,425,o),
(30,270,cs),
(30,115,o),
(155,-13,o),
(328,-13,cs),
(501,-13,o),
(628,118,o),
(628,272,cs)
);
},
{
closed = 1;
nodes = (
(443,205,o),
(399,148,o),
(330,148,cs),
(263,148,o),
(215,205,o),
(215,272,cs),
(215,337,o),
(259,392,o),
(328,392,cs),
(395,392,o),
(443,336,o),
(443,270,cs)
);
}
);
width = 657;
},
{
layerId = "DB4FB8A3-CCB4-4756-A88C-1F7F91E8FFEA";
shapes = (
{
closed = 1;
nodes = (
(564,390,o),
(451,504,o),
(298,504,cs),
(145,504,o),
(34,389,o),
(34,245,cs),
(34,102,o),
(145,-11,o),
(297,-11,cs),
(451,-11,o),
(564,105,o),
(564,247,cs)
);
},
{
closed = 1;
nodes = (
(464,153,o),
(395,74,o),
(298,74,cs),
(205,74,o),
(134,149,o),
(134,247,cs),
(134,342,o),
(199,420,o),
(297,420,cs),
(395,420,o),
(464,341,o),
(464,246,cs)
);
}
);
width = 598;
},
{
layerId = "2D64E6AB-4944-48EA-A6F4-9D71FBB0136F";
shapes = (
{
closed = 1;
nodes = (
(551,383,o),
(441,494,o),
(292,494,cs),
(143,494,o),
(35,382,o),
(35,240,cs),
(35,99,o),
(143,-10,o),
(291,-10,cs),
(441,-10,o),
(551,102,o),
(551,242,cs)
);
},
{
closed = 1;
nodes = (
(468,142,o),
(394,59,o),
(292,59,cs),
(193,59,o),
(118,138,o),
(118,242,cs),
(118,343,o),
(187,425,o),
(291,425,cs),
(395,425,o),
(468,342,o),
(468,241,cs)
);
}
);
width = 586;
}
);
unicode = 111;
},
{
color = 5;
glyphname = p;
layers = (
{
layerId = "4E03E7F0-ECBD-4EC7-A096-1B73C4225036";
shapes = (
{
closed = 1;
nodes = (
(242,66,l),
(277,25,o),
(324,-12,o),
(407,-12,cs),
(535,-12,o),
(646,95,o),
(646,271,cs),
(646,446,o),
(534,553,o),
(406,553,cs),
(325,553,o),
(279,514,o),
(242,469,c),
(52,541,l),
(52,-160,l),
(242,-160,l)
);
},
{
closed = 1;
nodes = (
(459,197,o),
(410,147,o),
(348,147,cs),
(287,147,o),
(239,198,o),
(239,270,cs),
(239,343,o),
(287,394,o),
(348,394,cs),
(410,394,o),
(459,343,o),
(459,272,cs)
);
}
);
width = 675;
},
{
layerId = "DB4FB8A3-CCB4-4756-A88C-1F7F91E8FFEA";
shapes = (
{
closed = 1;
nodes = (
(165,81,l),
(208,24,o),
(267,-10,o),
(347,-10,cs),
(473,-10,o),
(585,91,o),
(585,247,cs),
(585,403,o),
(476,504,o),
(347,504,cs),
(267,504,o),
(217,467,o),
(174,417,c),
(65,492,l),
(65,-183,l),
(165,-183,l)
);
},
{
closed = 1;
nodes = (
(486,142,o),
(415,74,o),
(326,74,cs),
(239,74,o),
(162,148,o),
(162,246,cs),
(162,346,o),
(236,417,o),
(324,417,cs),
(417,417,o),
(486,348,o),
(486,247,cs)
);
}
);
width = 618;
},
{
layerId = "2D64E6AB-4944-48EA-A6F4-9D71FBB0136F";
shapes = (
{
closed = 1;
nodes = (
(150,84,l),
(194,24,o),
(255,-10,o),
(335,-10,cs),
(460,-10,o),
(573,90,o),
(573,242,cs),
(573,394,o),
(464,494,o),
(335,494,cs),
(255,494,o),
(205,458,o),
(160,406,c),
(68,482,l),
(68,-188,l),
(150,-188,l)
);
},
{
closed = 1;
nodes = (
(491,131,o),
(416,59,o),
(322,59,cs),
(229,59,o),
(146,138,o),
(146,241,cs),
(146,346,o),
(226,422,o),
(319,422,cs),
(418,422,o),
(491,349,o),
(491,242,cs)
);
}
);
width = 607;
}
);
unicode = 112;
},
{
color = 5;
glyphname = q;
layers = (
{
layerId = "4E03E7F0-ECBD-4EC7-A096-1B73C4225036";
shapes = (
{
closed = 1;
nodes = (
(623,-160,l),
(623,541,l),
(433,475,l),
(397,516,o),
(349,553,o),
(268,553,cs),
(140,553,o),
(29,446,o),
(29,270,cs),
(29,97,o),
(141,-12,o),
(269,-12,cs),
(349,-12,o),
(396,27,o),
(433,72,c),
(433,-160,l)
);
},
{
closed = 1;
nodes = (
(216,344,o),
(267,394,o),
(326,394,cs),
(387,394,o),
(436,343,o),
(436,272,cs),
(436,200,o),
(387,147,o),
(326,147,cs),
(267,147,o),
(216,200,o),
(216,272,cs)
);
}
);
width = 675;
},
{
layerId = "DB4FB8A3-CCB4-4756-A88C-1F7F91E8FFEA";
shapes = (
{
closed = 1;
nodes = (
(552,-183,l),
(552,492,l),
(444,421,l),
(401,469,o),
(353,504,o),
(273,504,cs),
(142,504,o),
(34,403,o),
(34,246,cs),
(34,94,o),
(141,-11,o),
(273,-11,cs),
(352,-11,o),
(409,27,o),
(452,85,c),
(452,-183,l)
);
},
{
closed = 1;
nodes = (
(134,350,o),
(203,419,o),
(294,419,cs),
(382,419,o),
(457,346,o),
(457,247,cs),
(457,148,o),
(381,74,o),
(294,74,cs),
(204,74,o),
(134,148,o),
(134,248,cs)
);
}
);
width = 618;
},
{
layerId = "2D64E6AB-4944-48EA-A6F4-9D71FBB0136F";
shapes = (
{
closed = 1;
nodes = (
(538,-188,l),
(538,482,l),
(446,410,l),
(402,459,o),
(354,494,o),
(274,494,cs),
(142,494,o),
(35,394,o),
(35,241,cs),
(35,93,o),
(141,-11,o),
(274,-11,cs),
(353,-11,o),
(411,27,o),
(456,87,c),
(456,-188,l)
);
},
{
closed = 1;
nodes = (
(118,351,o),
(190,424,o),
(288,424,cs),
(381,424,o),
(461,347,o),
(461,242,cs),
(461,138,o),
(380,59,o),
(287,59,cs),
(191,59,o),
(118,138,o),
(118,243,cs)
);
}
);
width = 606;
}
);
unicode = 113;
},
{
color = 5;
glyphname = r;
layers = (
{
layerId = "4E03E7F0-ECBD-4EC7-A096-1B73C4225036";
shapes = (
{
closed = 1;
nodes = (
(412,550,l),
(409,550,o),
(406,550,o),
(403,550,cs),
(318,550,o),
(272,504,o),
(241,432,c),
(51,541,l),
(51,0,l),
(241,0,l),
(241,168,ls),
(241,292,o),
(297,350,o),
(396,350,cs),
(403,350,o),
(409,350,o),
(412,350,c)
);
}
);
width = 417;
},
{
layerId = "DB4FB8A3-CCB4-4756-A88C-1F7F91E8FFEA";
shapes = (
{
closed = 1;
nodes = (
(353,497,l),
(342,499,o),
(330,501,o),
(316,501,cs),
(259,501,o),
(202,475,o),
(166,429,c),
(64,492,l),
(64,0,l),
(164,0,l),
(164,254,ls),
(164,364,o),
(244,408,o),
(314,408,cs),
(329,408,o),
(342,406,o),
(353,400,c)
);
}
);
width = 355;
},
{
layerId = "2D64E6AB-4944-48EA-A6F4-9D71FBB0136F";
shapes = (
{
closed = 1;
nodes = (
(341,486,l),
(328,489,o),
(315,491,o),
(299,491,cs),
(247,491,o),
(188,469,o),
(151,428,c),
(67,482,l),
(67,0,l),
(149,0,l),
(149,271,ls),
(149,378,o),
(233,419,o),
(297,419,cs),
(314,419,o),
(328,417,o),
(341,410,c)
);
}
);
width = 343;
}
);
unicode = 114;
},
{
color = 5;
glyphname = s;
layers = (
{
layerId = "4E03E7F0-ECBD-4EC7-A096-1B73C4225036";
shapes = (
{
closed = 1;
nodes = (
(180,121,o),
(95,152,o),
(33,193,c),
(33,38,l),
(108,7,o),
(173,-12,o),
(248,-12,cs),
(380,-12,o),
(469,53,o),
(469,164,cs),
(469,351,o),
(190,321,o),
(190,391,cs),
(190,408,o),
(205,419,o),
(234,419,cs),
(279,419,o),
(368,391,o),
(423,360,c),
(423,513,l),
(362,537,o),
(314,552,o),
(236,552,cs),
(111,552,o),
(18,487,o),
(18,373,cs),
(18,180,o),
(297,213,o),
(297,152,cs),
(297,131,o),
(267,121,o),
(236,121,cs)
);
}
);
width = 500;
},
{
layerId = "DB4FB8A3-CCB4-4756-A88C-1F7F91E8FFEA";
shapes = (
{
closed = 1;
nodes = (
(128,69,o),
(67,105,o),
(21,144,c),
(21,45,l),
(66,17,o),
(118,-10,o),
(194,-10,cs),
(302,-10,o),
(369,56,o),
(369,138,cs),
(369,298,o),
(124,292,o),
(124,376,cs),
(124,401,o),
(148,424,o),
(192,424,cs),
(242,424,o),
(290,396,o),
(332,363,c),
(332,463,l),
(291,491,o),
(242,503,o),
(191,503,cs),
(92,503,o),
(30,454,o),
(30,376,cs),
(30,220,o),
(275,242,o),
(275,135,cs),
(275,89,o),
(235,69,o),
(190,69,cs)
);
}
);
width = 400;
},
{
layerId = "2D64E6AB-4944-48EA-A6F4-9D71FBB0136F";
shapes = (
{
closed = 1;
nodes = (
(118,58,o),
(61,95,o),
(19,134,c),
(19,46,l),
(58,19,o),
(107,-10,o),
(183,-10,cs),
(286,-10,o),
(349,56,o),
(349,133,cs),
(349,287,o),
(111,286,o),
(111,373,cs),
(111,400,o),
(136,425,o),
(184,425,cs),
(234,425,o),
(274,397,o),
(314,363,c),
(314,453,l),
(277,482,o),
(227,493,o),
(182,493,cs),
(88,493,o),
(32,447,o),
(32,376,cs),
(32,228,o),
(270,248,o),
(270,131,cs),
(270,80,o),
(229,58,o),
(181,58,cs)
);
}
);
width = 380;
}
);
unicode = 115;
},
{
color = 5;
glyphname = t;
layers = (
{
layerId = "4E03E7F0-ECBD-4EC7-A096-1B73C4225036";
shapes = (
{
closed = 1;
nodes = (
(114,168,ls),
(114,103,o),
(131,57,o),
(164,30,cs),
(197,3,o),
(241,-11,o),
(296,-11,cs),
(349,-11,o),
(393,1,o),
(428,20,c),
(428,169,l),
(403,158,o),
(381,151,o),
(356,151,cs),
(321,151,o),
(304,166,o),
(304,205,cs),
(304,388,l),
(430,388,l),
(430,541,l),
(304,541,l),
(304,708,l),
(10,388,l),
(114,388,l)
);
}
);
width = 441;
},
{
layerId = "DB4FB8A3-CCB4-4756-A88C-1F7F91E8FFEA";
shapes = (
{
closed = 1;
nodes = (
(113,128,ls),
(113,92,o),
(121,63,o),
(137,41,c),
(158,8,o),
(194,-11,o),
(239,-11,cs),
(263,-11,o),
(283,-7,o),
(301,3,c),
(301,85,l),
(285,77,o),
(270,74,o),
(257,74,cs),
(224,74,o),
(212,99,o),
(212,128,cs),
(212,408,l),
(339,408,l),
(339,492,l),
(212,492,l),
(212,659,l),
(14,408,l),
(113,408,l)
);
}
);
width = 353;
},
{
layerId = "2D64E6AB-4944-48EA-A6F4-9D71FBB0136F";
shapes = (
{
closed = 1;
nodes = (
(113,120,ls),
(113,90,o),
(119,64,o),
(131,43,cs),
(150,9,o),
(184,-11,o),
(227,-11,cs),
(246,-11,o),
(261,-8,o),
(276,-1,c),
(276,68,l),
(261,61,o),
(248,59,o),
(237,59,cs),
(205,59,o),
(193,85,o),
(193,112,cs),
(193,412,l),
(321,412,l),
(321,482,l),
(193,482,l),
(193,649,l),
(15,412,l),
(113,412,l)
);
}
);
width = 335;
}
);
unicode = 116;
},
{
color = 5;
glyphname = u;
layers = (
{
layerId = "4E03E7F0-ECBD-4EC7-A096-1B73C4225036";
shapes = (
{
closed = 1;
nodes = (
(309,-12,o),
(363,21,o),
(394,62,c),
(584,-12,l),
(584,541,l),
(394,541,l),
(394,248,ls),
(394,189,o),
(360,157,o),
(315,157,cs),
(269,157,o),
(238,189,o),
(238,248,cs),
(238,541,l),
(48,541,l),
(48,187,ls),
(48,63,o),
(116,-12,o),
(232,-12,cs)
);
}
);
width = 631;
},
{
layerId = "DB4FB8A3-CCB4-4756-A88C-1F7F91E8FFEA";
shapes = (
{
closed = 1;
nodes = (
(307,-10,o),
(356,19,o),
(392,62,c),
(493,-2,l),
(493,493,l),
(393,493,l),
(393,211,ls),
(393,109,o),
(325,78,o),
(270,78,cs),
(215,78,o),
(159,111,o),
(159,211,cs),
(159,493,l),
(59,493,l),
(59,181,ls),
(59,55,o),
(126,-10,o),
(235,-10,cs)
);
}
);
width = 551;
},
{
layerId = "2D64E6AB-4944-48EA-A6F4-9D71FBB0136F";
shapes = (
{
closed = 1;
nodes = (
(306,-10,o),
(355,19,o),
(391,62,c),
(475,0,l),
(475,483,l),
(393,483,l),
(393,203,ls),
(393,93,o),
(318,62,o),
(261,62,cs),
(204,62,o),
(143,95,o),
(143,203,cs),
(143,483,l),
(61,483,l),
(61,180,ls),
(61,53,o),
(128,-10,o),
(235,-10,cs)
);
}
);
width = 535;
}
);
unicode = 117;
},
{
color = 5;
glyphname = v;
layers = (
{
layerId = "4E03E7F0-ECBD-4EC7-A096-1B73C4225036";
shapes = (
{
closed = 1;
nodes = (
(599,541,l),
(402,541,l),
(298,225,l),
(194,541,l),
(-6,541,l),
(210,-4,l),
(383,-4,l)
);
}
);
width = 595;
},
{
layerId = "DB4FB8A3-CCB4-4756-A88C-1F7F91E8FFEA";
shapes = (
{
closed = 1;
nodes = (
(501,491,l),
(396,491,l),
(250,113,l),
(104,491,l),
(-4,491,l),
(200,-1,l),
(296,-1,l)
);
}
);
width = 497;
},
{
layerId = "2D64E6AB-4944-48EA-A6F4-9D71FBB0136F";
shapes = (
{
closed = 1;
nodes = (
(481,481,l),
(395,481,l),
(240,91,l),
(86,481,l),
(-4,481,l),
(198,0,l),
(279,0,l)
);
}
);
width = 477;
}
);
unicode = 118;
},
{
color = 5;
glyphname = w;
layers = (
{
layerId = "4E03E7F0-ECBD-4EC7-A096-1B73C4225036";
shapes = (
{
closed = 1;
nodes = (
(-11,541,l),
(154,-4,l),
(317,-4,l),
(407,277,l),
(495,-4,l),
(659,-4,l),
(826,541,l),
(643,541,l),
(570,267,l),
(486,543,l),
(329,543,l),
(246,269,l),
(175,541,l)
);
}
);
width = 815;
},
{
layerId = "DB4FB8A3-CCB4-4756-A88C-1F7F91E8FFEA";
shapes = (
{
closed = 1;
nodes = (
(-1,492,l),
(164,-1,l),
(256,-1,l),
(372,375,l),
(489,-1,l),
(584,-1,l),
(749,492,l),
(646,492,l),
(534,128,l),
(423,493,l),
(327,493,l),
(215,127,l),
(101,492,l)
);
}
);
width = 748;
},
{
layerId = "2D64E6AB-4944-48EA-A6F4-9D71FBB0136F";
shapes = (
{
closed = 1;
nodes = (
(1,482,l),
(166,0,l),
(244,0,l),
(365,395,l),
(488,0,l),
(569,0,l),
(733,482,l),
(647,482,l),
(527,100,l),
(410,483,l),
(327,483,l),
(209,99,l),
(86,482,l)
);
}
);
width = 734;
}
);
unicode = 119;
},
{
color = 5;
glyphname = x;
layers = (
{
layerId = "4E03E7F0-ECBD-4EC7-A096-1B73C4225036";
shapes = (
{
closed = 1;
nodes = (
(1,0,l),
(201,0,l),
(286,139,l),
(370,0,l),
(574,0,l),
(392,274,l),
(570,541,l),
(369,541,l),
(289,408,l),
(209,541,l),
(4,541,l),
(183,273,l)
);
}
);
width = 576;
},
{
layerId = "DB4FB8A3-CCB4-4756-A88C-1F7F91E8FFEA";
shapes = (
{
closed = 1;
nodes = (
(6,0,l),
(116,0,l),
(252,183,l),
(388,0,l),
(500,0,l),
(310,255,l),
(488,491,l),
(379,491,l),
(254,324,l),
(130,491,l),
(17,491,l),
(198,253,l)
);
}
);
width = 506;
},
{
layerId = "2D64E6AB-4944-48EA-A6F4-9D71FBB0136F";
shapes = (
{
closed = 1;
nodes = (
(7,0,l),
(99,0,l),
(245,192,l),
(392,0,l),
(485,0,l),
(293,251,l),
(471,481,l),
(381,481,l),
(247,307,l),
(114,481,l),
(20,481,l),
(201,249,l)
);
}
);
width = 492;
}
);
unicode = 120;
},
{
color = 5;
glyphname = y;
layers = (
{
layerId = "4E03E7F0-ECBD-4EC7-A096-1B73C4225036";
shapes = (
{
closed = 1;
nodes = (
(222,-6,l),
(173,-160,l),
(334,-160,l),
(598,541,l),
(403,541,l),
(301,195,l),
(193,541,l),
(-6,541,l)
);
}
);
width = 593;
},
{
layerId = "DB4FB8A3-CCB4-4756-A88C-1F7F91E8FFEA";
shapes = (
{
closed = 1;
nodes = (
(215,-1,l),
(145,-183,l),
(237,-183,l),
(504,491,l),
(400,491,l),
(259,114,l),
(103,491,l),
(-4,491,l)
);
}
);
width = 500;
},
{
layerId = "2D64E6AB-4944-48EA-A6F4-9D71FBB0136F";
shapes = (
{
closed = 1;
nodes = (
(214,0,l),
(139,-188,l),
(217,-188,l),
(485,481,l),
(399,481,l),
(250,98,l),
(85,481,l),
(-4,481,l)
);
}
);
width = 481;
}
);
unicode = 121;
},
{
color = 5;
glyphname = z;
layers = (
{
layerId = "4E03E7F0-ECBD-4EC7-A096-1B73C4225036";
shapes = (
{
closed = 1;
nodes = (
(517,416,l),
(517,541,l),
(24,541,l),
(24,390,l),
(265,390,l),
(15,125,l),
(15,0,l),
(517,0,l),
(517,151,l),
(266,151,l)
);
}
);
width = 536;
},
{
layerId = "DB4FB8A3-CCB4-4756-A88C-1F7F91E8FFEA";
shapes = (
{
closed = 1;
nodes = (
(485,414,l),
(485,492,l),
(32,492,l),
(32,410,l),
(362,410,l),
(13,78,l),
(13,0,l),
(480,0,l),
(480,84,l),
(136,84,l)
);
}
);
width = 509;
},
{
layerId = "2D64E6AB-4944-48EA-A6F4-9D71FBB0136F";
shapes = (
{
closed = 1;
nodes = (
(479,414,l),
(479,482,l),
(33,482,l),
(33,414,l),
(381,414,l),
(12,69,l),
(12,0,l),
(473,0,l),
(473,70,l),
(110,70,l)
);
}
);
width = 504;
}
);
unicode = 122;
},
{
color = 5;
glyphname = braceleft;
layers = (
{
layerId = "4E03E7F0-ECBD-4EC7-A096-1B73C4225036";
shapes = (
{
closed = 1;
nodes = (
(35,224,l),
(107,224,o),
(174,217,o),
(169,126,c),
(161,-81,o),
(225,-114,o),
(430,-141,c),
(430,-24,l),
(315,-5,o),
(335,66,o),
(338,153,cs),
(341,229,o),
(293,268,o),
(226,287,c),
(358,324,o),
(335,397,o),
(335,500,cs),
(335,567,o),
(370,587,o),
(430,598,c),
(430,715,l),
(318,699,o),
(166,677,o),
(166,533,cs),
(166,416,o),
(199,350,o),
(35,350,c)
);
}
);
width = 464;
},
{
layerId = "DB4FB8A3-CCB4-4756-A88C-1F7F91E8FFEA";
shapes = (
{
closed = 1;
nodes = (
(41,247,l),
(166,247,o),
(153,157,o),
(152,64,cs),
(151,-103,o),
(197,-142,o),
(364,-153,c),
(374,-85,l),
(291,-68,o),
(250,-45,o),
(251,45,cs),
(251,152,o),
(264,239,o),
(154,289,c),
(275,342,o),
(250,434,o),
(250,546,cs),
(250,632,o),
(300,647,o),
(374,662,c),
(364,730,l),
(152,718,o),
(154,625,o),
(154,448,cs),
(154,366,o),
(128,329,o),
(41,329,c)
);
}
);
width = 415;
},
{
layerId = "2D64E6AB-4944-48EA-A6F4-9D71FBB0136F";
shapes = (
{
closed = 1;
nodes = (
(42,252,l),
(178,252,o),
(149,145,o),
(149,51,cs),
(149,-107,o),
(191,-147,o),
(351,-155,c),
(363,-97,l),
(286,-81,o),
(233,-67,o),
(233,23,cs),
(233,137,o),
(258,233,o),
(139,289,c),
(258,345,o),
(233,441,o),
(233,555,cs),
(233,645,o),
(286,659,o),
(363,675,c),
(351,733,l),
(119,722,o),
(151,615,o),
(151,431,cs),
(151,356,o),
(114,325,o),
(42,325,c)
);
}
);
width = 405;
}
);
unicode = 123;
},
{
color = 5;
glyphname = bar;
layers = (
{
layerId = "4E03E7F0-ECBD-4EC7-A096-1B73C4225036";
shapes = (
{
closed = 1;
nodes = (
(270,798,l),
(270,-128,l),
(415,-128,l),
(415,798,l)
);
}
);
width = 685;
},
{
layerId = "DB4FB8A3-CCB4-4756-A88C-1F7F91E8FFEA";
shapes = (
{
closed = 1;
nodes = (
(253,772,l),
(253,-161,l),
(338,-161,l),
(338,772,l)
);
}
);
width = 589;
},
{
layerId = "2D64E6AB-4944-48EA-A6F4-9D71FBB0136F";
shapes = (
{
closed = 1;
nodes = (
(249,767,l),
(249,-168,l),
(322,-168,l),
(322,767,l)
);
}
);
width = 570;
}
);
unicode = 124;
},
{
color = 5;
glyphname = braceright;
layers = (
{
layerId = "4E03E7F0-ECBD-4EC7-A096-1B73C4225036";
shapes = (
{
closed = 1;
nodes = (
(430,350,l),
(267,350,o),
(299,417,o),
(299,533,cs),
(299,677,o),
(147,699,o),
(35,715,c),
(35,598,l),
(151,579,o),
(130,509,o),
(127,421,cs),
(124,345,o),
(171,306,o),
(239,287,c),
(172,268,o),
(124,227,o),
(127,153,c),
(132,66,o),
(148,-6,o),
(35,-24,c),
(35,-141,l),
(158,-125,o),
(299,-100,o),
(299,52,cs),
(299,166,o),
(273,224,o),
(430,224,c)
);
}
);
width = 464;
},
{
layerId = "DB4FB8A3-CCB4-4756-A88C-1F7F91E8FFEA";
shapes = (
{
closed = 1;
nodes = (
(374,329,l),
(236,327,o),
(263,432,o),
(263,528,cs),
(263,684,o),
(203,721,o),
(51,730,c),
(41,662,l),
(124,646,o),
(165,622,o),
(165,533,cs),
(164,425,o),
(151,339,o),
(262,289,c),
(151,239,o),
(164,152,o),
(165,45,cs),
(165,-45,o),
(124,-69,o),
(41,-85,c),
(51,-153,l),
(265,-141,o),
(262,-55,o),
(262,131,cs),
(262,213,o),
(288,247,o),
(374,247,c)
);
}
);
width = 415;
},
{
layerId = "2D64E6AB-4944-48EA-A6F4-9D71FBB0136F";
shapes = (
{
closed = 1;
nodes = (
(363,325,l),
(230,322,o),
(256,435,o),
(256,527,cs),
(256,685,o),
(214,725,o),
(54,733,c),
(42,675,l),
(119,659,o),
(172,645,o),
(172,555,cs),
(172,441,o),
(147,345,o),
(266,289,c),
(147,233,o),
(172,137,o),
(172,23,cs),
(172,-67,o),
(119,-81,o),
(42,-97,c),
(54,-155,l),
(286,-144,o),
(254,-46,o),
(254,147,cs),
(254,222,o),
(291,252,o),
(363,252,c)
);
}
);
width = 405;
}
);
unicode = 125;
},
{
color = 5;
glyphname = asciitilde;
layers = (
{
layerId = "4E03E7F0-ECBD-4EC7-A096-1B73C4225036";
shapes = (
{
closed = 1;
nodes = (
(368,401,l),
(355,370,o),
(344,355,o),
(317,355,cs),
(275,355,o),
(225,394,o),
(161,394,cs),
(100,394,o),
(64,360,o),
(41,260,c),
(129,220,l),
(142,251,o),
(152,266,o),
(179,266,cs),
(221,266,o),
(277,227,o),
(336,227,cs),
(389,227,o),
(434,258,o),
(455,357,c)
);
}
);
width = 497;
},
{
layerId = "DB4FB8A3-CCB4-4756-A88C-1F7F91E8FFEA";
shapes = (
{
closed = 1;
nodes = (
(411,374,l),
(394,338,o),
(369,317,o),
(338,317,cs),
(288,317,o),
(243,369,o),
(174,369,cs),
(114,369,o),
(79,331,o),
(51,254,c),
(107,228,l),
(125,265,o),
(145,286,o),
(178,286,cs),
(232,286,o),
(288,234,o),
(349,234,cs),
(403,234,o),
(441,276,o),
(467,349,c)
);
}
);
width = 519;
},
{
layerId = "2D64E6AB-4944-48EA-A6F4-9D71FBB0136F";
shapes = (
{
closed = 1;
nodes = (
(419,369,l),
(402,332,o),
(374,309,o),
(342,309,cs),
(291,309,o),
(247,364,o),
(177,364,cs),
(117,364,o),
(82,325,o),
(53,253,c),
(102,229,l),
(121,268,o),
(143,290,o),
(178,290,cs),
(234,290,o),
(290,235,o),
(351,235,cs),
(406,235,o),
(442,279,o),
(469,347,c)
);
}
);
width = 523;
}
);
unicode = 126;
},
{
color = 5;
glyphname = exclamdown;
layers = (
{
layerId = "4E03E7F0-ECBD-4EC7-A096-1B73C4225036";
shapes = (
{
closed = 1;
nodes = (
(278,-179,l),
(278,-94,l),
(220,293,l),
(120,293,l),
(62,-94,l),
(62,-179,l)
);
},
{
closed = 1;
nodes = (
(278,501,o),
(231,534,o),
(171,534,cs),
(111,534,o),
(63,501,o),
(63,437,cs),
(63,373,o),
(111,341,o),
(171,341,cs),
(231,341,o),
(278,373,o),
(278,437,cs)
);
}
);
width = 341;
},
{
layerId = "DB4FB8A3-CCB4-4756-A88C-1F7F91E8FFEA";
shapes = (
{
closed = 1;
nodes = (
(208,-179,l),
(204,-60,l),
(181,319,l),
(118,319,l),
(95,-60,l),
(90,-179,l)
);
},
{
closed = 1;
nodes = (
(217,511,o),
(185,535,o),
(149,535,cs),
(112,535,o),
(81,511,o),
(81,470,cs),
(81,432,o),
(112,405,o),
(149,405,cs),
(185,405,o),
(217,432,o),
(217,470,cs)
);
}
);
width = 299;
},
{
layerId = "2D64E6AB-4944-48EA-A6F4-9D71FBB0136F";
shapes = (
{
closed = 1;
nodes = (
(194,-179,l),
(189,-53,l),
(173,324,l),
(118,324,l),
(102,-53,l),
(96,-179,l)
);
},
{
closed = 1;
nodes = (
(205,513,o),
(176,535,o),
(145,535,cs),
(112,535,o),
(85,513,o),
(85,477,cs),
(85,444,o),
(112,418,o),
(145,418,cs),
(176,418,o),
(205,444,o),
(205,477,cs)
);
}
);
width = 291;
}
);
unicode = 161;
},
{
color = 5;
glyphname = cent;
layers = (
{
layerId = "4E03E7F0-ECBD-4EC7-A096-1B73C4225036";
shapes = (
{
closed = 1;
nodes = (
(253,238,l),
(217,261,o),
(197,302,o),
(197,355,cs),
(197,428,o),
(237,482,o),
(298,491,c)
);
},
{
closed = 1;
nodes = (
(464,603,l),
(452,610,o),
(440,615,o),
(428,619,c),
(443,706,l),
(328,706,l),
(316,636,l),
(149,636,o),
(32,511,o),
(32,355,cs),
(32,233,o),
(108,129,o),
(219,92,c),
(202,-6,l),
(317,-6,l),
(331,75,l),
(384,78,o),
(429,89,o),
(468,112,c),
(468,278,l),
(441,247,o),
(398,221,o),
(345,221,c),
(393,487,l),
(416,482,o),
(441,466,o),
(464,438,c)
);
}
);
width = 500;
},
{
layerId = "DB4FB8A3-CCB4-4756-A88C-1F7F91E8FFEA";
shapes = (
{
closed = 1;
nodes = (
(230,207,l),
(167,239,o),
(130,290,o),
(130,372,cs),
(130,473,o),
(183,533,o),
(270,540,c)
);
},
{
closed = 1;
nodes = (
(447,574,l),
(415,598,o),
(383,613,o),
(351,619,c),
(360,705,l),
(288,705,l),
(279,626,l),
(133,619,o),
(35,514,o),
(35,368,cs),
(35,253,o),
(108,155,o),
(217,125,c),
(205,29,l),
(278,29,l),
(289,114,l),
(356,115,o),
(407,136,o),
(446,172,c),
(446,270,l),
(408,229,o),
(354,197,o),
(296,197,c),
(336,535,l),
(383,530,o),
(424,504,o),
(447,477,c)
);
}
);
width = 490;
},
{
layerId = "2D64E6AB-4944-48EA-A6F4-9D71FBB0136F";
shapes = (
{
closed = 1;
nodes = (
(225,201,l),
(157,234,o),
(116,288,o),
(116,375,cs),
(116,482,o),
(172,543,o),
(264,550,c)
);
},
{
closed = 1;
nodes = (
(443,568,l),
(408,595,o),
(371,612,o),
(335,619,c),
(343,705,l),
(280,705,l),
(271,624,l),
(130,616,o),
(35,514,o),
(35,371,cs),
(35,257,o),
(108,160,o),
(217,131,c),
(205,36,l),
(270,36,l),
(281,122,l),
(350,122,o),
(402,145,o),
(442,184,c),
(442,268,l),
(401,225,o),
(345,192,o),
(286,192,c),
(325,544,l),
(376,539,o),
(420,512,o),
(443,485,c)
);
}
);
width = 488;
}
);
unicode = 162;
},
{
color = 5;
glyphname = sterling;
layers = (
{
layerId = "4E03E7F0-ECBD-4EC7-A096-1B73C4225036";
shapes = (
{
closed = 1;
nodes = (
(509,399,l),
(293,399,l),
(293,450,ls),
(293,506,o),
(323,539,o),
(373,539,cs),
(405,539,o),
(433,526,o),
(464,494,c),
(593,611,l),
(541,670,o),
(469,712,o),
(360,712,cs),
(195,712,o),
(100,610,o),
(100,450,cs),
(100,399,l),
(25,399,l),
(25,263,l),
(100,263,l),
(100,0,l),
(586,0,l),
(586,153,l),
(293,153,l),
(293,263,l),
(509,263,l)
);
}
);
width = 598;
},
{
layerId = "DB4FB8A3-CCB4-4756-A88C-1F7F91E8FFEA";
shapes = (
{
closed = 1;
nodes = (
(445,377,l),
(201,377,l),
(201,471,ls),
(201,554,o),
(237,623,o),
(328,623,cs),
(393,623,o),
(429,597,o),
(464,554,c),
(532,619,l),
(484,678,o),
(419,716,o),
(328,716,cs),
(180,716,o),
(97,614,o),
(97,472,cs),
(97,377,l),
(29,377,l),
(29,298,l),
(97,298,l),
(97,0,l),
(524,0,l),
(524,86,l),
(201,86,l),
(201,298,l),
(445,298,l)
);
}
);
width = 552;
},
{
layerId = "2D64E6AB-4944-48EA-A6F4-9D71FBB0136F";
shapes = (
{
closed = 1;
nodes = (
(432,373,l),
(182,373,l),
(182,475,ls),
(182,563,o),
(220,640,o),
(319,640,cs),
(390,640,o),
(428,611,o),
(464,566,c),
(520,620,l),
(473,679,o),
(409,717,o),
(321,717,cs),
(177,717,o),
(96,615,o),
(96,476,cs),
(96,373,l),
(30,373,l),
(30,305,l),
(96,305,l),
(96,0,l),
(512,0,l),
(512,73,l),
(182,73,l),
(182,305,l),
(432,305,l)
);
}
);
width = 543;
}
);
unicode = 163;
},
{
color = 5;
glyphname = currency;
layers = (
{
layerId = "4E03E7F0-ECBD-4EC7-A096-1B73C4225036";
shapes = (
{
closed = 1;
nodes = (
(593,639,l),
(502,550,l),
(462,575,o),
(414,589,o),
(361,589,cs),
(305,589,o),
(263,576,o),
(219,549,c),
(125,639,l),
(47,560,l),
(138,469,l),
(109,426,o),
(98,377,o),
(98,329,cs),
(98,277,o),
(113,228,o),
(140,188,c),
(47,94,l),
(125,15,l),
(222,109,l),
(266,82,o),
(310,69,o),
(361,69,cs),
(413,69,o),
(459,84,o),
(500,108,c),
(594,15,l),
(673,94,l),
(582,185,l),
(610,228,o),
(624,274,o),
(624,329,cs),
(624,384,o),
(610,427,o),
(583,470,c),
(673,560,l)
);
},
{
closed = 1;
nodes = (
(444,474,o),
(499,409,o),
(499,329,cs),
(499,249,o),
(444,184,o),
(361,184,cs),
(278,184,o),
(223,249,o),
(223,329,cs),
(223,409,o),
(278,474,o),
(361,474,cs)
);
}
);
width = 719;
},
{
layerId = "DB4FB8A3-CCB4-4756-A88C-1F7F91E8FFEA";
shapes = (
{
closed = 1;
nodes = (
(595,627,l),
(501,534,l),
(459,566,o),
(407,583,o),
(349,583,cs),
(293,583,o),
(241,567,o),
(196,533,c),
(101,627,l),
(47,572,l),
(141,479,l),
(107,431,o),
(94,389,o),
(94,328,cs),
(94,266,o),
(110,219,o),
(143,176,c),
(47,80,l),
(101,25,l),
(199,121,l),
(245,89,o),
(294,73,o),
(349,73,cs),
(405,73,o),
(454,89,o),
(500,120,c),
(596,25,l),
(651,80,l),
(556,173,l),
(588,218,o),
(607,268,o),
(607,328,cs),
(607,388,o),
(589,433,o),
(558,481,c),
(651,572,l)
);
},
{
closed = 1;
nodes = (
(449,502,o),
(517,427,o),
(517,327,cs),
(517,232,o),
(449,155,o),
(349,155,cs),
(249,155,o),
(181,232,o),
(181,328,cs),
(181,424,o),
(249,502,o),
(349,502,cs)
);
}
);
width = 697;
},
{
layerId = "2D64E6AB-4944-48EA-A6F4-9D71FBB0136F";
shapes = (
{
closed = 1;
nodes = (
(595,624,l),
(501,531,l),
(458,564,o),
(406,582,o),
(347,582,cs),
(291,582,o),
(236,565,o),
(191,530,c),
(96,624,l),
(47,574,l),
(141,481,l),
(106,432,o),
(93,391,o),
(93,328,cs),
(93,264,o),
(109,217,o),
(144,174,c),
(47,77,l),
(96,27,l),
(194,123,l),
(241,90,o),
(291,74,o),
(347,74,cs),
(403,74,o),
(453,90,o),
(500,122,c),
(596,27,l),
(646,77,l),
(551,171,l),
(584,216,o),
(603,267,o),
(603,328,cs),
(603,389,o),
(585,434,o),
(553,483,c),
(646,574,l)
);
},
{
closed = 1;
nodes = (
(450,507,o),
(520,431,o),
(520,327,cs),
(520,228,o),
(450,149,o),
(347,149,cs),
(243,149,o),
(173,229,o),
(173,328,cs),
(173,427,o),
(243,507,o),
(347,507,cs)
);
}
);
width = 693;
}
);
unicode = 164;
},
{
color = 5;
glyphname = yen;
layers = (
{
layerId = "4E03E7F0-ECBD-4EC7-A096-1B73C4225036";
shapes = (
{
closed = 1;
nodes = (
(63,213,l),
(63,93,l),
(247,93,l),
(247,0,l),
(439,0,l),
(439,93,l),
(623,93,l),
(623,213,l),
(439,213,l),
(449,263,l),
(623,263,l),
(623,383,l),
(484,383,l),
(693,700,l),
(477,700,l),
(345,470,l),
(213,700,l),
(-7,700,l),
(201,383,l),
(63,383,l),
(63,263,l),
(237,263,l),
(247,213,l)
);
}
);
width = 687;
},
{
layerId = "DB4FB8A3-CCB4-4756-A88C-1F7F91E8FFEA";
shapes = (
{
closed = 1;
nodes = (
(69,213,l),
(69,137,l),
(254,137,l),
(254,0,l),
(353,0,l),
(353,137,l),
(537,137,l),
(537,213,l),
(355,213,l),
(362,296,l),
(537,296,l),
(537,372,l),
(394,372,l),
(607,704,l),
(492,704,l),
(306,388,l),
(118,704,l),
(0,704,l),
(213,372,l),
(69,372,l),
(69,296,l),
(245,296,l),
(255,213,l)
);
}
);
width = 606;
},
{
layerId = "2D64E6AB-4944-48EA-A6F4-9D71FBB0136F";
shapes = (
{
closed = 1;
nodes = (
(70,213,l),
(70,146,l),
(255,146,l),
(255,0,l),
(336,0,l),
(336,146,l),
(520,146,l),
(520,213,l),
(338,213,l),
(344,303,l),
(520,303,l),
(520,370,l),
(376,370,l),
(590,705,l),
(495,705,l),
(298,372,l),
(99,705,l),
(1,705,l),
(215,370,l),
(70,370,l),
(70,303,l),
(246,303,l),
(256,213,l)
);
}
);
width = 590;
}
);
unicode = 165;
},
{
color = 5;
glyphname = brokenbar;
layers = (
{
layerId = "4E03E7F0-ECBD-4EC7-A096-1B73C4225036";
shapes = (
{
closed = 1;
nodes = (
(270,667,l),
(270,321,l),
(437,321,l),
(437,667,l)
);
},
{
closed = 1;
nodes = (
(270,173,l),
(270,-173,l),
(437,-173,l),
(437,173,l)
);
}
);
width = 707;
},
{
layerId = "DB4FB8A3-CCB4-4756-A88C-1F7F91E8FFEA";
shapes = (
{
closed = 1;
nodes = (
(253,679,l),
(253,327,l),
(344,327,l),
(344,679,l)
);
},
{
closed = 1;
nodes = (
(253,173,l),
(253,-174,l),
(344,-174,l),
(344,173,l)
);
}
);
width = 595;
},
{
layerId = "2D64E6AB-4944-48EA-A6F4-9D71FBB0136F";
shapes = (
{
closed = 1;
nodes = (
(249,681,l),
(249,328,l),
(325,328,l),
(325,681,l)
);
},
{
closed = 1;
nodes = (
(249,173,l),
(249,-174,l),
(325,-174,l),
(325,173,l)
);
}
);
width = 573;
}
);
unicode = 166;
},
{
color = 5;
glyphname = section;
layers = (
{
layerId = "4E03E7F0-ECBD-4EC7-A096-1B73C4225036";
shapes = (
{
closed = 1;
nodes = (
(455,681,l),
(408,702,o),
(356,713,o),
(295,713,cs),
(141,713,o),
(64,641,o),
(64,552,cs),
(64,511,o),
(81,474,o),
(112,451,c),
(57,432,o),
(20,394,o),
(20,345,cs),
(20,262,o),
(125,218,o),
(249,194,c),
(317,179,o),
(345,165,o),
(345,146,cs),
(345,127,o),
(330,116,o),
(291,116,cs),
(238,116,o),
(179,139,o),
(128,175,c),
(128,18,l),
(173,-1,o),
(229,-13,o),
(288,-13,cs),
(442,-13,o),
(518,61,o),
(518,149,cs),
(518,190,o),
(500,226,o),
(471,249,c),
(524,268,o),
(562,304,o),
(562,355,cs),
(562,443,o),
(458,477,o),
(334,506,cs),
(263,522,o),
(238,536,o),
(238,554,cs),
(238,573,o),
(254,584,o),
(291,584,cs),
(347,584,o),
(404,561,o),
(455,525,c)
);
},
{
closed = 1;
nodes = (
(416,312,o),
(396,297,o),
(365,297,cs),
(316,297,o),
(166,320,o),
(166,371,cs),
(166,392,o),
(186,403,o),
(217,403,cs),
(268,403,o),
(416,372,o),
(416,332,cs)
);
}
);
width = 594;
},
{
layerId = "DB4FB8A3-CCB4-4756-A88C-1F7F91E8FFEA";
shapes = (
{
closed = 1;
nodes = (
(434,670,l),
(393,701,o),
(338,721,o),
(273,721,cs),
(162,721,o),
(82,663,o),
(82,579,cs),
(82,528,o),
(114,488,o),
(151,462,c),
(75,443,o),
(33,401,o),
(33,336,cs),
(33,267,o),
(86,216,o),
(222,177,cs),
(317,148,o),
(369,116,o),
(369,74,cs),
(369,28,o),
(334,4,o),
(275,4,cs),
(212,4,o),
(152,27,o),
(106,75,c),
(106,-18,l),
(150,-52,o),
(205,-74,o),
(274,-74,cs),
(389,-74,o),
(466,-12,o),
(466,77,cs),
(466,121,o),
(443,158,o),
(399,191,c),
(472,211,o),
(515,249,o),
(515,317,cs),
(515,384,o),
(473,427,o),
(322,476,cs),
(212,512,o),
(180,547,o),
(180,578,cs),
(180,621,o),
(219,642,o),
(278,642,cs),
(338,642,o),
(383,619,o),
(434,578,c)
);
},
{
closed = 1;
nodes = (
(427,258,o),
(392,231,o),
(337,231,c),
(219,247,o),
(121,290,o),
(121,349,cs),
(121,392,o),
(159,415,o),
(214,421,c),
(273,411,o),
(427,368,o),
(427,295,cs)
);
}
);
width = 562;
},
{
layerId = "2D64E6AB-4944-48EA-A6F4-9D71FBB0136F";
shapes = (
{
closed = 1;
nodes = (
(430,668,l),
(390,701,o),
(334,722,o),
(269,722,cs),
(166,722,o),
(86,667,o),
(86,584,cs),
(86,531,o),
(120,491,o),
(159,464,c),
(78,445,o),
(35,402,o),
(35,334,cs),
(35,268,o),
(78,216,o),
(217,173,cs),
(317,142,o),
(374,106,o),
(374,59,cs),
(374,8,o),
(335,-18,o),
(272,-18,cs),
(207,-18,o),
(147,4,o),
(102,55,c),
(102,-25,l),
(145,-62,o),
(200,-86,o),
(271,-86,cs),
(378,-86,o),
(456,-27,o),
(456,62,cs),
(456,107,o),
(432,144,o),
(385,179,c),
(462,199,o),
(506,238,o),
(506,309,cs),
(506,372,o),
(476,417,o),
(319,470,cs),
(202,510,o),
(168,549,o),
(168,583,cs),
(168,631,o),
(212,654,o),
(275,654,cs),
(336,654,o),
(379,631,o),
(430,588,c)
);
},
{
closed = 1;
nodes = (
(429,247,o),
(391,218,o),
(331,218,c),
(200,237,o),
(112,284,o),
(112,345,cs),
(112,392,o),
(153,417,o),
(213,424,c),
(274,413,o),
(429,367,o),
(429,287,cs)
);
}
);
width = 556;
}
);
unicode = 167;
},
{
color = 5;
glyphname = dieresis;
layers = (
{
layerId = "4E03E7F0-ECBD-4EC7-A096-1B73C4225036";
shapes = (
{
closed = 1;
nodes = (
(-4,659,o),
(35,629,o),
(84,629,cs),
(133,629,o),
(172,659,o),
(172,715,cs),
(172,771,o),
(133,800,o),
(84,800,cs),
(35,800,o),
(-4,771,o),
(-4,715,cs)
);
},
{
closed = 1;
nodes = (
(222,659,o),
(261,629,o),
(310,629,cs),
(359,629,o),
(398,659,o),
(398,715,cs),
(398,771,o),
(359,800,o),
(310,800,cs),
(261,800,o),
(222,771,o),
(222,715,cs)
);
}
);
width = 394;
},
{
layerId = "DB4FB8A3-CCB4-4756-A88C-1F7F91E8FFEA";
shapes = (
{
closed = 1;
nodes = (
(24,653,o),
(51,627,o),
(88,627,cs),
(123,627,o),
(153,653,o),
(153,690,cs),
(153,726,o),
(123,753,o),
(88,753,cs),
(51,753,o),
(24,726,o),
(24,690,cs)
);
},
{
closed = 1;
nodes = (
(222,653,o),
(249,627,o),
(284,627,cs),
(322,627,o),
(348,653,o),
(348,690,cs),
(348,726,o),
(322,753,o),
(284,753,cs),
(249,753,o),
(222,726,o),
(222,690,cs)
);
}
);
width = 372;
},
{
layerId = "2D64E6AB-4944-48EA-A6F4-9D71FBB0136F";
shapes = (
{
closed = 1;
nodes = (
(30,652,o),
(54,626,o),
(89,626,cs),
(121,626,o),
(149,652,o),
(149,685,cs),
(149,717,o),
(121,744,o),
(89,744,cs),
(54,744,o),
(30,717,o),
(30,685,cs)
);
},
{
closed = 1;
nodes = (
(222,652,o),
(247,626,o),
(279,626,cs),
(314,626,o),
(338,652,o),
(338,685,cs),
(338,717,o),
(314,744,o),
(279,744,cs),
(247,744,o),
(222,717,o),
(222,685,cs)
);
}
);
width = 368;
}
);
unicode = 168;
},
{
color = 5;
glyphname = copyright;
layers = (
{
layerId = "4E03E7F0-ECBD-4EC7-A096-1B73C4225036";
shapes = (
{
closed = 1;
nodes = (
(588,-14,o),
(747,156,o),
(747,353,cs),
(747,549,o),
(589,714,o),
(386,714,cs),
(182,714,o),
(23,547,o),
(23,351,cs),
(23,153,o),
(181,-14,o),
(384,-14,cs)
);
},
{
closed = 1;
nodes = (
(203,26,o),
(65,173,o),
(65,351,cs),
(65,527,o),
(203,674,o),
(386,674,cs),
(568,674,o),
(705,529,o),
(705,353,cs),
(705,174,o),
(567,26,o),
(384,26,cs)
);
},
{
closed = 1;
nodes = (
(497,304,l),
(476,285,o),
(446,268,o),
(407,268,cs),
(361,268,o),
(320,306,o),
(320,355,cs),
(320,403,o),
(359,441,o),
(410,441,cs),
(445,441,o),
(473,424,o),
(494,405,c),
(494,534,l),
(469,547,o),
(438,554,o),
(405,554,cs),
(284,554,o),
(189,462,o),
(189,355,cs),
(189,247,o),
(285,155,o),
(399,155,cs),
(440,155,o),
(473,167,o),
(497,178,c)
);
}
);
width = 769;
},
{
layerId = "DB4FB8A3-CCB4-4756-A88C-1F7F91E8FFEA";
shapes = (
{
closed = 1;
nodes = (
(635,-32,o),
(806,141,o),
(806,357,cs),
(806,572,o),
(632,747,o),
(420,747,cs),
(209,747,o),
(35,570,o),
(35,360,cs),
(35,143,o),
(204,-32,o),
(421,-32,cs)
);
},
{
closed = 1;
nodes = (
(240,32,o),
(96,179,o),
(96,359,cs),
(96,537,o),
(241,682,o),
(421,682,cs),
(601,682,o),
(745,537,o),
(745,357,cs),
(745,177,o),
(600,32,o),
(421,32,cs)
);
},
{
closed = 1;
nodes = (
(549,266,l),
(506,227,o),
(465,216,o),
(431,216,cs),
(350,216,o),
(298,281,o),
(298,364,cs),
(298,446,o),
(354,509,o),
(429,509,cs),
(474,509,o),
(519,488,o),
(550,458,c),
(550,547,l),
(523,566,o),
(479,587,o),
(423,587,cs),
(294,587,o),
(207,490,o),
(207,364,cs),
(207,236,o),
(296,137,o),
(421,137,cs),
(474,137,o),
(515,155,o),
(549,183,c)
);
}
);
width = 840;
},
{
layerId = "2D64E6AB-4944-48EA-A6F4-9D71FBB0136F";
shapes = (
{
closed = 1;
nodes = (
(644,-36,o),
(818,138,o),
(818,358,cs),
(818,577,o),
(641,753,o),
(427,753,cs),
(214,753,o),
(37,575,o),
(37,362,cs),
(37,141,o),
(208,-36,o),
(428,-36,cs)
);
},
{
closed = 1;
nodes = (
(247,33,o),
(102,180,o),
(102,360,cs),
(102,539,o),
(248,684,o),
(428,684,cs),
(607,684,o),
(753,538,o),
(753,358,cs),
(753,178,o),
(607,33,o),
(428,33,cs)
);
},
{
closed = 1;
nodes = (
(559,258,l),
(512,215,o),
(469,205,o),
(436,205,cs),
(348,205,o),
(293,276,o),
(293,366,cs),
(293,454,o),
(353,522,o),
(433,522,cs),
(480,522,o),
(528,501,o),
(561,468,c),
(561,549,l),
(534,570,o),
(487,594,o),
(427,594,cs),
(296,594,o),
(211,496,o),
(211,366,cs),
(211,234,o),
(298,133,o),
(425,133,cs),
(481,133,o),
(523,152,o),
(559,184,c)
);
}
);
width = 854;
}
);
unicode = 169;
},
{
color = 5;
glyphname = ordfeminine;
layers = (
{
layerId = "4E03E7F0-ECBD-4EC7-A096-1B73C4225036";
shapes = (
{
closed = 1;
nodes = (
(165,413,o),
(193,428,o),
(213,451,c),
(213,419,l),
(317,419,l),
(317,589,ls),
(317,676,o),
(274,721,o),
(171,721,cs),
(123,721,o),
(86,713,o),
(51,698,c),
(72,624,l),
(99,635,o),
(126,641,o),
(154,641,cs),
(195,641,o),
(214,623,o),
(214,592,cs),
(214,588,l),
(197,595,o),
(171,599,o),
(143,599,cs),
(72,599,o),
(26,569,o),
(26,506,cs),
(26,446,o),
(69,413,o),
(126,413,cs)
);
},
{
closed = 1;
nodes = (
(23,286,l),
(322,286,l),
(322,363,l),
(23,363,l)
);
},
{
closed = 1;
nodes = (
(142,479,o),
(127,493,o),
(127,513,cs),
(127,534,o),
(145,549,o),
(174,549,cs),
(190,549,o),
(204,545,o),
(215,541,c),
(215,528,ls),
(215,497,o),
(188,479,o),
(163,479,cs)
);
}
);
width = 354;
},
{
layerId = "DB4FB8A3-CCB4-4756-A88C-1F7F91E8FFEA";
shapes = (
{
closed = 1;
nodes = (
(168,423,o),
(201,441,o),
(224,469,c),
(224,429,l),
(284,429,l),
(284,602,ls),
(284,684,o),
(233,722,o),
(156,722,cs),
(116,722,o),
(79,711,o),
(49,696,c),
(65,647,l),
(91,662,o),
(119,669,o),
(149,669,cs),
(196,669,o),
(224,648,o),
(224,603,cs),
(224,596,l),
(199,603,o),
(178,609,o),
(146,609,cs),
(74,609,o),
(24,578,o),
(24,514,cs),
(24,454,o),
(77,423,o),
(129,423,cs)
);
},
{
closed = 1;
nodes = (
(21,301,l),
(289,301,l),
(289,353,l),
(21,353,l)
);
},
{
closed = 1;
nodes = (
(110,469,o),
(84,485,o),
(84,517,cs),
(84,550,o),
(110,569,o),
(155,569,cs),
(183,569,o),
(206,563,o),
(224,555,c),
(224,536,ls),
(224,495,o),
(187,469,o),
(144,469,cs)
);
}
);
width = 326;
},
{
layerId = "2D64E6AB-4944-48EA-A6F4-9D71FBB0136F";
shapes = (
{
closed = 1;
nodes = (
(169,425,o),
(203,444,o),
(226,473,c),
(226,431,l),
(277,431,l),
(277,605,ls),
(277,685,o),
(225,722,o),
(153,722,cs),
(114,722,o),
(77,711,o),
(48,696,c),
(64,652,l),
(89,667,o),
(117,675,o),
(148,675,cs),
(196,675,o),
(226,653,o),
(226,605,cs),
(226,597,l),
(199,605,o),
(179,611,o),
(146,611,cs),
(74,611,o),
(24,580,o),
(24,515,cs),
(24,456,o),
(79,425,o),
(129,425,cs)
);
},
{
closed = 1;
nodes = (
(20,304,l),
(282,304,l),
(282,351,l),
(20,351,l)
);
},
{
closed = 1;
nodes = (
(104,467,o),
(75,483,o),
(75,518,cs),
(75,553,o),
(103,573,o),
(151,573,cs),
(182,573,o),
(206,567,o),
(226,558,c),
(226,537,ls),
(226,494,o),
(187,467,o),
(140,467,cs)
);
}
);
width = 320;
}
);
unicode = 170;
},
{
color = 5;
glyphname = guillemotleft;
layers = (
{
layerId = "4E03E7F0-ECBD-4EC7-A096-1B73C4225036";
shapes = (
{
closed = 1;
nodes = (
(217,268,l),
(347,439,l),
(206,500,l),
(32,268,l),
(205,37,l),
(347,98,l)
);
},
{
closed = 1;
nodes = (
(492,268,l),
(622,439,l),
(481,500,l),
(307,268,l),
(480,37,l),
(622,98,l)
);
}
);
width = 657;
},
{
layerId = "DB4FB8A3-CCB4-4756-A88C-1F7F91E8FFEA";
shapes = (
{
closed = 1;
nodes = (
(151,256,l),
(281,437,l),
(200,468,l),
(45,253,l),
(200,42,l),
(280,76,l)
);
},
{
closed = 1;
nodes = (
(371,256,l),
(501,437,l),
(420,468,l),
(265,253,l),
(420,42,l),
(500,76,l)
);
}
);
width = 555;
},
{
layerId = "2D64E6AB-4944-48EA-A6F4-9D71FBB0136F";
shapes = (
{
closed = 1;
nodes = (
(138,253,l),
(268,437,l),
(199,461,l),
(47,250,l),
(199,43,l),
(266,72,l)
);
},
{
closed = 1;
nodes = (
(347,253,l),
(477,437,l),
(408,461,l),
(256,250,l),
(408,43,l),
(475,72,l)
);
}
);
width = 534;
}
);
unicode = 171;
},
{
color = 5;
glyphname = logicalnot;
layers = (
{
layerId = "4E03E7F0-ECBD-4EC7-A096-1B73C4225036";
shapes = (
{
closed = 1;
nodes = (
(607,416,l),
(79,416,l),
(79,277,l),
(460,277,l),
(460,125,l),
(607,125,l)
);
}
);
width = 686;
},
{
layerId = "DB4FB8A3-CCB4-4756-A88C-1F7F91E8FFEA";
shapes = (
{
closed = 1;
nodes = (
(561,412,l),
(47,412,l),
(47,330,l),
(479,330,l),
(479,128,l),
(561,128,l)
);
}
);
width = 607;
},
{
layerId = "2D64E6AB-4944-48EA-A6F4-9D71FBB0136F";
shapes = (
{
closed = 1;
nodes = (
(552,411,l),
(40,411,l),
(40,340,l),
(483,340,l),
(483,129,l),
(552,129,l)
);
}
);
width = 591;
}
);
unicode = 172;
},
{
color = 5;
glyphname = registered;
layers = (
{
layerId = "4E03E7F0-ECBD-4EC7-A096-1B73C4225036";
shapes = (
{
closed = 1;
nodes = (
(19,156,o),
(177,-9,o),
(380,-9,cs),
(584,-9,o),
(743,158,o),
(743,355,cs),
(743,554,o),
(585,719,o),
(382,719,cs),
(178,719,o),
(19,552,o),
(19,355,cs)
);
},
{
closed = 1;
nodes = (
(61,532,o),
(199,679,o),
(382,679,cs),
(564,679,o),
(701,534,o),
(701,357,cs),
(701,178,o),
(563,31,o),
(380,31,cs),
(199,31,o),
(61,176,o),
(61,353,cs)
);
},
{
closed = 1;
nodes = (
(222,173,l),
(329,173,l),
(329,290,l),
(376,290,l),
(454,173,l),
(577,173,l),
(485,307,l),
(533,328,o),
(564,369,o),
(564,425,cs),
(564,502,o),
(510,558,o),
(401,558,cs),
(222,558,l)
);
},
{
closed = 1;
nodes = (
(329,373,l),
(329,466,l),
(398,466,ls),
(434,466,o),
(457,447,o),
(457,420,cs),
(457,393,o),
(435,373,o),
(399,373,cs)
);
}
);
width = 762;
},
{
layerId = "DB4FB8A3-CCB4-4756-A88C-1F7F91E8FFEA";
shapes = (
{
closed = 1;
nodes = (
(21,160,o),
(182,-2,o),
(383,-2,cs),
(577,-2,o),
(742,161,o),
(742,357,cs),
(742,552,o),
(581,713,o),
(385,713,cs),
(182,713,o),
(21,555,o),
(21,357,cs)
);
},
{
closed = 1;
nodes = (
(81,523,o),
(215,656,o),
(385,656,cs),
(547,656,o),
(682,522,o),
(682,358,cs),
(682,194,o),
(550,55,o),
(383,55,cs),
(212,55,o),
(81,191,o),
(81,356,cs)
);
},
{
closed = 1;
nodes = (
(248,148,l),
(325,148,l),
(325,318,l),
(344,318,l),
(475,148,l),
(565,148,l),
(424,328,l),
(480,341,o),
(527,386,o),
(527,449,cs),
(527,522,o),
(470,568,o),
(395,568,cs),
(248,568,l)
);
},
{
closed = 1;
nodes = (
(325,386,l),
(325,502,l),
(383,502,ls),
(432,502,o),
(455,474,o),
(455,443,cs),
(455,408,o),
(423,386,o),
(382,386,cs)
);
}
);
width = 762;
},
{
layerId = "2D64E6AB-4944-48EA-A6F4-9D71FBB0136F";
shapes = (
{
closed = 1;
nodes = (
(21,161,o),
(183,-1,o),
(383,-1,cs),
(576,-1,o),
(742,162,o),
(742,357,cs),
(742,552,o),
(580,712,o),
(386,712,cs),
(183,712,o),
(21,555,o),
(21,357,cs)
);
},
{
closed = 1;
nodes = (
(85,521,o),
(218,651,o),
(385,651,cs),
(544,651,o),
(678,519,o),
(678,358,cs),
(678,197,o),
(547,60,o),
(383,60,cs),
(215,60,o),
(85,194,o),
(85,357,cs)
);
},
{
closed = 1;
nodes = (
(253,143,l),
(324,143,l),
(324,324,l),
(337,324,l),
(479,143,l),
(563,143,l),
(412,332,l),
(469,343,o),
(519,389,o),
(519,454,cs),
(519,526,o),
(462,570,o),
(394,570,cs),
(253,570,l)
);
},
{
closed = 1;
nodes = (
(324,389,l),
(324,509,l),
(380,509,ls),
(431,509,o),
(455,479,o),
(455,448,cs),
(455,411,o),
(421,389,o),
(378,389,cs)
);
}
);
width = 762;
}
);
unicode = 174;
},
{
color = 5;
glyphname = degree;
layers = (
{
layerId = "4E03E7F0-ECBD-4EC7-A096-1B73C4225036";
shapes = (
{
closed = 1;
nodes = (
(395,668,o),
(309,748,o),
(213,748,cs),
(117,748,o),
(31,668,o),
(31,571,cs),
(31,474,o),
(114,393,o),
(213,393,cs),
(312,393,o),
(395,474,o),
(395,571,cs)
);
},
{
closed = 1;
nodes = (
(297,524,o),
(261,485,o),
(213,485,cs),
(165,485,o),
(129,524,o),
(129,571,cs),
(129,619,o),
(166,656,o),
(213,656,cs),
(260,656,o),
(297,618,o),
(297,571,cs)
);
}
);
width = 425;
},
{
layerId = "DB4FB8A3-CCB4-4756-A88C-1F7F91E8FFEA";
shapes = (
{
closed = 1;
nodes = (
(343,661,o),
(275,727,o),
(190,727,cs),
(108,727,o),
(36,658,o),
(36,575,cs),
(36,492,o),
(107,425,o),
(190,425,cs),
(274,425,o),
(343,492,o),
(343,576,cs)
);
},
{
closed = 1;
nodes = (
(280,522,o),
(240,485,o),
(190,485,cs),
(138,485,o),
(100,526,o),
(100,576,cs),
(100,624,o),
(139,667,o),
(190,667,cs),
(240,667,o),
(280,626,o),
(280,576,cs)
);
}
);
width = 379;
},
{
layerId = "2D64E6AB-4944-48EA-A6F4-9D71FBB0136F";
shapes = (
{
closed = 1;
nodes = (
(333,659,o),
(268,723,o),
(185,723,cs),
(106,723,o),
(37,656,o),
(37,576,cs),
(37,496,o),
(105,431,o),
(185,431,cs),
(266,431,o),
(333,496,o),
(333,577,cs)
);
},
{
closed = 1;
nodes = (
(276,522,o),
(236,485,o),
(185,485,cs),
(133,485,o),
(94,526,o),
(94,577,cs),
(94,625,o),
(134,669,o),
(185,669,cs),
(236,669,o),
(276,628,o),
(276,577,cs)
);
}
);
width = 370;
}
);
unicode = 176;
},
{
color = 5;
glyphname = plusminus;
layers = (
{
layerId = "4E03E7F0-ECBD-4EC7-A096-1B73C4225036";
shapes = (
{
closed = 1;
nodes = (
(81,323,l),
(253,323,l),
(253,173,l),
(386,173,l),
(386,323,l),
(555,323,l),
(555,452,l),
(386,452,l),
(386,596,l),
(253,596,l),
(253,452,l),
(81,452,l)
);
},
{
closed = 1;
nodes = (
(81,0,l),
(555,0,l),
(555,129,l),
(81,129,l)
);
}
);
width = 636;
},
{
layerId = "DB4FB8A3-CCB4-4756-A88C-1F7F91E8FFEA";
shapes = (
{
closed = 1;
nodes = (
(53,336,l),
(260,336,l),
(260,180,l),
(339,180,l),
(339,336,l),
(546,336,l),
(546,416,l),
(339,416,l),
(339,577,l),
(260,577,l),
(260,416,l),
(53,416,l)
);
},
{
closed = 1;
nodes = (
(53,28,l),
(546,28,l),
(546,108,l),
(53,108,l)
);
}
);
width = 599;
},
{
layerId = "2D64E6AB-4944-48EA-A6F4-9D71FBB0136F";
shapes = (
{
closed = 1;
nodes = (
(47,339,l),
(261,339,l),
(261,181,l),
(330,181,l),
(330,339,l),
(544,339,l),
(544,409,l),
(330,409,l),
(330,573,l),
(261,573,l),
(261,409,l),
(47,409,l)
);
},
{
closed = 1;
nodes = (
(47,34,l),
(544,34,l),
(544,104,l),
(47,104,l)
);
}
);
width = 591;
}
);
unicode = 177;
},
{
color = 5;
glyphname = twosuperior;
layers = (
{
layerId = "4E03E7F0-ECBD-4EC7-A096-1B73C4225036";
shapes = (
{
closed = 1;
nodes = (
(18,285,l),
(400,285,l),
(400,386,l),
(242,378,l),
(282,404,ls),
(346,447,o),
(396,499,o),
(396,574,cs),
(396,662,o),
(312,717,o),
(223,717,cs),
(106,717,o),
(52,659,o),
(43,555,c),
(172,555,l),
(172,584,o),
(181,619,o),
(220,619,cs),
(249,619,o),
(268,598,o),
(268,569,cs),
(268,516,o),
(199,457,o),
(168,428,cs)
);
}
);
width = 430;
},
{
layerId = "DB4FB8A3-CCB4-4756-A88C-1F7F91E8FFEA";
shapes = (
{
closed = 1;
nodes = (
(14,285,l),
(293,285,l),
(318,349,l),
(155,348,l),
(208,410,ls),
(285,497,o),
(316,536,o),
(316,594,cs),
(316,668,o),
(261,720,o),
(179,720,cs),
(125,720,o),
(92,700,o),
(53,650,c),
(108,610,l),
(128,642,o),
(153,656,o),
(176,656,cs),
(212,656,o),
(238,629,o),
(238,593,cs),
(238,554,o),
(208,515,o),
(136,429,c)
);
}
);
width = 349;
},
{
layerId = "2D64E6AB-4944-48EA-A6F4-9D71FBB0136F";
shapes = (
{
closed = 1;
nodes = (
(13,285,l),
(271,285,l),
(302,342,l),
(137,342,l),
(193,411,ls),
(273,507,o),
(300,543,o),
(300,598,cs),
(300,669,o),
(251,720,o),
(170,720,cs),
(129,720,o),
(100,708,o),
(55,669,c),
(95,621,l),
(119,653,o),
(147,663,o),
(167,663,cs),
(204,663,o),
(232,635,o),
(232,598,cs),
(232,562,o),
(210,527,o),
(130,429,cs)
);
}
);
width = 333;
}
);
unicode = 178;
},
{
color = 5;
glyphname = threesuperior;
layers = (
{
layerId = "4E03E7F0-ECBD-4EC7-A096-1B73C4225036";
shapes = (
{
closed = 1;
nodes = (
(10,424,l),
(15,328,o),
(95,279,o),
(194,279,cs),
(285,279,o),
(375,321,o),
(375,414,cs),
(375,457,o),
(351,496,o),
(307,515,c),
(340,532,o),
(357,566,o),
(357,601,cs),
(357,681,o),
(275,721,o),
(197,721,cs),
(113,721,o),
(35,679,o),
(27,589,c),
(152,589,l),
(152,609,o),
(163,632,o),
(194,632,cs),
(218,632,o),
(233,615,o),
(233,592,cs),
(233,564,o),
(212,547,o),
(187,547,cs),
(175,547,l),
(175,474,l),
(183,474,o),
(190,475,o),
(198,475,cs),
(227,475,o),
(249,457,o),
(249,426,cs),
(249,393,o),
(226,369,o),
(195,369,cs),
(160,369,o),
(139,393,o),
(138,424,c)
);
}
);
width = 398;
},
{
layerId = "DB4FB8A3-CCB4-4756-A88C-1F7F91E8FFEA";
shapes = (
{
closed = 1;
nodes = (
(9,317,l),
(45,290,o),
(87,278,o),
(127,278,cs),
(218,278,o),
(287,332,o),
(287,417,cs),
(287,469,o),
(260,504,o),
(207,526,c),
(242,549,o),
(265,575,o),
(265,617,cs),
(265,684,o),
(209,723,o),
(133,723,cs),
(93,723,o),
(56,711,o),
(35,687,c),
(53,636,l),
(80,652,o),
(106,661,o),
(132,661,cs),
(168,661,o),
(191,638,o),
(191,611,cs),
(191,577,o),
(157,551,o),
(110,551,cs),
(93,551,l),
(93,492,l),
(97,492,o),
(112,493,o),
(116,493,cs),
(190,493,o),
(212,455,o),
(212,419,cs),
(212,374,o),
(177,340,o),
(125,340,cs),
(93,340,o),
(63,352,o),
(31,370,c)
);
}
);
width = 311;
},
{
layerId = "2D64E6AB-4944-48EA-A6F4-9D71FBB0136F";
shapes = (
{
closed = 1;
nodes = (
(9,295,l),
(51,282,o),
(85,278,o),
(113,278,cs),
(204,278,o),
(269,334,o),
(269,418,cs),
(269,471,o),
(242,505,o),
(187,528,c),
(222,552,o),
(246,577,o),
(246,620,cs),
(246,684,o),
(196,723,o),
(120,723,cs),
(89,723,o),
(60,717,o),
(36,706,c),
(33,645,l),
(66,661,o),
(95,667,o),
(119,667,cs),
(158,667,o),
(182,643,o),
(182,615,cs),
(182,580,o),
(146,552,o),
(95,552,cs),
(76,552,l),
(76,496,l),
(80,496,o),
(96,496,o),
(100,496,cs),
(182,496,o),
(205,455,o),
(205,417,cs),
(205,370,o),
(167,334,o),
(111,334,cs),
(80,334,o),
(48,344,o),
(9,359,c)
);
}
);
width = 294;
}
);
unicode = 179;
},
{
color = 5;
glyphname = acute;
layers = (
{
layerId = "4E03E7F0-ECBD-4EC7-A096-1B73C4225036";
shapes = (
{
closed = 1;
nodes = (
(5,616,l),
(139,616,l),
(286,744,l),
(109,801,l)
);
}
);
width = 269;
},
{
layerId = "DB4FB8A3-CCB4-4756-A88C-1F7F91E8FFEA";
shapes = (
{
closed = 1;
nodes = (
(20,616,l),
(92,616,l),
(223,745,l),
(113,771,l)
);
}
);
width = 239;
},
{
layerId = "2D64E6AB-4944-48EA-A6F4-9D71FBB0136F";
shapes = (
{
closed = 1;
nodes = (
(23,616,l),
(82,616,l),
(210,745,l),
(114,765,l)
);
}
);
width = 233;
}
);
unicode = 180;
},
{
color = 5;
glyphname = mu;
layers = (
{
layerId = "4E03E7F0-ECBD-4EC7-A096-1B73C4225036";
shapes = (
{
closed = 1;
nodes = (
(237,-160,l),
(47,-160,l),
(47,541,l),
(237,541,l),
(237,248,ls),
(237,189,o),
(268,157,o),
(314,157,cs),
(359,157,o),
(393,189,o),
(393,248,cs),
(393,541,l),
(583,541,l),
(583,0,l),
(393,74,l),
(372,14,o),
(342,-12,o),
(307,-12,cs),
(274,-12,o),
(248,11,o),
(237,36,c)
);
}
);
width = 634;
},
{
layerId = "DB4FB8A3-CCB4-4756-A88C-1F7F91E8FFEA";
shapes = (
{
closed = 1;
nodes = (
(169,-183,l),
(69,-183,l),
(69,493,l),
(169,493,l),
(169,211,ls),
(169,116,o),
(225,77,o),
(278,77,cs),
(347,77,o),
(403,121,o),
(403,211,cs),
(403,493,l),
(503,493,l),
(503,0,l),
(402,64,l),
(375,21,o),
(330,-10,o),
(277,-10,cs),
(232,-10,o),
(191,13,o),
(169,59,c)
);
}
);
width = 576;
},
{
layerId = "2D64E6AB-4944-48EA-A6F4-9D71FBB0136F";
shapes = (
{
closed = 1;
nodes = (
(155,-188,l),
(73,-188,l),
(73,483,l),
(155,483,l),
(155,204,ls),
(155,101,o),
(216,61,o),
(271,61,cs),
(344,61,o),
(405,107,o),
(405,204,cs),
(405,483,l),
(487,483,l),
(487,0,l),
(404,62,l),
(376,22,o),
(327,-10,o),
(271,-10,cs),
(224,-10,o),
(180,13,o),
(155,64,c)
);
}
);
width = 564;
}
);
unicode = 181;
},
{
color = 5;
glyphname = paragraph;
layers = (
{
layerId = "4E03E7F0-ECBD-4EC7-A096-1B73C4225036";
shapes = (
{
closed = 1;
nodes = (
(342,-113,l),
(342,604,l),
(404,604,l),
(404,-113,l),
(516,-113,l),
(516,604,l),
(571,604,l),
(571,706,l),
(273,706,ls),
(125,706,o),
(43,626,o),
(43,502,cs),
(43,391,o),
(122,321,o),
(230,308,c),
(230,-113,l)
);
}
);
width = 641;
},
{
layerId = "DB4FB8A3-CCB4-4756-A88C-1F7F91E8FFEA";
shapes = (
{
closed = 1;
nodes = (
(295,-106,l),
(295,622,l),
(384,622,l),
(384,-106,l),
(469,-106,l),
(469,622,l),
(505,622,l),
(542,706,l),
(237,706,ls),
(112,706,o),
(35,642,o),
(35,527,cs),
(35,406,o),
(120,369,o),
(210,352,c),
(210,-106,l)
);
}
);
width = 634;
},
{
layerId = "2D64E6AB-4944-48EA-A6F4-9D71FBB0136F";
shapes = (
{
closed = 1;
nodes = (
(285,-104,l),
(285,625,l),
(380,625,l),
(380,-104,l),
(459,-104,l),
(459,625,l),
(492,625,l),
(536,706,l),
(230,706,ls),
(109,706,o),
(33,645,o),
(33,532,cs),
(33,409,o),
(119,379,o),
(206,361,c),
(206,-104,l)
);
}
);
width = 632;
}
);
unicode = 182;
},
{
color = 5;
glyphname = periodcentered;
layers = (
{
layerId = "4E03E7F0-ECBD-4EC7-A096-1B73C4225036";
shapes = (
{
closed = 1;
nodes = (
(62,307,o),
(111,269,o),
(174,269,cs),
(238,269,o),
(287,307,o),
(287,379,cs),
(287,451,o),
(238,488,o),
(174,488,cs),
(111,488,o),
(62,451,o),
(62,379,cs)
);
}
);
width = 349;
},
{
layerId = "DB4FB8A3-CCB4-4756-A88C-1F7F91E8FFEA";
shapes = (
{
closed = 1;
nodes = (
(81,317,o),
(112,287,o),
(150,287,cs),
(187,287,o),
(218,317,o),
(218,356,cs),
(218,395,o),
(187,424,o),
(150,424,cs),
(112,424,o),
(81,395,o),
(81,356,cs)
);
}
);
width = 300;
},
{
layerId = "2D64E6AB-4944-48EA-A6F4-9D71FBB0136F";
shapes = (
{
closed = 1;
nodes = (
(85,319,o),
(112,291,o),
(145,291,cs),
(177,291,o),
(204,319,o),
(204,351,cs),
(204,384,o),
(177,411,o),
(145,411,cs),
(112,411,o),
(85,384,o),
(85,351,cs)
);
}
);
width = 290;
}
);
unicode = 183;
},
{
color = 5;
glyphname = cedilla;
layers = (
{
layerId = "4E03E7F0-ECBD-4EC7-A096-1B73C4225036";
shapes = (
{
closed = 1;
nodes = (
(248,0,l),
(178,0,l),
(108,-110,l),
(139,-136,l),
(155,-129,o),
(169,-126,o),
(184,-126,cs),
(208,-126,o),
(223,-135,o),
(223,-151,cs),
(223,-172,o),
(190,-180,o),
(170,-180,cs),
(151,-180,o),
(125,-176,o),
(98,-164,c),
(72,-220,l),
(107,-237,o),
(145,-246,o),
(180,-246,cs),
(235,-246,o),
(306,-223,o),
(306,-150,cs),
(306,-95,o),
(258,-68,o),
(214,-68,cs),
(206,-68,l)
);
}
);
width = 372;
},
{
layerId = "DB4FB8A3-CCB4-4756-A88C-1F7F91E8FFEA";
shapes = (
{
closed = 1;
nodes = (
(201,0,l),
(135,0,l),
(73,-92,l),
(92,-107,l),
(105,-102,o),
(114,-99,o),
(126,-99,cs),
(150,-99,o),
(166,-109,o),
(166,-129,cs),
(166,-162,o),
(126,-172,o),
(103,-172,cs),
(88,-172,o),
(71,-169,o),
(51,-161,c),
(37,-204,l),
(64,-217,o),
(92,-225,o),
(124,-225,cs),
(176,-225,o),
(245,-202,o),
(245,-138,cs),
(245,-85,o),
(197,-70,o),
(163,-70,cs),
(159,-70,l)
);
}
);
width = 290;
},
{
layerId = "2D64E6AB-4944-48EA-A6F4-9D71FBB0136F";
shapes = (
{
closed = 1;
nodes = (
(191,0,l),
(126,0,l),
(66,-88,l),
(83,-101,l),
(95,-96,o),
(103,-94,o),
(114,-94,cs),
(138,-94,o),
(155,-104,o),
(155,-125,cs),
(155,-160,o),
(113,-170,o),
(90,-170,cs),
(75,-170,o),
(60,-167,o),
(41,-160,c),
(30,-201,l),
(55,-213,o),
(81,-221,o),
(113,-221,cs),
(164,-221,o),
(233,-198,o),
(233,-135,cs),
(233,-83,o),
(185,-70,o),
(153,-70,cs),
(150,-70,l)
);
}
);
width = 273;
}
);
unicode = 184;
},
{
color = 5;
glyphname = onesuperior;
layers = (
{
layerId = "4E03E7F0-ECBD-4EC7-A096-1B73C4225036";
shapes = (
{
closed = 1;
nodes = (
(112,285,l),
(240,285,l),
(240,708,l),
(150,706,l),
(109,706,o),
(60,704,o),
(47,704,c),
(47,602,l),
(72,603,o),
(85,603,o),
(112,604,c)
);
}
);
width = 347;
},
{
layerId = "DB4FB8A3-CCB4-4756-A88C-1F7F91E8FFEA";
shapes = (
{
closed = 1;
nodes = (
(85,286,l),
(163,286,l),
(163,713,l),
(103,713,l),
(85,689,o),
(58,667,o),
(27,643,c),
(27,569,l),
(45,579,o),
(68,597,o),
(85,617,c)
);
}
);
width = 240;
},
{
layerId = "2D64E6AB-4944-48EA-A6F4-9D71FBB0136F";
shapes = (
{
closed = 1;
nodes = (
(80,286,l),
(148,286,l),
(148,714,l),
(94,714,l),
(80,686,o),
(57,660,o),
(23,631,c),
(23,562,l),
(40,574,o),
(64,596,o),
(80,619,c)
);
}
);
width = 219;
}
);
unicode = 185;
},
{
color = 5;
glyphname = ordmasculine;
layers = (
{
layerId = "4E03E7F0-ECBD-4EC7-A096-1B73C4225036";
shapes = (
{
closed = 1;
nodes = (
(278,414,o),
(347,485,o),
(347,570,cs),
(347,655,o),
(279,724,o),
(186,724,cs),
(93,724,o),
(23,653,o),
(23,569,cs),
(23,485,o),
(91,414,o),
(184,414,cs)
);
},
{
closed = 1;
nodes = (
(41,289,l),
(329,289,l),
(329,366,l),
(41,366,l)
);
},
{
closed = 1;
nodes = (
(150,503,o),
(125,534,o),
(125,570,cs),
(125,606,o),
(148,635,o),
(184,635,cs),
(220,635,o),
(245,605,o),
(245,569,cs),
(245,533,o),
(222,503,o),
(186,503,cs)
);
}
);
width = 370;
},
{
layerId = "DB4FB8A3-CCB4-4756-A88C-1F7F91E8FFEA";
shapes = (
{
closed = 1;
nodes = (
(256,422,o),
(321,491,o),
(321,575,cs),
(321,653,o),
(258,723,o),
(172,723,cs),
(85,723,o),
(21,655,o),
(21,572,cs),
(21,490,o),
(84,422,o),
(170,422,cs)
);
},
{
closed = 1;
nodes = (
(27,302,l),
(315,302,l),
(315,354,l),
(27,354,l)
);
},
{
closed = 1;
nodes = (
(120,478,o),
(83,519,o),
(83,575,cs),
(83,624,o),
(116,667,o),
(170,667,cs),
(222,667,o),
(259,627,o),
(259,572,cs),
(259,519,o),
(225,478,o),
(172,478,cs)
);
}
);
width = 342;
},
{
layerId = "2D64E6AB-4944-48EA-A6F4-9D71FBB0136F";
shapes = (
{
closed = 1;
nodes = (
(251,423,o),
(316,492,o),
(316,576,cs),
(316,653,o),
(254,723,o),
(169,723,cs),
(83,723,o),
(20,655,o),
(20,572,cs),
(20,491,o),
(82,423,o),
(167,423,cs)
);
},
{
closed = 1;
nodes = (
(24,304,l),
(312,304,l),
(312,351,l),
(24,351,l)
);
},
{
closed = 1;
nodes = (
(114,473,o),
(74,516,o),
(74,576,cs),
(74,627,o),
(110,673,o),
(167,673,cs),
(222,673,o),
(262,631,o),
(262,572,cs),
(262,516,o),
(225,473,o),
(169,473,cs)
);
}
);
width = 336;
}
);
unicode = 186;
},
{
color = 5;
glyphname = guillemotright;
layers = (
{
layerId = "4E03E7F0-ECBD-4EC7-A096-1B73C4225036";
shapes = (
{
closed = 1;
nodes = (
(36,98,l),
(178,37,l),
(351,268,l),
(177,500,l),
(36,439,l),
(166,268,l)
);
},
{
closed = 1;
nodes = (
(312,98,l),
(454,37,l),
(627,268,l),
(453,500,l),
(312,439,l),
(442,268,l)
);
}
);
width = 659;
},
{
layerId = "DB4FB8A3-CCB4-4756-A88C-1F7F91E8FFEA";
shapes = (
{
closed = 1;
nodes = (
(50,76,l),
(130,42,l),
(285,253,l),
(130,468,l),
(49,437,l),
(179,256,l)
);
},
{
closed = 1;
nodes = (
(270,76,l),
(349,42,l),
(505,253,l),
(349,468,l),
(268,437,l),
(398,256,l)
);
}
);
width = 555;
},
{
layerId = "2D64E6AB-4944-48EA-A6F4-9D71FBB0136F";
shapes = (
{
closed = 1;
nodes = (
(53,72,l),
(120,43,l),
(272,250,l),
(120,461,l),
(51,437,l),
(181,253,l)
);
},
{
closed = 1;
nodes = (
(261,72,l),
(328,43,l),
(480,250,l),
(328,461,l),
(259,437,l),
(389,253,l)
);
}
);
width = 534;
}
);
unicode = 187;
},
{
color = 5;
glyphname = questiondown;
layers = (
{
layerId = "4E03E7F0-ECBD-4EC7-A096-1B73C4225036";
shapes = (
{
closed = 1;
nodes = (
(270,-28,o),
(228,-12,o),
(228,25,cs),
(228,54,o),
(254,82,o),
(281,102,cs),
(325,136,o),
(368,178,o),
(368,258,cs),
(368,301,l),
(194,301,l),
(194,270,ls),
(194,232,o),
(183,221,o),
(150,194,c),
(84,144,o),
(37,104,o),
(37,13,cs),
(37,-118,o),
(150,-190,o),
(273,-190,cs),
(357,-190,o),
(435,-161,o),
(487,-94,c),
(487,64,l),
(446,26,o),
(381,-28,o),
(308,-28,cs)
);
},
{
closed = 1;
nodes = (
(381,499,o),
(334,532,o),
(274,532,cs),
(214,532,o),
(166,499,o),
(166,435,cs),
(166,371,o),
(214,339,o),
(274,339,cs),
(334,339,o),
(381,371,o),
(381,435,cs)
);
}
);
width = 524;
},
{
layerId = "DB4FB8A3-CCB4-4756-A88C-1F7F91E8FFEA";
shapes = (
{
closed = 1;
nodes = (
(186,-102,o),
(150,-59,o),
(150,-13,cs),
(150,32,o),
(182,64,o),
(217,96,cs),
(262,137,o),
(310,185,o),
(310,270,cs),
(310,329,l),
(212,329,l),
(212,297,ls),
(212,231,o),
(193,199,o),
(143,157,cs),
(90,112,o),
(50,58,o),
(50,-20,cs),
(50,-125,o),
(126,-193,o),
(236,-193,cs),
(307,-193,o),
(368,-164,o),
(403,-120,c),
(403,-13,l),
(356,-77,o),
(302,-102,o),
(251,-102,cs)
);
},
{
closed = 1;
nodes = (
(324,508,o),
(292,533,o),
(256,533,cs),
(218,533,o),
(187,508,o),
(187,468,cs),
(187,431,o),
(218,402,o),
(256,402,cs),
(292,402,o),
(324,431,o),
(324,468,cs)
);
}
);
width = 452;
},
{
layerId = "2D64E6AB-4944-48EA-A6F4-9D71FBB0136F";
shapes = (
{
closed = 1;
nodes = (
(169,-117,o),
(134,-68,o),
(134,-20,cs),
(134,28,o),
(167,60,o),
(204,95,cs),
(249,137,o),
(298,186,o),
(298,272,cs),
(298,334,l),
(216,334,l),
(216,302,ls),
(216,231,o),
(195,195,o),
(142,150,c),
(91,105,o),
(52,49,o),
(52,-27,cs),
(52,-126,o),
(121,-193,o),
(229,-193,cs),
(297,-193,o),
(355,-165,o),
(386,-125,c),
(386,-28,l),
(338,-97,o),
(286,-117,o),
(239,-117,cs)
);
},
{
closed = 1;
nodes = (
(312,510,o),
(284,533,o),
(252,533,cs),
(219,533,o),
(191,510,o),
(191,474,cs),
(191,443,o),
(219,415,o),
(252,415,cs),
(284,415,o),
(312,443,o),
(312,474,cs)
);
}
);
width = 437;
}
);
unicode = 191;
},
{
color = 5;
glyphname = AE;
layers = (
{
layerId = "4E03E7F0-ECBD-4EC7-A096-1B73C4225036";
shapes = (
{
closed = 1;
nodes = (
(-8,0,l),
(196,0,l),
(255,125,l),
(445,125,l),
(445,0,l),
(1015,0,l),
(1015,165,l),
(637,165,l),
(637,276,l),
(975,276,l),
(975,429,l),
(637,429,l),
(637,535,l),
(1010,535,l),
(1010,700,l),
(290,700,l)
);
},
{
closed = 1;
nodes = (
(312,276,l),
(445,582,l),
(445,276,l)
);
}
);
width = 1007;
},
{
layerId = "DB4FB8A3-CCB4-4756-A88C-1F7F91E8FFEA";
shapes = (
{
closed = 1;
nodes = (
(-6,0,l),
(104,0,l),
(214,185,l),
(453,185,l),
(453,0,l),
(941,0,l),
(941,91,l),
(557,91,l),
(557,314,l),
(901,314,l),
(901,402,l),
(557,402,l),
(557,613,l),
(931,613,l),
(931,704,l),
(407,704,l)
);
},
{
closed = 1;
nodes = (
(262,273,l),
(453,599,l),
(453,273,l)
);
}
);
width = 940;
},
{
layerId = "2D64E6AB-4944-48EA-A6F4-9D71FBB0136F";
shapes = (
{
closed = 1;
nodes = (
(-5,0,l),
(86,0,l),
(206,197,l),
(455,197,l),
(455,0,l),
(926,0,l),
(926,76,l),
(541,76,l),
(541,321,l),
(886,321,l),
(886,397,l),
(541,397,l),
(541,629,l),
(915,629,l),
(915,705,l),
(430,705,l)
);
},
{
closed = 1;
nodes = (
(252,272,l),
(455,602,l),
(455,272,l)
);
}
);
width = 926;
}
);
unicode = 198;
},
{
color = 5;
glyphname = Eth;
layers = (
{
layerId = "4E03E7F0-ECBD-4EC7-A096-1B73C4225036";
shapes = (
{
closed = 1;
nodes = (
(81,0,l),
(347,0,ls),
(599,0,o),
(746,152,o),
(746,354,cs),
(746,557,o),
(602,700,o),
(351,700,cs),
(81,700,l)
);
},
{
closed = 1;
nodes = (
(275,528,l),
(354,528,ls),
(469,528,o),
(547,463,o),
(547,351,cs),
(547,238,o),
(470,172,o),
(354,172,cs),
(275,172,l)
);
},
{
closed = 1;
nodes = (
(335,416,l),
(7,416,l),
(7,249,l),
(335,249,l)
);
}
);
width = 784;
},
{
layerId = "DB4FB8A3-CCB4-4756-A88C-1F7F91E8FFEA";
shapes = (
{
closed = 1;
nodes = (
(107,0,l),
(335,0,ls),
(566,0,o),
(715,147,o),
(715,353,cs),
(715,565,o),
(556,704,o),
(336,704,cs),
(107,704,l)
);
},
{
closed = 1;
nodes = (
(210,611,l),
(372,611,ls),
(523,611,o),
(607,479,o),
(607,351,cs),
(607,199,o),
(508,92,o),
(332,92,cs),
(210,92,l)
);
},
{
closed = 1;
nodes = (
(295,399,l),
(15,399,l),
(15,307,l),
(295,307,l)
);
}
);
width = 765;
},
{
layerId = "2D64E6AB-4944-48EA-A6F4-9D71FBB0136F";
shapes = (
{
closed = 1;
nodes = (
(112,0,l),
(332,0,ls),
(559,0,o),
(709,146,o),
(709,353,cs),
(709,566,o),
(547,705,o),
(333,705,cs),
(112,705,l)
);
},
{
closed = 1;
nodes = (
(197,628,l),
(376,628,ls),
(534,628,o),
(619,482,o),
(619,351,cs),
(619,191,o),
(516,76,o),
(328,76,cs),
(197,76,l)
);
},
{
closed = 1;
nodes = (
(287,396,l),
(16,396,l),
(16,319,l),
(287,319,l)
);
}
);
width = 761;
}
);
unicode = 208;
},
{
color = 5;
glyphname = multiply;
layers = (
{
layerId = "4E03E7F0-ECBD-4EC7-A096-1B73C4225036";
shapes = (
{
closed = 1;
nodes = (
(90,195,l),
(196,90,l),
(351,245,l),
(505,90,l),
(610,195,l),
(456,350,l),
(610,505,l),
(505,610,l),
(351,455,l),
(196,610,l),
(90,505,l),
(246,350,l)
);
}
);
width = 700;
},
{
layerId = "DB4FB8A3-CCB4-4756-A88C-1F7F91E8FFEA";
shapes = (
{
closed = 1;
nodes = (
(87,172,l),
(146,113,l),
(324,292,l),
(502,113,l),
(561,173,l),
(384,351,l),
(561,528,l),
(502,588,l),
(324,408,l),
(146,588,l),
(88,528,l),
(266,351,l)
);
}
);
width = 648;
},
{
layerId = "2D64E6AB-4944-48EA-A6F4-9D71FBB0136F";
shapes = (
{
closed = 1;
nodes = (
(86,167,l),
(136,117,l),
(319,301,l),
(501,117,l),
(551,168,l),
(369,351,l),
(551,533,l),
(501,583,l),
(319,399,l),
(136,583,l),
(87,533,l),
(270,351,l)
);
}
);
width = 638;
}
);
unicode = 215;
},
{
color = 5;
glyphname = Oslash;
layers = (
{
layerId = "4E03E7F0-ECBD-4EC7-A096-1B73C4225036";
shapes = (
{
closed = 1;
nodes = (
(111,-128,l),
(265,-128,l),
(323,-5,l),
(350,-10,o),
(377,-14,o),
(408,-14,cs),
(623,-14,o),
(786,151,o),
(786,352,cs),
(786,473,o),
(729,578,o),
(634,645,c),
(708,798,l),
(554,798,l),
(508,702,l),
(476,710,o),
(444,714,o),
(409,714,cs),
(193,714,o),
(32,551,o),
(32,350,cs),
(32,223,o),
(95,114,o),
(195,47,c)
);
},
{
closed = 1;
nodes = (
(278,221,l),
(251,251,o),
(236,290,o),
(232,331,cs),
(231,338,o),
(231,345,o),
(231,352,cs),
(231,435,o),
(278,507,o),
(354,531,cs),
(371,536,o),
(389,539,o),
(408,539,cs),
(415,539,o),
(422,539,o),
(429,538,c)
);
},
{
closed = 1;
nodes = (
(483,328,l),
(549,467,l),
(573,434,o),
(587,393,o),
(587,350,cs),
(587,310,o),
(576,271,o),
(555,240,c),
(535,208,o),
(505,184,o),
(469,171,cs),
(458,167,o),
(446,164,o),
(434,163,c),
(426,161,o),
(417,161,o),
(409,161,cs),
(406,161,o),
(406,161,o),
(403,161,c)
);
}
);
width = 818;
},
{
layerId = "DB4FB8A3-CCB4-4756-A88C-1F7F91E8FFEA";
shapes = (
{
closed = 1;
nodes = (
(69,9,l),
(129,-26,l),
(202,58,l),
(259,13,o),
(331,-14,o),
(416,-14,cs),
(627,-14,o),
(783,151,o),
(783,354,cs),
(783,451,o),
(747,538,o),
(684,603,c),
(766,699,l),
(703,730,l),
(629,646,l),
(571,691,o),
(500,718,o),
(417,718,cs),
(204,718,o),
(48,554,o),
(48,351,cs),
(48,253,o),
(83,166,o),
(146,101,c)
);
},
{
closed = 1;
nodes = (
(209,180,l),
(174,226,o),
(154,284,o),
(154,350,c),
(154,351,o),
(154,353,o),
(154,354,c),
(154,501,o),
(257,620,o),
(407,624,c),
(444,624,o),
(479,617,o),
(511,604,cs),
(532,595,o),
(550,584,o),
(567,571,c)
);
},
{
closed = 1;
nodes = (
(443,331,l),
(621,523,l),
(657,475,o),
(677,416,o),
(677,350,cs),
(677,285,o),
(657,226,o),
(622,179,cs),
(577,121,o),
(508,83,o),
(427,81,cs),
(395,80,o),
(364,85,o),
(337,94,cs),
(323,99,o),
(309,104,o),
(296,111,cs),
(284,118,o),
(274,126,o),
(263,134,c)
);
}
);
width = 831;
},
{
layerId = "2D64E6AB-4944-48EA-A6F4-9D71FBB0136F";
shapes = (
{
closed = 1;
nodes = (
(61,36,l),
(102,-6,l),
(178,71,l),
(241,18,o),
(322,-14,o),
(417,-14,cs),
(628,-14,o),
(782,151,o),
(782,354,cs),
(782,446,o),
(750,530,o),
(694,594,c),
(778,679,l),
(733,716,l),
(653,635,l),
(590,687,o),
(511,719,o),
(419,719,cs),
(206,719,o),
(51,555,o),
(51,351,cs),
(51,259,o),
(81,176,o),
(136,112,c)
);
},
{
closed = 1;
nodes = (
(195,172,l),
(159,221,o),
(138,283,o),
(138,354,c),
(138,354,o),
(138,354,o),
(138,354,c),
(138,514,o),
(253,642,o),
(418,642,cs),
(459,642,o),
(497,633,o),
(532,617,cs),
(555,606,o),
(576,593,o),
(595,577,c)
);
},
{
closed = 1;
nodes = (
(435,332,l),
(635,534,l),
(674,483,o),
(695,421,o),
(695,350,cs),
(695,280,o),
(673,217,o),
(635,167,c),
(585,104,o),
(509,63,o),
(418,63,cs),
(382,63,o),
(348,69,o),
(317,80,cs),
(302,86,o),
(287,93,o),
(273,101,cs),
(260,109,o),
(247,119,o),
(235,129,c)
);
}
);
width = 833;
}
);
unicode = 216;
},
{
color = 5;
glyphname = Thorn;
layers = (
{
layerId = "4E03E7F0-ECBD-4EC7-A096-1B73C4225036";
shapes = (
{
closed = 1;
nodes = (
(58,0,l),
(250,0,l),
(250,135,l),
(350,135,ls),
(494,135,o),
(580,216,o),
(580,363,cs),
(580,531,o),
(470,603,o),
(314,603,cs),
(250,603,l),
(250,706,l),
(58,706,l)
);
},
{
closed = 1;
nodes = (
(250,281,l),
(250,449,l),
(275,449,ls),
(335,449,o),
(387,441,o),
(387,368,cs),
(387,293,o),
(340,281,o),
(277,281,cs)
);
}
);
width = 603;
},
{
layerId = "DB4FB8A3-CCB4-4756-A88C-1F7F91E8FFEA";
shapes = (
{
closed = 1;
nodes = (
(76,0,l),
(174,0,l),
(174,171,l),
(238,171,ls),
(369,171,o),
(473,230,o),
(473,374,cs),
(473,533,o),
(353,580,o),
(216,580,cs),
(174,580,l),
(174,706,l),
(76,706,l)
);
},
{
closed = 1;
nodes = (
(174,256,l),
(174,493,l),
(203,493,ls),
(289,493,o),
(375,485,o),
(375,376,cs),
(375,280,o),
(305,256,o),
(222,256,cs)
);
}
);
width = 501;
},
{
layerId = "2D64E6AB-4944-48EA-A6F4-9D71FBB0136F";
shapes = (
{
closed = 1;
nodes = (
(80,0,l),
(159,0,l),
(159,178,l),
(216,178,ls),
(344,178,o),
(451,233,o),
(451,376,cs),
(451,533,o),
(329,575,o),
(196,575,cs),
(159,575,l),
(159,706,l),
(80,706,l)
);
},
{
closed = 1;
nodes = (
(159,251,l),
(159,502,l),
(188,502,ls),
(280,502,o),
(372,494,o),
(372,378,cs),
(372,277,o),
(298,251,o),
(211,251,cs)
);
}
);
width = 481;
}
);
unicode = 222;
},
{
color = 5;
glyphname = germandbls;
layers = (
{
layerId = "4E03E7F0-ECBD-4EC7-A096-1B73C4225036";
shapes = (
{
closed = 1;
nodes = (
(196,483,ls),
(196,546,o),
(231,580,o),
(276,580,cs),
(317,580,o),
(345,552,o),
(345,505,cs),
(345,455,o),
(307,419,o),
(263,398,c),
(263,297,l),
(331,292,o),
(375,262,o),
(375,214,cs),
(375,166,o),
(331,136,o),
(263,133,c),
(263,-3,l),
(391,-16,o),
(564,39,o),
(564,194,cs),
(564,290,o),
(492,343,o),
(424,364,c),
(483,393,o),
(529,447,o),
(529,530,cs),
(529,646,o),
(434,739,o),
(279,739,cs),
(102,739,o),
(7,635,o),
(7,479,cs),
(7,0,l),
(196,0,l)
);
}
);
width = 593;
},
{
layerId = "DB4FB8A3-CCB4-4756-A88C-1F7F91E8FFEA";
shapes = (
{
closed = 1;
nodes = (
(109,513,ls),
(109,590,o),
(149,663,o),
(239,663,cs),
(305,663,o),
(353,623,o),
(353,554,cs),
(353,478,o),
(294,446,o),
(220,418,c),
(220,350,l),
(327,335,o),
(397,302,o),
(397,210,cs),
(397,115,o),
(319,74,o),
(211,74,c),
(211,-3,l),
(367,-5,o),
(497,62,o),
(497,207,cs),
(497,309,o),
(421,376,o),
(332,393,c),
(401,424,o),
(452,480,o),
(452,565,cs),
(452,674,o),
(366,751,o),
(242,751,cs),
(83,751,o),
(11,643,o),
(11,513,cs),
(11,0,l),
(109,0,l)
);
}
);
width = 531;
},
{
layerId = "2D64E6AB-4944-48EA-A6F4-9D71FBB0136F";
shapes = (
{
closed = 1;
nodes = (
(92,519,ls),
(92,599,o),
(133,680,o),
(231,680,cs),
(303,680,o),
(354,637,o),
(354,564,cs),
(354,483,o),
(291,451,o),
(211,422,c),
(211,360,l),
(326,344,o),
(401,310,o),
(401,209,cs),
(401,105,o),
(317,62,o),
(201,62,c),
(201,-3,l),
(362,-3,o),
(484,67,o),
(484,209,cs),
(484,313,o),
(407,383,o),
(314,399,c),
(385,430,o),
(437,487,o),
(437,572,cs),
(437,680,o),
(352,753,o),
(235,753,cs),
(79,753,o),
(12,644,o),
(12,520,cs),
(12,0,l),
(92,0,l)
);
}
);
width = 519;
}
);
unicode = 223;
},
{
color = 5;
glyphname = ae;
layers = (
{
layerId = "4E03E7F0-ECBD-4EC7-A096-1B73C4225036";
shapes = (
{
closed = 1;
nodes = (
(631,121,o),
(601,128,o),
(577,148,c),
(932,240,l),
(932,401,o),
(840,548,o),
(664,548,cs),
(595,548,o),
(535,527,o),
(488,491,c),
(445,530,o),
(379,549,o),
(287,549,cs),
(276,549,o),
(266,549,o),
(255,548,c),
(183,545,o),
(128,530,o),
(73,507,c),
(73,373,l),
(133,396,o),
(184,404,o),
(237,404,c),
(237,404,o),
(237,404,o),
(237,404,c),
(326,404,o),
(370,378,o),
(370,315,cs),
(370,306,l),
(339,317,o),
(290,327,o),
(238,327,cs),
(123,327,o),
(41,279,o),
(28,186,cs),
(27,177,o),
(26,168,o),
(26,157,cs),
(26,49,o),
(106,-12,o),
(211,-12,cs),
(223,-12,o),
(238,-12,o),
(254,-11,c),
(320,-8,o),
(411,8,o),
(477,48,c),
(525,7,o),
(588,-17,o),
(664,-17,cs),
(677,-17,o),
(692,-16,o),
(707,-15,c),
(762,-8,o),
(824,7,o),
(879,42,c),
(879,190,l),
(828,144,o),
(733,121,o),
(667,121,cs)
);
},
{
closed = 1;
nodes = (
(370,139,l),
(343,116,o),
(314,107,o),
(283,107,cs),
(244,107,o),
(211,133,o),
(211,170,cs),
(211,206,o),
(243,235,o),
(299,235,cs),
(326,235,o),
(353,229,o),
(370,221,c)
);
},
{
closed = 1;
nodes = (
(562,272,l),
(562,272,l),
(557,332,o),
(583,407,o),
(653,407,cs),
(700,407,o),
(734,375,o),
(746,319,c)
);
}
);
width = 962;
},
{
layerId = "DB4FB8A3-CCB4-4756-A88C-1F7F91E8FFEA";
shapes = (
{
closed = 1;
nodes = (
(576,69,o),
(525,111,o),
(502,171,c),
(874,262,l),
(860,392,o),
(779,504,o),
(635,504,cs),
(557,504,o),
(496,470,o),
(456,417,c),
(419,468,o),
(356,495,o),
(281,501,cs),
(272,502,o),
(263,502,o),
(253,501,c),
(179,501,o),
(111,480,o),
(65,460,c),
(65,372,l),
(117,403,o),
(172,416,o),
(228,418,c),
(235,419,o),
(241,419,o),
(248,419,cs),
(333,419,o),
(390,391,o),
(390,318,cs),
(390,300,l),
(349,323,o),
(298,332,o),
(241,332,cs),
(139,332,o),
(33,293,o),
(31,174,c),
(30,163,o),
(31,155,o),
(32,145,cs),
(43,52,o),
(124,-4,o),
(208,-10,cs),
(216,-11,o),
(226,-11,o),
(235,-11,cs),
(317,-11,o),
(397,17,o),
(457,75,c),
(498,25,o),
(556,-5,o),
(628,-11,cs),
(638,-12,o),
(648,-12,o),
(658,-12,cs),
(727,-11,o),
(786,11,o),
(828,44,c),
(828,142,l),
(789,103,o),
(729,69,o),
(655,69,cs)
);
},
{
closed = 1;
nodes = (
(390,125,l),
(358,88,o),
(314,65,o),
(255,65,cs),
(188,65,o),
(129,97,o),
(129,163,cs),
(129,233,o),
(198,261,o),
(262,261,cs),
(319,261,o),
(360,244,o),
(390,227,c)
);
},
{
closed = 1;
nodes = (
(495,254,l),
(492,251,l),
(491,339,o),
(543,422,o),
(636,422,cs),
(707,422,o),
(757,377,o),
(774,317,c)
);
}
);
width = 906;
},
{
layerId = "2D64E6AB-4944-48EA-A6F4-9D71FBB0136F";
shapes = (
{
closed = 1;
nodes = (
(565,59,o),
(510,107,o),
(487,175,c),
(862,266,l),
(846,390,o),
(767,495,o),
(629,495,cs),
(549,495,o),
(488,459,o),
(449,402,c),
(414,455,o),
(351,484,o),
(280,491,cs),
(271,492,o),
(262,492,o),
(253,492,cs),
(178,492,o),
(108,470,o),
(63,450,c),
(63,372,l),
(114,404,o),
(170,418,o),
(226,421,c),
(234,422,o),
(242,422,o),
(250,422,cs),
(334,422,o),
(394,394,o),
(394,318,cs),
(394,299,l),
(351,324,o),
(299,333,o),
(242,333,cs),
(142,333,o),
(31,296,o),
(31,171,cs),
(31,160,o),
(32,152,o),
(33,143,cs),
(46,52,o),
(127,-2,o),
(207,-10,cs),
(215,-11,o),
(223,-11,o),
(231,-11,cs),
(316,-11,o),
(394,19,o),
(453,80,c),
(492,29,o),
(549,-3,o),
(621,-10,cs),
(630,-11,o),
(639,-11,o),
(648,-11,cs),
(720,-11,o),
(778,12,o),
(818,44,c),
(818,132,l),
(781,95,o),
(728,59,o),
(653,59,cs)
);
},
{
closed = 1;
nodes = (
(394,122,l),
(361,82,o),
(314,57,o),
(249,57,cs),
(177,57,o),
(113,90,o),
(113,161,cs),
(113,238,o),
(189,266,o),
(254,266,cs),
(318,266,o),
(361,247,o),
(394,228,c)
);
},
{
closed = 1;
nodes = (
(482,250,l),
(478,247,l),
(478,340,o),
(535,425,o),
(632,425,cs),
(708,425,o),
(762,377,o),
(779,316,c)
);
}
);
width = 895;
}
);
unicode = 230;
},
{
color = 5;
glyphname = eth;
layers = (
{
layerId = "4E03E7F0-ECBD-4EC7-A096-1B73C4225036";
shapes = (
{
closed = 1;
nodes = (
(103,708,l),
(134,685,o),
(160,667,o),
(191,640,c),
(80,578,l),
(137,519,l),
(254,586,l),
(291,550,o),
(321,515,o),
(350,470,c),
(333,476,o),
(309,483,o),
(272,483,cs),
(147,483,o),
(30,394,o),
(30,239,cs),
(30,69,o),
(170,-13,o),
(301,-13,cs),
(423,-13,o),
(573,61,o),
(573,268,cs),
(573,414,o),
(510,545,o),
(385,659,c),
(493,722,l),
(437,780,l),
(323,714,l),
(288,744,o),
(261,766,o),
(224,787,c)
);
},
{
closed = 1;
nodes = (
(356,339,o),
(390,289,o),
(390,238,cs),
(390,186,o),
(354,140,o),
(302,140,cs),
(250,140,o),
(214,186,o),
(214,238,cs),
(214,289,o),
(250,339,o),
(302,339,cs)
);
}
);
width = 603;
},
{
layerId = "DB4FB8A3-CCB4-4756-A88C-1F7F91E8FFEA";
shapes = (
{
closed = 1;
nodes = (
(92,731,l),
(154,691,o),
(186,666,o),
(204,649,c),
(84,571,l),
(125,529,l),
(247,609,l),
(310,550,o),
(365,484,o),
(396,403,c),
(378,419,o),
(336,456,o),
(261,456,cs),
(129,456,o),
(34,347,o),
(34,223,cs),
(34,88,o),
(143,-11,o),
(272,-11,cs),
(378,-11,o),
(509,64,o),
(509,245,cs),
(509,455,o),
(374,594,o),
(315,652,c),
(437,732,l),
(397,773,l),
(271,691,l),
(229,727,o),
(205,744,o),
(147,780,c)
);
},
{
closed = 1;
nodes = (
(152,317,o),
(212,368,o),
(288,360,cs),
(366,351,o),
(411,278,o),
(402,208,cs),
(393,134,o),
(336,79,o),
(258,88,cs),
(187,97,o),
(134,161,o),
(143,241,cs)
);
}
);
width = 543;
},
{
layerId = "2D64E6AB-4944-48EA-A6F4-9D71FBB0136F";
shapes = (
{
closed = 1;
nodes = (
(90,735,l),
(158,692,o),
(191,666,o),
(207,651,c),
(85,569,l),
(122,531,l),
(246,614,l),
(314,550,o),
(374,478,o),
(405,390,c),
(387,408,o),
(341,450,o),
(259,450,cs),
(125,450,o),
(35,337,o),
(35,220,cs),
(35,92,o),
(137,-11,o),
(266,-11,cs),
(369,-11,o),
(496,64,o),
(496,240,cs),
(496,463,o),
(347,604,o),
(301,650,c),
(426,734,l),
(389,772,l),
(260,686,l),
(217,723,o),
(194,739,o),
(131,778,c)
);
},
{
closed = 1;
nodes = (
(111,313,o),
(176,384,o),
(268,384,cs),
(361,384,o),
(422,306,o),
(422,221,cs),
(422,133,o),
(360,58,o),
(267,58,cs),
(182,58,o),
(111,125,o),
(111,221,cs)
);
}
);
width = 531;
}
);
unicode = 240;
},
{
color = 5;
glyphname = divide;
layers = (
{
layerId = "4E03E7F0-ECBD-4EC7-A096-1B73C4225036";
shapes = (
{
closed = 1;
nodes = (
(604,402,l),
(81,402,l),
(81,302,l),
(604,302,l)
);
},
{
closed = 1;
nodes = (
(417,543,o),
(387,577,o),
(343,577,cs),
(299,577,o),
(268,543,o),
(268,504,cs),
(268,465,o),
(299,432,o),
(343,432,cs),
(387,432,o),
(417,465,o),
(417,504,cs)
);
},
{
closed = 1;
nodes = (
(417,241,o),
(387,273,o),
(343,273,cs),
(299,273,o),
(268,241,o),
(268,202,cs),
(268,162,o),
(299,128,o),
(343,128,cs),
(387,128,o),
(417,162,o),
(417,202,cs)
);
}
);
width = 685;
},
{
layerId = "DB4FB8A3-CCB4-4756-A88C-1F7F91E8FFEA";
shapes = (
{
closed = 1;
nodes = (
(565,389,l),
(53,389,l),
(53,317,l),
(565,317,l)
);
},
{
closed = 1;
nodes = (
(370,544,o),
(345,572,o),
(308,572,cs),
(272,572,o),
(248,544,o),
(248,512,cs),
(248,479,o),
(272,453,o),
(308,453,cs),
(345,453,o),
(370,479,o),
(370,512,cs)
);
},
{
closed = 1;
nodes = (
(370,229,o),
(345,254,o),
(308,254,cs),
(272,254,o),
(248,229,o),
(248,195,cs),
(248,163,o),
(272,135,o),
(308,135,cs),
(345,135,o),
(370,163,o),
(370,195,cs)
);
}
);
width = 618;
},
{
layerId = "2D64E6AB-4944-48EA-A6F4-9D71FBB0136F";
shapes = (
{
closed = 1;
nodes = (
(557,386,l),
(47,386,l),
(47,320,l),
(557,320,l)
);
},
{
closed = 1;
nodes = (
(360,544,o),
(336,571,o),
(301,571,cs),
(266,571,o),
(244,544,o),
(244,513,cs),
(244,482,o),
(266,457,o),
(301,457,cs),
(336,457,o),
(360,482,o),
(360,513,cs)
);
},
{
closed = 1;
nodes = (
(360,227,o),
(336,250,o),
(301,250,cs),
(266,250,o),
(244,227,o),
(244,194,cs),
(244,163,o),
(266,136,o),
(301,136,cs),
(336,136,o),
(360,163,o),
(360,194,cs)
);
}
);
width = 604;
}
);
unicode = 247;
},
{
color = 5;
glyphname = oslash;
layers = (
{
layerId = "4E03E7F0-ECBD-4EC7-A096-1B73C4225036";
shapes = (
{
closed = 1;
nodes = (
(456,322,l),
(463,306,o),
(466,289,o),
(466,270,cs),
(466,199,o),
(418,140,o),
(345,140,cs),
(329,140,o),
(314,143,o),
(301,148,c)
);
},
{
closed = 1;
nodes = (
(232,218,l),
(225,234,o),
(222,251,o),
(222,270,cs),
(222,341,o),
(270,400,o),
(343,400,cs),
(359,400,o),
(375,398,o),
(388,391,c)
);
},
{
closed = 1;
nodes = (
(30,-5,l),
(98,-70,l),
(191,25,l),
(235,1,o),
(286,-13,o),
(343,-13,cs),
(516,-13,o),
(643,115,o),
(643,270,cs),
(643,342,o),
(618,405,o),
(575,454,c),
(658,546,l),
(574,608,l),
(496,515,l),
(453,539,o),
(401,553,o),
(345,553,cs),
(172,553,o),
(45,425,o),
(45,270,cs),
(45,198,o),
(70,136,o),
(113,87,c)
);
}
);
width = 687;
},
{
layerId = "DB4FB8A3-CCB4-4756-A88C-1F7F91E8FFEA";
shapes = (
{
closed = 1;
nodes = (
(427,340,l),
(444,312,o),
(454,281,o),
(454,242,cs),
(454,144,o),
(389,68,o),
(288,68,cs),
(250,68,o),
(220,78,o),
(194,98,c)
);
},
{
closed = 1;
nodes = (
(155,142,l),
(134,171,o),
(128,201,o),
(128,242,cs),
(128,338,o),
(190,415,o),
(291,415,cs),
(331,415,o),
(362,404,o),
(386,384,c)
);
},
{
closed = 1;
nodes = (
(20,3,l),
(64,-41,l),
(136,37,l),
(179,4,o),
(227,-12,o),
(290,-12,cs),
(441,-12,o),
(551,98,o),
(551,242,cs),
(551,310,o),
(528,363,o),
(492,407,c),
(546,467,l),
(504,509,l),
(445,448,l),
(402,482,o),
(349,495,o),
(290,495,cs),
(139,495,o),
(32,384,o),
(32,242,cs),
(32,177,o),
(52,124,o),
(91,76,c)
);
}
);
width = 573;
},
{
layerId = "2D64E6AB-4944-48EA-A6F4-9D71FBB0136F";
shapes = (
{
closed = 1;
nodes = (
(421,344,l),
(440,313,o),
(452,279,o),
(452,236,cs),
(452,133,o),
(383,53,o),
(277,53,cs),
(234,53,o),
(201,65,o),
(172,88,c)
);
},
{
closed = 1;
nodes = (
(139,127,l),
(116,158,o),
(109,191,o),
(109,236,cs),
(109,337,o),
(174,418,o),
(280,418,cs),
(325,418,o),
(359,405,o),
(386,382,c)
);
},
{
closed = 1;
nodes = (
(18,4,l),
(57,-35,l),
(125,39,l),
(168,4,o),
(215,-12,o),
(279,-12,cs),
(426,-12,o),
(532,95,o),
(532,236,cs),
(532,304,o),
(510,354,o),
(475,398,c),
(524,451,l),
(490,489,l),
(435,435,l),
(392,470,o),
(339,483,o),
(279,483,cs),
(132,483,o),
(29,376,o),
(29,236,cs),
(29,173,o),
(48,122,o),
(87,74,c)
);
}
);
width = 550;
}
);
unicode = 248;
},
{
color = 5;
glyphname = thorn;
layers = (
{
layerId = "4E03E7F0-ECBD-4EC7-A096-1B73C4225036";
shapes = (
{
closed = 1;
nodes = (
(259,140,o),
(226,189,o),
(226,240,cs),
(226,288,o),
(259,339,o),
(311,339,cs),
(364,339,o),
(397,289,o),
(397,241,cs),
(397,193,o),
(364,140,o),
(311,140,cs)
);
},
{
closed = 1;
nodes = (
(52,-225,l),
(238,-225,l),
(238,-20,l),
(233,55,l),
(237,55,l),
(256,24,o),
(296,1,o),
(335,-8,cs),
(348,-11,o),
(360,-13,o),
(372,-13,cs),
(508,-13,o),
(583,121,o),
(583,243,cs),
(583,366,o),
(510,492,o),
(374,492,cs),
(359,492,o),
(345,489,o),
(330,485,c),
(287,470,o),
(251,441,o),
(232,418,c),
(232,418,l),
(233,438,o),
(234,459,o),
(235,480,c),
(235,511,o),
(236,542,o),
(238,571,c),
(238,776,l),
(52,776,l)
);
}
);
width = 612;
},
{
layerId = "DB4FB8A3-CCB4-4756-A88C-1F7F91E8FFEA";
shapes = (
{
closed = 1;
nodes = (
(202,71,o),
(154,147,o),
(154,228,cs),
(154,305,o),
(206,376,o),
(287,376,cs),
(373,376,o),
(425,308,o),
(425,227,cs),
(425,145,o),
(377,71,o),
(288,71,cs)
);
},
{
closed = 1;
nodes = (
(65,-243,l),
(158,-243,l),
(158,-13,l),
(157,61,l),
(160,61,l),
(193,16,o),
(245,-10,o),
(302,-11,c),
(318,-12,o),
(333,-11,o),
(347,-8,c),
(456,10,o),
(520,112,o),
(520,223,cs),
(520,334,o),
(454,435,o),
(347,455,c),
(332,457,o),
(318,458,o),
(302,458,c),
(244,455,o),
(193,429,o),
(159,384,c),
(157,384,l),
(157,416,o),
(157,450,o),
(158,483,c),
(158,511,o),
(158,539,o),
(158,567,c),
(158,773,l),
(65,773,l)
);
}
);
width = 553;
},
{
layerId = "2D64E6AB-4944-48EA-A6F4-9D71FBB0136F";
shapes = (
{
closed = 1;
nodes = (
(190,57,o),
(139,139,o),
(139,225,cs),
(139,308,o),
(195,383,o),
(282,383,cs),
(375,383,o),
(430,312,o),
(430,224,cs),
(430,135,o),
(379,57,o),
(283,57,cs)
);
},
{
closed = 1;
nodes = (
(67,-247,l),
(142,-247,l),
(142,-12,l),
(142,62,l),
(144,62,l),
(180,14,o),
(235,-12,o),
(295,-12,cs),
(312,-12,o),
(327,-10,o),
(342,-7,cs),
(446,14,o),
(507,110,o),
(507,219,cs),
(507,327,o),
(443,423,o),
(342,447,c),
(327,450,o),
(312,452,o),
(296,452,cs),
(235,452,o),
(181,426,o),
(144,377,c),
(142,377,l),
(142,412,o),
(142,448,o),
(142,483,cs),
(142,511,o),
(142,538,o),
(142,566,cs),
(142,772,l),
(67,772,l)
);
}
);
width = 541;
}
);
unicode = 254;
},
{
color = 5;
glyphname = dcroat;
layers = (
{
layerId = "4E03E7F0-ECBD-4EC7-A096-1B73C4225036";
shapes = (
{
closed = 1;
nodes = (
(624,-12,l),
(624,730,l),
(434,730,l),
(434,475,l),
(398,516,o),
(350,553,o),
(269,553,cs),
(141,553,o),
(30,446,o),
(30,270,cs),
(30,95,o),
(142,-12,o),
(270,-12,cs),
(350,-12,o),
(397,27,o),
(434,72,c)
);
},
{
closed = 1;
nodes = (
(217,344,o),
(268,394,o),
(327,394,cs),
(388,394,o),
(437,343,o),
(437,272,cs),
(437,197,o),
(388,147,o),
(327,147,cs),
(268,147,o),
(217,198,o),
(217,270,cs)
);
},
{
closed = 1;
nodes = (
(684,709,l),
(356,709,l),
(356,542,l),
(684,542,l)
);
}
);
width = 681;
},
{
layerId = "DB4FB8A3-CCB4-4756-A88C-1F7F91E8FFEA";
shapes = (
{
closed = 1;
nodes = (
(552,-1,l),
(552,732,l),
(452,732,l),
(452,411,l),
(412,467,o),
(352,504,o),
(271,504,cs),
(143,504,o),
(34,403,o),
(34,246,cs),
(34,89,o),
(143,-10,o),
(273,-10,cs),
(353,-10,o),
(401,25,o),
(444,76,c)
);
},
{
closed = 1;
nodes = (
(135,350,o),
(205,419,o),
(291,419,cs),
(378,419,o),
(455,346,o),
(455,247,cs),
(455,147,o),
(381,75,o),
(291,75,cs),
(202,75,o),
(135,146,o),
(135,247,cs)
);
},
{
closed = 1;
nodes = (
(604,669,l),
(324,669,l),
(324,577,l),
(604,577,l)
);
}
);
width = 599;
},
{
layerId = "2D64E6AB-4944-48EA-A6F4-9D71FBB0136F";
shapes = (
{
closed = 1;
nodes = (
(538,1,l),
(538,732,l),
(456,732,l),
(456,398,l),
(415,457,o),
(352,494,o),
(271,494,cs),
(143,494,o),
(35,394,o),
(35,241,cs),
(35,88,o),
(143,-10,o),
(274,-10,cs),
(353,-10,o),
(402,24,o),
(446,77,c)
);
},
{
closed = 1;
nodes = (
(118,351,o),
(192,424,o),
(284,424,cs),
(376,424,o),
(459,347,o),
(459,242,cs),
(459,137,o),
(379,60,o),
(284,60,cs),
(189,60,o),
(118,135,o),
(118,242,cs)
);
},
{
closed = 1;
nodes = (
(588,661,l),
(317,661,l),
(317,584,l),
(588,584,l)
);
}
);
width = 583;
}
);
unicode = 273;
},
{
color = 5;
glyphname = dotlessi;
layers = (
{
layerId = "4E03E7F0-ECBD-4EC7-A096-1B73C4225036";
shapes = (
{
closed = 1;
nodes = (
(241,541,l),
(51,541,l),
(51,0,l),
(241,0,l)
);
}
);
width = 293;
},
{
layerId = "DB4FB8A3-CCB4-4756-A88C-1F7F91E8FFEA";
shapes = (
{
closed = 1;
nodes = (
(164,492,l),
(64,492,l),
(64,0,l),
(164,0,l)
);
}
);
width = 230;
},
{
layerId = "2D64E6AB-4944-48EA-A6F4-9D71FBB0136F";
shapes = (
{
closed = 1;
nodes = (
(148,482,l),
(67,482,l),
(67,0,l),
(148,0,l)
);
}
);
width = 217;
}
);
unicode = 305;
},
{
color = 5;
glyphname = kgreenlandic;
layers = (
{
layerId = "4E03E7F0-ECBD-4EC7-A096-1B73C4225036";
shapes = (
{
closed = 1;
nodes = (
(241,541,l),
(51,541,l),
(51,0,l),
(241,0,l),
(241,283,l),
(399,0,l),
(608,0,l),
(415,324,l),
(603,541,l),
(388,541,l),
(241,360,l)
);
}
);
width = 609;
},
{
layerId = "DB4FB8A3-CCB4-4756-A88C-1F7F91E8FFEA";
shapes = (
{
closed = 1;
nodes = (
(164,492,l),
(64,492,l),
(64,0,l),
(164,0,l),
(164,227,l),
(355,0,l),
(474,0,l),
(252,266,l),
(466,492,l),
(342,492,l),
(164,294,l)
);
}
);
width = 480;
},
{
layerId = "2D64E6AB-4944-48EA-A6F4-9D71FBB0136F";
shapes = (
{
closed = 1;
nodes = (
(149,482,l),
(67,482,l),
(67,0,l),
(149,0,l),
(149,216,l),
(346,0,l),
(447,0,l),
(219,254,l),
(438,482,l),
(333,482,l),
(149,281,l)
);
}
);
width = 454;
}
);
unicode = 312;
},
{
color = 5;
glyphname = Eng;
layers = (
{
layerId = "4E03E7F0-ECBD-4EC7-A096-1B73C4225036";
shapes = (
{
closed = 1;
nodes = (
(58,0,l),
(250,0,l),
(250,384,l),
(529,26,l),
(529,25,l),
(529,-16,o),
(510,-31,o),
(486,-31,cs),
(474,-31,o),
(463,-28,o),
(448,-23,c),
(448,-156,l),
(471,-160,o),
(495,-163,o),
(526,-163,cs),
(649,-163,o),
(719,-113,o),
(719,24,cs),
(719,81,l),
(719,700,l),
(527,700,l),
(527,330,l),
(239,700,l),
(58,700,l)
);
}
);
width = 778;
},
{
layerId = "DB4FB8A3-CCB4-4756-A88C-1F7F91E8FFEA";
shapes = (
{
closed = 1;
nodes = (
(76,0,l),
(177,0,l),
(177,545,l),
(576,1,l),
(576,-48,ls),
(576,-81,o),
(567,-109,o),
(527,-109,cs),
(516,-109,o),
(505,-107,o),
(493,-103,c),
(493,-182,l),
(509,-186,o),
(526,-189,o),
(548,-189,cs),
(652,-189,o),
(675,-121,o),
(675,-27,cs),
(675,14,l),
(675,704,l),
(575,704,l),
(575,160,l),
(177,700,l),
(76,700,l)
);
}
);
width = 751;
},
{
layerId = "2D64E6AB-4944-48EA-A6F4-9D71FBB0136F";
shapes = (
{
closed = 1;
nodes = (
(80,0,l),
(162,0,l),
(162,577,l),
(585,-4,l),
(585,-62,ls),
(585,-94,o),
(578,-125,o),
(535,-125,cs),
(524,-125,o),
(513,-123,o),
(502,-119,c),
(502,-187,l),
(517,-191,o),
(532,-194,o),
(552,-194,cs),
(653,-194,o),
(666,-122,o),
(666,-37,cs),
(666,0,l),
(666,705,l),
(584,705,l),
(584,126,l),
(165,700,l),
(80,700,l)
);
}
);
width = 746;
}
);
unicode = 330;
},
{
color = 5;
glyphname = eng;
layers = (
{
layerId = "4E03E7F0-ECBD-4EC7-A096-1B73C4225036";
shapes = (
{
closed = 1;
nodes = (
(51,0,l),
(241,0,l),
(241,293,ls),
(241,352,o),
(278,384,o),
(321,384,cs),
(364,384,o),
(397,352,o),
(397,293,c),
(397,32,l),
(397,-15,o),
(378,-31,o),
(354,-31,cs),
(342,-31,o),
(331,-28,o),
(316,-23,c),
(316,-156,l),
(339,-160,o),
(363,-163,o),
(394,-163,cs),
(517,-163,o),
(587,-113,o),
(587,24,c),
(587,354,l),
(587,477,o),
(508,553,o),
(403,553,cs),
(326,553,o),
(276,510,o),
(241,465,c),
(51,541,l)
);
}
);
width = 635;
},
{
layerId = "DB4FB8A3-CCB4-4756-A88C-1F7F91E8FFEA";
shapes = (
{
closed = 1;
nodes = (
(64,0,l),
(164,0,l),
(164,282,ls),
(164,384,o),
(235,415,o),
(288,415,cs),
(342,415,o),
(399,382,o),
(399,282,cs),
(399,-46,ls),
(399,-81,o),
(390,-109,o),
(350,-109,cs),
(339,-109,o),
(328,-107,o),
(316,-103,c),
(316,-182,l),
(332,-186,o),
(349,-189,o),
(371,-189,cs),
(475,-189,o),
(499,-121,o),
(499,-27,cs),
(499,312,ls),
(499,436,o),
(429,503,o),
(323,503,cs),
(253,503,o),
(202,472,o),
(166,428,c),
(64,492,l)
);
}
);
width = 558;
},
{
layerId = "2D64E6AB-4944-48EA-A6F4-9D71FBB0136F";
shapes = (
{
closed = 1;
nodes = (
(67,0,l),
(149,0,l),
(149,280,ls),
(149,390,o),
(226,421,o),
(281,421,cs),
(338,421,o),
(399,388,o),
(399,280,c),
(399,-62,l),
(399,-94,o),
(392,-125,o),
(349,-125,cs),
(338,-125,o),
(327,-123,o),
(316,-119,c),
(316,-187,l),
(331,-191,o),
(346,-194,o),
(366,-194,cs),
(467,-194,o),
(481,-122,o),
(481,-37,c),
(481,303,l),
(481,428,o),
(413,493,o),
(307,493,cs),
(238,493,o),
(187,464,o),
(151,421,c),
(67,482,l)
);
}
);
width = 542;
}
);
unicode = 331;
},
{
color = 5;
glyphname = OE;
layers = (
{
layerId = "4E03E7F0-ECBD-4EC7-A096-1B73C4225036";
shapes = (
{
closed = 1;
nodes = (
(510,510,l),
(488,524,o),
(463,534,o),
(435,538,cs),
(428,539,o),
(420,539,o),
(413,539,cs),
(307,539,o),
(236,453,o),
(236,352,cs),
(236,251,o),
(309,161,o),
(414,161,cs),
(420,161,o),
(426,161,o),
(432,162,c),
(444,163,o),
(455,165,o),
(466,168,c),
(482,173,o),
(497,180,o),
(510,189,c)
);
},
{
closed = 1;
nodes = (
(702,165,l),
(1078,165,l),
(1078,0,l),
(581,0,ls),
(560,0,o),
(540,0,o),
(519,0,c),
(503,-5,o),
(485,-8,o),
(468,-10,c),
(450,-13,o),
(432,-14,o),
(413,-14,cs),
(197,-14,o),
(37,149,o),
(37,350,cs),
(37,551,o),
(198,714,o),
(414,714,cs),
(452,714,o),
(487,709,o),
(521,700,c),
(1073,700,l),
(1073,535,l),
(702,535,l),
(702,429,l),
(1038,429,l),
(1038,276,l),
(702,276,l)
);
}
);
width = 1127;
},
{
layerId = "DB4FB8A3-CCB4-4756-A88C-1F7F91E8FFEA";
shapes = (
{
closed = 1;
nodes = (
(511,607,l),
(483,617,o),
(453,624,o),
(421,625,c),
(410,625,o),
(399,624,o),
(388,623,cs),
(249,610,o),
(154,495,o),
(154,354,cs),
(154,210,o),
(249,94,o),
(388,81,cs),
(399,80,o),
(409,79,o),
(420,80,c),
(432,80,o),
(443,81,o),
(453,82,cs),
(473,85,o),
(493,89,o),
(511,97,c)
);
},
{
closed = 1;
nodes = (
(615,91,l),
(998,91,l),
(998,0,l),
(530,0,l),
(513,-4,o),
(496,-7,o),
(478,-8,c),
(461,-12,o),
(443,-13,o),
(426,-13,c),
(405,-14,o),
(385,-12,o),
(365,-10,c),
(179,14,o),
(49,165,o),
(49,351,cs),
(49,554,o),
(205,718,o),
(418,718,cs),
(455,718,o),
(490,713,o),
(522,704,c),
(988,704,l),
(988,613,l),
(615,613,l),
(615,402,l),
(958,402,l),
(958,314,l),
(615,314,l)
);
}
);
width = 1062;
},
{
layerId = "2D64E6AB-4944-48EA-A6F4-9D71FBB0136F";
shapes = (
{
closed = 1;
nodes = (
(511,626,l),
(482,636,o),
(451,642,o),
(418,642,cs),
(406,642,o),
(395,641,o),
(383,640,cs),
(237,624,o),
(138,503,o),
(138,354,cs),
(138,202,o),
(237,81,o),
(383,65,cs),
(395,64,o),
(406,63,o),
(418,63,cs),
(429,63,o),
(440,64,o),
(450,65,cs),
(471,67,o),
(492,71,o),
(511,78,c)
);
},
{
closed = 1;
nodes = (
(597,76,l),
(982,76,l),
(982,0,l),
(520,0,l),
(504,-5,o),
(487,-8,o),
(470,-10,c),
(453,-13,o),
(435,-14,o),
(417,-14,cs),
(396,-14,o),
(375,-12,o),
(355,-9,cs),
(175,19,o),
(51,168,o),
(51,351,cs),
(51,555,o),
(206,719,o),
(419,719,cs),
(455,719,o),
(490,714,o),
(522,705,c),
(971,705,l),
(971,629,l),
(597,629,l),
(597,397,l),
(942,397,l),
(942,321,l),
(597,321,l)
);
}
);
width = 1049;
}
);
unicode = 338;
},
{
color = 5;
glyphname = oe;
layers = (
{
layerId = "4E03E7F0-ECBD-4EC7-A096-1B73C4225036";
shapes = (
{
closed = 1;
nodes = (
(699,121,o),
(669,128,o),
(645,148,c),
(1000,240,l),
(1000,401,o),
(908,548,o),
(732,548,cs),
(653,548,o),
(587,522,o),
(539,475,c),
(487,523,o),
(414,553,o),
(330,553,cs),
(157,553,o),
(30,425,o),
(30,270,cs),
(30,115,o),
(155,-13,o),
(328,-13,cs),
(409,-13,o),
(480,15,o),
(533,62,c),
(581,11,o),
(648,-17,o),
(732,-17,cs),
(791,-17,o),
(878,-3,o),
(947,42,c),
(947,190,l),
(896,144,o),
(801,121,o),
(735,121,cs)
);
},
{
closed = 1;
nodes = (
(443,205,o),
(399,148,o),
(330,148,cs),
(263,148,o),
(215,205,o),
(215,272,cs),
(215,337,o),
(259,392,o),
(328,392,cs),
(395,392,o),
(443,336,o),
(443,270,cs)
);
},
{
closed = 1;
nodes = (
(630,272,l),
(625,332,o),
(651,407,o),
(721,407,cs),
(768,407,o),
(802,375,o),
(814,319,c)
);
}
);
width = 1030;
},
{
layerId = "DB4FB8A3-CCB4-4756-A88C-1F7F91E8FFEA";
shapes = (
{
closed = 1;
nodes = (
(665,69,o),
(624,111,o),
(601,171,c),
(963,262,l),
(949,392,o),
(868,504,o),
(724,504,cs),
(628,504,o),
(561,455,o),
(526,379,c),
(481,454,o),
(399,504,o),
(298,504,cs),
(145,504,o),
(34,389,o),
(34,245,cs),
(34,102,o),
(145,-11,o),
(297,-11,cs),
(398,-11,o),
(480,40,o),
(525,115,c),
(563,36,o),
(639,-12,o),
(740,-12,cs),
(809,-12,o),
(872,10,o),
(917,44,c),
(917,142,l),
(878,103,o),
(818,69,o),
(744,69,cs)
);
},
{
closed = 1;
nodes = (
(464,153,o),
(395,74,o),
(298,74,cs),
(205,74,o),
(134,149,o),
(134,247,cs),
(134,342,o),
(199,420,o),
(297,420,cs),
(395,420,o),
(464,341,o),
(464,246,cs)
);
},
{
closed = 1;
nodes = (
(587,255,l),
(586,342,o),
(618,422,o),
(710,422,cs),
(781,422,o),
(832,377,o),
(848,317,c)
);
}
);
width = 997;
},
{
layerId = "2D64E6AB-4944-48EA-A6F4-9D71FBB0136F";
shapes = (
{
closed = 1;
nodes = (
(658,59,o),
(615,108,o),
(592,176,c),
(955,266,l),
(939,390,o),
(860,495,o),
(722,495,cs),
(623,495,o),
(556,441,o),
(523,360,c),
(480,440,o),
(396,494,o),
(292,494,cs),
(143,494,o),
(35,382,o),
(35,240,cs),
(35,99,o),
(143,-10,o),
(291,-10,cs),
(396,-10,o),
(480,45,o),
(523,126,c),
(559,41,o),
(637,-11,o),
(741,-11,cs),
(812,-11,o),
(871,12,o),
(911,44,c),
(911,132,l),
(874,95,o),
(821,59,o),
(746,59,cs)
);
},
{
closed = 1;
nodes = (
(468,142,o),
(394,59,o),
(292,59,cs),
(193,59,o),
(118,138,o),
(118,242,cs),
(118,343,o),
(187,425,o),
(291,425,cs),
(395,425,o),
(468,342,o),
(468,241,cs)
);
},
{
closed = 1;
nodes = (
(578,251,l),
(578,344,o),
(611,425,o),
(708,425,cs),
(784,425,o),
(838,377,o),
(855,316,c)
);
}
);
width = 990;
}
);
unicode = 339;
},
{
color = 5;
glyphname = florin;
layers = (
{
layerId = "4E03E7F0-ECBD-4EC7-A096-1B73C4225036";
shapes = (
{
closed = 1;
nodes = (
(-13,-163,l),
(177,-163,l),
(268,329,l),
(378,329,l),
(408,473,l),
(294,473,l),
(309,536,ls),
(319,580,o),
(340,599,o),
(387,599,cs),
(398,599,o),
(410,599,o),
(425,596,c),
(450,731,l),
(422,738,o),
(383,743,o),
(344,743,cs),
(214,743,o),
(153,687,o),
(126,571,cs),
(103,473,l),
(47,473,l),
(17,329,l),
(78,329,l)
);
}
);
width = 463;
},
{
layerId = "DB4FB8A3-CCB4-4756-A88C-1F7F91E8FFEA";
shapes = (
{
closed = 1;
nodes = (
(-21,-113,l),
(76,-113,l),
(181,364,l),
(284,364,l),
(299,445,l),
(196,445,l),
(208,506,ls),
(227,606,o),
(261,634,o),
(315,634,cs),
(330,634,o),
(346,632,o),
(358,625,c),
(374,708,l),
(353,715,o),
(329,718,o),
(303,718,cs),
(224,718,o),
(144,677,o),
(115,538,cs),
(96,445,l),
(16,445,l),
(0,364,l),
(80,364,l)
);
}
);
width = 396;
},
{
layerId = "2D64E6AB-4944-48EA-A6F4-9D71FBB0136F";
shapes = (
{
closed = 1;
nodes = (
(-22,-103,l),
(56,-103,l),
(163,371,l),
(265,371,l),
(277,439,l),
(176,439,l),
(188,500,ls),
(209,611,o),
(245,641,o),
(300,641,cs),
(316,641,o),
(333,638,o),
(345,631,c),
(359,703,l),
(339,710,o),
(318,713,o),
(295,713,cs),
(226,713,o),
(142,675,o),
(113,531,cs),
(94,439,l),
(10,439,l),
(-3,371,l),
(80,371,l)
);
}
);
width = 382;
}
);
unicode = 402;
},
{
color = 5;
glyphname = Aringacute;
layers = (
{
layerId = "4E03E7F0-ECBD-4EC7-A096-1B73C4225036";
shapes = (
{
closed = 1;
nodes = (
(361,737,o),
(371,747,o),
(386,747,cs),
(398,747,o),
(409,737,o),
(409,724,cs),
(409,709,o),
(398,700,o),
(385,700,cs),
(370,700,o),
(361,709,o),
(361,724,cs)
);
},
{
closed = 1;
nodes = (
(-8,0,l),
(196,0,l),
(236,95,l),
(527,95,l),
(567,0,l),
(775,0,l),
(478,646,l),
(495,667,o),
(507,694,o),
(507,724,cs),
(507,790,o),
(451,843,o),
(383,843,cs),
(318,843,o),
(260,790,o),
(260,723,cs),
(260,693,o),
(271,667,o),
(289,646,c)
);
},
{
closed = 1;
nodes = (
(300,246,l),
(381,438,l),
(463,246,l)
);
},
{
alignment = -1;
pos = (282,255);
ref = acute;
}
);
width = 767;
},
{
layerId = "DB4FB8A3-CCB4-4756-A88C-1F7F91E8FFEA";
shapes = (
{
closed = 1;
nodes = (
(288,742,o),
(310,765,o),
(340,765,cs),
(370,765,o),
(392,741,o),
(392,713,cs),
(392,685,o),
(371,663,o),
(340,663,cs),
(311,663,o),
(288,682,o),
(288,714,cs)
);
},
{
closed = 1;
nodes = (
(-6,0,l),
(104,0,l),
(172,155,l),
(501,155,l),
(569,0,l),
(681,0,l),
(391,625,l),
(423,641,o),
(445,673,o),
(445,712,cs),
(445,770,o),
(397,817,o),
(338,817,cs),
(283,817,o),
(234,771,o),
(234,713,cs),
(234,676,o),
(254,645,o),
(284,627,c)
);
},
{
closed = 1;
nodes = (
(210,243,l),
(337,536,l),
(464,243,l)
);
},
{
alignment = -1;
pos = (242,217);
ref = acute;
}
);
width = 675;
},
{
layerId = "2D64E6AB-4944-48EA-A6F4-9D71FBB0136F";
shapes = (
{
closed = 1;
nodes = (
(273,743,o),
(298,768,o),
(331,768,cs),
(364,768,o),
(388,742,o),
(388,711,cs),
(388,680,o),
(366,656,o),
(331,656,cs),
(299,656,o),
(273,677,o),
(273,712,cs)
);
},
{
closed = 1;
nodes = (
(-5,0,l),
(86,0,l),
(159,167,l),
(496,167,l),
(569,0,l),
(662,0,l),
(374,621,l),
(409,636,o),
(432,669,o),
(432,709,cs),
(432,766,o),
(386,812,o),
(329,812,cs),
(276,812,o),
(229,767,o),
(229,711,cs),
(229,672,o),
(251,640,o),
(283,623,c)
);
},
{
closed = 1;
nodes = (
(192,242,l),
(328,555,l),
(464,242,l)
);
},
{
alignment = -1;
pos = (234,209);
ref = acute;
}
);
width = 657;
}
);
unicode = 506;
},
{
color = 5;
glyphname = circumflex;
layers = (
{
layerId = "4E03E7F0-ECBD-4EC7-A096-1B73C4225036";
shapes = (
{
closed = 1;
nodes = (
(232,799,l),
(133,799,l),
(-7,613,l),
(124,613,l),
(183,674,l),
(242,613,l),
(372,613,l)
);
}
);
width = 365;
},
{
layerId = "DB4FB8A3-CCB4-4756-A88C-1F7F91E8FFEA";
shapes = (
{
closed = 1;
nodes = (
(215,772,l),
(137,772,l),
(25,623,l),
(102,623,l),
(175,702,l),
(250,623,l),
(326,623,l)
);
}
);
width = 352;
},
{
layerId = "2D64E6AB-4944-48EA-A6F4-9D71FBB0136F";
shapes = (
{
closed = 1;
nodes = (
(211,766,l),
(138,766,l),
(31,625,l),
(97,625,l),
(173,707,l),
(251,625,l),
(317,625,l)
);
}
);
width = 349;
}
);
unicode = 710;
},
{
color = 5;
glyphname = caron;
layers = (
{
layerId = "4E03E7F0-ECBD-4EC7-A096-1B73C4225036";
shapes = (
{
closed = 1;
nodes = (
(245,777,l),
(189,714,l),
(131,777,l),
(-9,777,l),
(137,590,l),
(237,590,l),
(382,777,l)
);
}
);
width = 373;
},
{
layerId = "DB4FB8A3-CCB4-4756-A88C-1F7F91E8FFEA";
shapes = (
{
closed = 1;
nodes = (
(250,754,l),
(176,672,l),
(102,754,l),
(19,754,l),
(136,603,l),
(215,603,l),
(332,754,l)
);
}
);
width = 351;
},
{
layerId = "2D64E6AB-4944-48EA-A6F4-9D71FBB0136F";
shapes = (
{
closed = 1;
nodes = (
(251,749,l),
(173,663,l),
(96,749,l),
(24,749,l),
(136,606,l),
(211,606,l),
(322,749,l)
);
}
);
width = 347;
}
);
unicode = 711;
},
{
color = 5;
glyphname = macron;
layers = (
{
layerId = "4E03E7F0-ECBD-4EC7-A096-1B73C4225036";
shapes = (
{
closed = 1;
nodes = (
(402,696,l),
(31,696,l),
(31,579,l),
(402,579,l)
);
}
);
width = 432;
},
{
layerId = "DB4FB8A3-CCB4-4756-A88C-1F7F91E8FFEA";
shapes = (
{
closed = 1;
nodes = (
(358,673,l),
(45,673,l),
(45,606,l),
(358,606,l)
);
}
);
width = 401;
},
{
layerId = "2D64E6AB-4944-48EA-A6F4-9D71FBB0136F";
shapes = (
{
closed = 1;
nodes = (
(349,668,l),
(48,668,l),
(48,611,l),
(349,611,l)
);
}
);
width = 395;
}
);
unicode = 713;
},
{
color = 5;
glyphname = breve;
layers = (
{
layerId = "4E03E7F0-ECBD-4EC7-A096-1B73C4225036";
shapes = (
{
closed = 1;
nodes = (
(233,757,l),
(221,716,o),
(198,691,o),
(169,691,cs),
(140,691,o),
(114,716,o),
(102,757,c),
(-2,757,l),
(6,649,o),
(76,574,o),
(167,574,cs),
(259,574,o),
(329,649,o),
(337,757,c)
);
}
);
width = 335;
},
{
layerId = "DB4FB8A3-CCB4-4756-A88C-1F7F91E8FFEA";
shapes = (
{
closed = 1;
nodes = (
(265,744,l),
(253,698,o),
(221,672,o),
(176,672,cs),
(130,672,o),
(96,698,o),
(84,744,c),
(21,744,l),
(32,656,o),
(89,597,o),
(173,597,cs),
(257,597,o),
(319,656,o),
(327,744,c)
);
}
);
width = 348;
},
{
layerId = "2D64E6AB-4944-48EA-A6F4-9D71FBB0136F";
shapes = (
{
closed = 1;
nodes = (
(271,741,l),
(259,694,o),
(225,668,o),
(177,668,cs),
(128,668,o),
(92,694,o),
(80,741,c),
(26,741,l),
(37,657,o),
(91,602,o),
(174,602,cs),
(257,602,o),
(317,657,o),
(325,741,c)
);
}
);
width = 351;
}
);
unicode = 728;
},
{
color = 5;
glyphname = dotaccent;
layers = (
{
layerId = "4E03E7F0-ECBD-4EC7-A096-1B73C4225036";
shapes = (
{
closed = 1;
nodes = (
(11,617,o),
(58,584,o),
(118,584,cs),
(178,584,o),
(226,617,o),
(226,681,cs),
(226,745,o),
(178,777,o),
(118,777,cs),
(58,777,o),
(11,745,o),
(11,681,cs)
);
}
);
width = 239;
},
{
layerId = "DB4FB8A3-CCB4-4756-A88C-1F7F91E8FFEA";
shapes = (
{
closed = 1;
nodes = (
(38,642,o),
(69,613,o),
(106,613,cs),
(145,613,o),
(174,642,o),
(174,679,cs),
(174,719,o),
(145,745,o),
(106,745,cs),
(69,745,o),
(38,719,o),
(38,679,cs)
);
}
);
width = 211;
},
{
layerId = "2D64E6AB-4944-48EA-A6F4-9D71FBB0136F";
shapes = (
{
closed = 1;
nodes = (
(43,647,o),
(71,619,o),
(103,619,cs),
(138,619,o),
(164,647,o),
(164,678,cs),
(164,714,o),
(138,739,o),
(103,739,cs),
(71,739,o),
(43,714,o),
(43,678,cs)
);
}
);
width = 205;
}
);
unicode = 729;
},
{
color = 5;
glyphname = ring;
layers = (
{
layerId = "4E03E7F0-ECBD-4EC7-A096-1B73C4225036";
shapes = (
{
closed = 1;
nodes = (
(270,778,o),
(214,831,o),
(146,831,cs),
(81,831,o),
(23,778,o),
(23,711,cs),
(23,643,o),
(81,591,o),
(146,591,cs),
(214,591,o),
(270,643,o),
(270,712,cs)
);
},
{
closed = 1;
nodes = (
(170,696,o),
(161,687,o),
(146,687,cs),
(133,687,o),
(123,697,o),
(123,712,cs),
(123,724,o),
(133,735,o),
(146,735,cs),
(161,735,o),
(170,724,o),
(170,711,cs)
);
}
);
width = 293;
},
{
layerId = "DB4FB8A3-CCB4-4756-A88C-1F7F91E8FFEA";
shapes = (
{
closed = 1;
nodes = (
(240,768,o),
(192,815,o),
(134,815,cs),
(79,815,o),
(30,769,o),
(30,711,cs),
(30,653,o),
(79,609,o),
(134,609,cs),
(193,609,o),
(240,651,o),
(240,710,cs)
);
},
{
closed = 1;
nodes = (
(187,683,o),
(167,661,o),
(135,661,cs),
(106,661,o),
(83,680,o),
(83,712,cs),
(83,740,o),
(106,763,o),
(135,763,cs),
(165,763,o),
(187,739,o),
(187,711,cs)
);
}
);
width = 270;
},
{
layerId = "2D64E6AB-4944-48EA-A6F4-9D71FBB0136F";
shapes = (
{
closed = 1;
nodes = (
(234,766,o),
(188,812,o),
(131,812,cs),
(78,812,o),
(31,767,o),
(31,711,cs),
(31,655,o),
(78,612,o),
(131,612,cs),
(189,612,o),
(234,653,o),
(234,709,cs)
);
},
{
closed = 1;
nodes = (
(190,680,o),
(168,656,o),
(133,656,cs),
(101,656,o),
(75,677,o),
(75,712,cs),
(75,743,o),
(100,768,o),
(133,768,cs),
(166,768,o),
(190,742,o),
(190,711,cs)
);
}
);
width = 265;
}
);
unicode = 730;
},
{
color = 5;
glyphname = ogonek;
layers = (
{
layerId = "4E03E7F0-ECBD-4EC7-A096-1B73C4225036";
shapes = (
{
closed = 1;
nodes = (
(290,-118,l),
(261,-130,o),
(245,-133,o),
(234,-133,cs),
(218,-133,o),
(204,-126,o),
(204,-109,cs),
(204,-95,o),
(214,-66,o),
(270,0,c),
(144,0,l),
(113,-35,o),
(81,-77,o),
(81,-128,cs),
(81,-196,o),
(136,-238,o),
(209,-238,cs),
(242,-238,o),
(278,-230,o),
(313,-211,c)
);
}
);
width = 401;
},
{
layerId = "DB4FB8A3-CCB4-4756-A88C-1F7F91E8FFEA";
shapes = (
{
closed = 1;
nodes = (
(269,-136,l),
(249,-142,o),
(236,-145,o),
(223,-145,cs),
(191,-145,o),
(170,-124,o),
(170,-95,cs),
(170,-66,o),
(186,-43,o),
(215,0,c),
(144,0,l),
(120,-30,o),
(93,-67,o),
(93,-108,cs),
(93,-169,o),
(142,-204,o),
(207,-204,cs),
(230,-204,o),
(255,-199,o),
(281,-187,c)
);
}
);
width = 374;
},
{
layerId = "2D64E6AB-4944-48EA-A6F4-9D71FBB0136F";
shapes = (
{
closed = 1;
nodes = (
(265,-139,l),
(246,-144,o),
(234,-147,o),
(221,-147,cs),
(186,-147,o),
(163,-124,o),
(163,-92,cs),
(163,-60,o),
(180,-38,o),
(204,0,c),
(144,0,l),
(121,-29,o),
(95,-65,o),
(95,-104,cs),
(95,-164,o),
(143,-197,o),
(207,-197,cs),
(228,-197,o),
(250,-193,o),
(275,-182,c)
);
}
);
width = 369;
}
);
unicode = 731;
},
{
color = 5;
glyphname = tilde;
layers = (
{
layerId = "4E03E7F0-ECBD-4EC7-A096-1B73C4225036";
shapes = (
{
closed = 1;
nodes = (
(97,589,l),
(108,625,o),
(116,636,o),
(131,636,cs),
(158,636,o),
(198,601,o),
(246,601,cs),
(310,601,o),
(348,661,o),
(372,746,c),
(270,765,l),
(262,732,o),
(252,720,o),
(239,720,cs),
(213,720,o),
(168,755,o),
(120,755,cs),
(57,755,o),
(17,694,o),
(-6,607,c)
);
}
);
width = 366;
},
{
layerId = "DB4FB8A3-CCB4-4756-A88C-1F7F91E8FFEA";
shapes = (
{
closed = 1;
nodes = (
(87,605,l),
(98,638,o),
(119,651,o),
(142,651,cs),
(181,651,o),
(220,614,o),
(264,614,cs),
(313,614,o),
(343,657,o),
(363,724,c),
(302,736,l),
(291,706,o),
(279,691,o),
(257,691,cs),
(223,691,o),
(183,728,o),
(135,728,cs),
(81,728,o),
(45,683,o),
(25,616,c)
);
}
);
width = 388;
},
{
layerId = "2D64E6AB-4944-48EA-A6F4-9D71FBB0136F";
shapes = (
{
closed = 1;
nodes = (
(85,608,l),
(96,641,o),
(120,654,o),
(144,654,cs),
(186,654,o),
(224,617,o),
(267,617,cs),
(314,617,o),
(342,656,o),
(361,720,c),
(308,730,l),
(297,701,o),
(284,685,o),
(261,685,cs),
(225,685,o),
(186,722,o),
(138,722,cs),
(86,722,o),
(50,681,o),
(31,618,c)
);
}
);
width = 392;
}
);
unicode = 732;
},
{
color = 5;
glyphname = hungarumlaut;
layers = (
{
layerId = "4E03E7F0-ECBD-4EC7-A096-1B73C4225036";
shapes = (
{
closed = 1;
nodes = (
(268,767,l),
(114,796,l),
(-20,600,l),
(109,600,l)
);
},
{
closed = 1;
nodes = (
(500,768,l),
(345,796,l),
(213,600,l),
(341,600,l)
);
}
);
width = 471;
},
{
layerId = "DB4FB8A3-CCB4-4756-A88C-1F7F91E8FFEA";
shapes = (
{
closed = 1;
nodes = (
(223,744,l),
(123,762,l),
(17,605,l),
(93,605,l)
);
},
{
closed = 1;
nodes = (
(389,742,l),
(289,762,l),
(183,605,l),
(258,605,l)
);
}
);
width = 399;
},
{
layerId = "2D64E6AB-4944-48EA-A6F4-9D71FBB0136F";
shapes = (
{
closed = 1;
nodes = (
(214,739,l),
(125,755,l),
(24,606,l),
(90,606,l)
);
},
{
closed = 1;
nodes = (
(367,737,l),
(278,755,l),
(177,606,l),
(241,606,l)
);
}
);
width = 385;
}
);
unicode = 733;
},
{
color = 5;
glyphname = tonos;
layers = (
{
layerId = "4E03E7F0-ECBD-4EC7-A096-1B73C4225036";
shapes = (
{
closed = 1;
nodes = (
(81,657,l),
(215,657,l),
(423,842,l),
(185,842,l)
);
}
);
width = 493;
},
{
layerId = "DB4FB8A3-CCB4-4756-A88C-1F7F91E8FFEA";
shapes = (
{
closed = 1;
nodes = (
(102,657,l),
(173,657,l),
(331,812,l),
(195,812,l)
);
}
);
width = 427;
},
{
layerId = "2D64E6AB-4944-48EA-A6F4-9D71FBB0136F";
shapes = (
{
closed = 1;
nodes = (
(106,657,l),
(165,657,l),
(312,806,l),
(197,806,l)
);
}
);
width = 414;
}
);
unicode = 900;
},
{
color = 5;
glyphname = dieresistonos;
layers = (
{
layerId = "4E03E7F0-ECBD-4EC7-A096-1B73C4225036";
shapes = (
{
closed = 1;
nodes = (
(51,680,o),
(89,650,o),
(128,650,cs),
(167,650,o),
(206,680,o),
(206,727,cs),
(206,771,o),
(167,802,o),
(128,802,cs),
(89,802,o),
(51,771,o),
(51,727,cs)
);
},
{
closed = 1;
nodes = (
(211,651,l),
(331,651,l),
(479,836,l),
(271,836,l)
);
},
{
closed = 1;
nodes = (
(567,652,o),
(597,690,o),
(597,729,cs),
(597,768,o),
(567,807,o),
(520,807,cs),
(476,807,o),
(445,768,o),
(445,729,cs),
(445,690,o),
(476,652,o),
(520,652,cs)
);
}
);
width = 647;
},
{
layerId = "DB4FB8A3-CCB4-4756-A88C-1F7F91E8FFEA";
shapes = (
{
closed = 1;
nodes = (
(30,675,o),
(57,648,o),
(92,648,cs),
(125,648,o),
(155,675,o),
(155,710,cs),
(155,744,o),
(125,772,o),
(92,772,cs),
(57,772,o),
(30,744,o),
(30,710,cs)
);
},
{
closed = 1;
nodes = (
(155,651,l),
(224,651,l),
(372,806,l),
(241,806,l)
);
},
{
closed = 1;
nodes = (
(429,649,o),
(454,677,o),
(454,711,cs),
(454,744,o),
(429,773,o),
(392,773,cs),
(358,773,o),
(332,744,o),
(332,711,cs),
(332,677,o),
(358,649,o),
(392,649,cs)
);
}
);
width = 484;
},
{
layerId = "2D64E6AB-4944-48EA-A6F4-9D71FBB0136F";
shapes = (
{
closed = 1;
nodes = (
(26,674,o),
(50,648,o),
(85,648,cs),
(117,648,o),
(145,674,o),
(145,707,cs),
(145,739,o),
(117,766,o),
(85,766,cs),
(50,766,o),
(26,739,o),
(26,707,cs)
);
},
{
closed = 1;
nodes = (
(144,651,l),
(203,651,l),
(350,800,l),
(235,800,l)
);
},
{
closed = 1;
nodes = (
(401,648,o),
(425,674,o),
(425,707,cs),
(425,739,o),
(401,766,o),
(366,766,cs),
(334,766,o),
(309,739,o),
(309,707,cs),
(309,674,o),
(334,648,o),
(366,648,cs)
);
}
);
width = 451;
}
);
unicode = 901;
},
{
color = 5;
glyphname = Alpha;
layers = (
{
layerId = "4E03E7F0-ECBD-4EC7-A096-1B73C4225036";
shapes = (
{
closed = 1;
nodes = (
(516,125,l),
(567,0,l),
(775,0,l),
(477,705,l),
(290,705,l),
(-8,0,l),
(196,0,l),
(246,125,l)
);
},
{
closed = 1;
nodes = (
(382,475,l),
(460,276,l),
(303,276,l)
);
}
);
width = 767;
},
{
layerId = "DB4FB8A3-CCB4-4756-A88C-1F7F91E8FFEA";
shapes = (
{
closed = 1;
nodes = (
(507,185,l),
(585,0,l),
(698,0,l),
(390,705,l),
(301,705,l),
(-6,0,l),
(104,0,l),
(184,185,l)
);
},
{
closed = 1;
nodes = (
(345,584,l),
(471,273,l),
(220,273,l)
);
}
);
width = 692;
},
{
layerId = "2D64E6AB-4944-48EA-A6F4-9D71FBB0136F";
shapes = (
{
closed = 1;
nodes = (
(505,197,l),
(589,0,l),
(682,0,l),
(373,705,l),
(303,705,l),
(-5,0,l),
(86,0,l),
(171,197,l)
);
},
{
closed = 1;
nodes = (
(338,606,l),
(473,272,l),
(203,272,l)
);
}
);
width = 677;
}
);
unicode = 913;
},
